<?xml version="1.0" encoding="utf-8"?>
<!-- Generator: Adobe Illustrator 19.0.0, SVG Export Plug-In . SVG Version: 6.00 Build 0)  -->
<svg version="1.1" id="Layer_1" xmlns="http://www.w3.org/2000/svg" xmlns:xlink="http://www.w3.org/1999/xlink" x="0px" y="0px"
	 viewBox="-430 236.7 99 88.3" enable-background="new -430 236.7 99 88.3" xml:space="preserve">
<path fill="none" d="M-410.7,254.5c0.3,0,0.7-0.2,0.9-0.4c0.3-0.3,0.4-0.6,0.4-1.1c0-0.4-0.2-0.8-0.4-1.1c-0.2-0.3-0.6-0.4-1.1-0.4
	c-0.4,0-0.8,0.2-1.1,0.4s-0.4,0.6-0.4,1.1c0,0,1,0.1,1.5,0.6C-410.7,253.8-410.6,254.1-410.7,254.5z M-412,254
	C-412,254-412,254.1-412,254l0.2,0.2C-411.9,254.2-411.9,254.1-412,254z M-403.2,251.5c-0.4,0-0.8,0.2-1.1,0.4
	c-0.3,0.2-0.4,0.6-0.4,1.1c0,0.4,0.2,0.8,0.4,1.1c0.2,0.3,0.6,0.4,1.1,0.4c0.3,0,0.5-0.1,0.8-0.2c-0.6-0.5-0.6-0.8-0.4-1.1
	c0.3-0.4,1-0.6,1.1-0.6c-0.1-0.2-0.2-0.5-0.4-0.6C-402.4,251.7-402.8,251.5-403.2,251.5z"/>
<path fill="#262626" d="M-429.3,261.2c-0.3,0.1-0.5,0.2-0.8,0.2v4.2c2-0.5,4-1.2,6-1.9c0,0-2.6-1.3-2.6-1.3 M-415,255.7
	c-0.5-0.1-1-0.1-1.5,0.2c-0.8,0.4-1.6,0.9-2.5,1.3l0.1-0.1l2.1,1.1l2.1,1.1c0.5-0.3,0.8-0.7,1-1.2c0.2-0.5,0.1-1-0.2-1.5l-0.2-0.2
	C-414.3,256.1-414.6,255.8-415,255.7z M-424,263.6l3-1.2l-1.4,0.6L-424,263.6z M-416,260.1c0,0-1.1,0.6-1.1,0.6 M-420.9,258
	c-1.6,0.7-3.2,1.4-4.8,2l0.241-0.088L-423,261.1l2.5,1.2l3.3-1.5l-1.8-1.4C-419,259.4-420.9,258-420.9,258z"/>
<path fill="#444444" d="M-425.459,259.912L-425.8,260l-1.7,0.6l-1.7,0.5l-0.1,0.1l2.6,1.2l2.6,1.3l1.8-0.7l1.4-0.6l0.4-0.1
	l-2.618-1.259 M-418.9,257.1h-0.1l-1,0.4l-1,0.5h0.1l1.7,1.4l1.847,1.3l0.153,0.1l1.2-0.7l1.3-0.8l-2.1-1.1"/>
<path fill="#DBC28C" d="M-393.9,322.3c-3.2,1-7.6,1.7-12.4,1.7c-4.8,0-9.135-0.776-12.335-1.876c-3.2-1-5.165-2.224-5.165-3.824
	v-4.2c-2.8,1.1-4.4,2.6-4.4,4.2c0,1.8,2.2,3.5,5.8,4.7c3.6,1.2,8.6,2,14.1,2s10.5-0.7,14.1-2c3.6-1.2,5.8-2.9,5.8-4.7
	c0-0.4-0.244-0.888-0.444-1.287l-0.062,1.311C-389.006,319.824-390.7,321.2-393.9,322.3z"/>
<path fill="#595959" d="M-393.9,317.7c-3.2,1-7.6,1.7-12.4,1.7c-4.8,0-9.2-0.6-12.4-1.7c-3.2-1-5.1-2.4-5.1-4v4.6c0,1.6,2,3,5.1,4
	c3.2,1,7.6,1.7,12.4,1.7c4.8,0,9.2-0.6,12.4-1.7c3.2-1,5.1-2.4,5.1-3.929l-0.198-5.032C-388.998,314.768-390.7,316.6-393.9,317.7z"
	/>
<path fill="#848484" d="M-404.471,311.571c0.8,0.3,1.2,0.7,1.2,1.1s-0.5,0.8-1.2,1.1c-0.8,0.3-1.8,0.5-3,0.5
	c-1.2,0-2.153-0.212-2.953-0.512c-0.8-0.3-1.247-0.688-1.247-1.088s0.524-0.718,1.224-1.018c0.3-0.1,0.888-0.265,1.188-0.365
	l-0.024-3.118c-3.7,0.2-7.088,0.8-9.588,1.6c-3.2,1-5.1,2.4-5.1,4c0,1.6,2,3,5.1,4c3.294,1.294,7.6,1.7,12.4,1.7
	c4.8,0,9.2-0.6,12.4-1.7c3.2-1,5.1-2.4,5.1-4c0-1.6-2-3-5.1-4c-2.9-0.9-6.8-1.5-11.1-1.6v3.3
	C-404.871,311.371-404.671,311.471-404.471,311.571z"/>
<path fill="#595959" d="M-411.706,312.612c0,0.4,0.429,0.8,1.129,1.1c0.788,0.341,1.906,0.559,3.106,0.559
	c1.2,0,2.176-0.176,2.976-0.476c0.8-0.3,1.235-0.753,1.235-1.153s-0.547-0.829-1.247-1.129c-0.2-0.1-0.4-0.1-0.6-0.2v0.8
	c0,0.3-0.2,0.6-0.6,0.7c-0.4,0.1-0.9,0.3-1.5,0.3c-0.6,0-1.1-0.1-1.5-0.3c-0.4-0.2-0.6-0.5-0.6-0.7v-0.9c-0.4,0.1-0.7,0.2-1,0.3
	C-411.206,311.812-411.706,312.212-411.706,312.612z"/>
<path fill="#848484" d="M-406.435,252.959c0-1,0.294-1.547,0.894-2.247c0.2-0.2,0.235-0.294,0.435-0.494L-405.1,246
	c-0.3,0.1-0.6,0.1-1,0.2c-0.4,0.1-0.7,0.1-1.1,0.1c-0.4,0-0.8,0-1.1-0.1c-0.4,0-0.7-0.1-1-0.2v4l0.9,0.6c0.6,0.6,1,1.5,1,2.5
	s-0.518,1.276-1.118,1.976c-0.3,0.3-0.365,0.565-0.765,0.765L-409.3,312.2c0,0.3,0.2,0.6,0.6,0.7c0.4,0.1,0.9,0.3,1.5,0.3
	c0.6,0,1.1-0.1,1.5-0.3c0.4-0.2,0.6-0.5,0.6-0.7v-56.3c-0.2-0.1-0.324-0.447-0.524-0.647
	C-406.224,254.653-406.435,253.959-406.435,252.959z"/>
<path fill="#595959" d="M-407.2,247.2c0.4,0,0.8,0,1.1-0.1c0.3-0.1,0.7-0.1,1-0.2v-1c-0.7,0.4-1.5,0.7-2.3,0.7
	c-0.7,0-1.3-0.2-1.9-0.4v0.8c0.3,0.1,0.6,0.1,1,0.2C-408.3,247.2-407.2,247.2-407.2,247.2z"/>
<path fill="#848484" d="M-407.4,246.6c0.9,0,1.6-0.3,2.3-0.7c0.3-0.2,0.6-0.4,0.8-0.6c0.8-0.8,1.3-1.9,1.3-3.2
	c0-1.3-0.5-2.4-1.3-3.2c-0.8-0.8-1.9-1.2-3.1-1.2c-1.2,0-2.4,0.5-3.2,1.3c-0.8,0.8-1.3,1.9-1.3,3.2s0.5,2.4,1.3,3.2
	c0.4,0.4,0.8,0.6,1.2,0.9C-408.7,246.5-408.1,246.6-407.4,246.6z"/>
<path fill="#595959" d="M-407.4,253c0-1-0.4-1.8-1-2.5c-0.3-0.3-0.5-0.4-0.9-0.6c-0.5-0.2-1-0.4-1.6-0.4c-1,0-1.8,0.4-2.5,1
	c-0.6,0.6-1,1.5-1,2.5c0,0.8,0.371,1.618,0.871,2.218c0.1-0.1,0.753-0.041,0.694-0.282c0.4-0.2,0.865-0.471,1.165-0.671
	c0,0-0.259-0.194-0.259-0.294l-0.171-0.071l-0.2-0.2c-0.2-0.2-0.206-0.471-0.2-0.8c0-0.4,0.2-0.8,0.4-1.1c0.2-0.3,0.6-0.4,1.1-0.4
	c0.4,0,0.8,0.2,1.1,0.4c0.3,0.2,0.4,0.6,0.4,1.1c0,0.4-0.2,0.8-0.4,1.1c-0.2,0.2-0.5,0.4-0.9,0.4c-0.1,0.4-0.5,1-1.4,1.8
	c0.4,0.1,0.8,0.2,1.2,0.2c0.6,0,1.1-0.2,1.6-0.4l0.9-0.6C-407.8,254.8-407.4,254-407.4,253z M-402.4,254.3c-0.2,0.1-0.5,0.2-0.8,0.2
	c-0.4,0-0.8-0.2-1.1-0.4c-0.3-0.2-0.4-0.6-0.4-1.1c0-0.4,0.2-0.8,0.4-1.1c0.2-0.3,0.6-0.4,1.1-0.4c0.4,0,0.8,0.2,1.1,0.4
	c0.2,0.2,0.3,0.4,0.4,0.6c0.1,0.4,0.6,0.7,1.1,0.8c0.3,0.1,0.618,0.276,0.718,0.276l-0.018-0.476l0.1-0.5l0.1-0.4
	c-0.1-0.7-0.5-1.3-0.9-1.8c-0.6-0.6-1.5-1-2.5-1c-0.7,0-1.3,0.2-1.9,0.6c-0.2,0.1-0.4,0.3-0.6,0.5c-0.6,0.6-1,1.5-1,2.5
	s0.4,1.8,1,2.5c0.2,0.2,0.4,0.3,0.6,0.5c0.5,0.3,1.2,0.6,1.9,0.6c1,0,1.8-0.4,2.5-1c0.1-0.1,0.2-0.2,0.2-0.3c-0.1,0-0.3,0-0.4-0.1
	C-401.7,254.8-402.1,254.6-402.4,254.3z"/>
<path fill="#848484" d="M-410.7,254.5c0.1-0.4,0-0.7-0.2-0.9c-0.5-0.5-1.594-0.606-1.594-0.606c-0.1,0.3,0.1,0.6,0.2,0.8L-412,254
	l0.2,0.2c-0.3,0.2-0.9,0.5-1.3,0.7c-0.2,0.1-0.3,0.2-0.4,0.3l-0.4,0.2c0,0-0.2,0.5-0.1,0.9c0,0.1,0,0.1,0.1,0.2
	c0,0.1,0.1,0.2,0.2,0.2c0.2,0.2,0.5,0.3,1.2,0.1c0.2-0.2,0.4-0.3,0.6-0.5C-411.2,255.5-410.8,255-410.7,254.5z M-399.2,254
	c0.2-0.5,0.2-1.1-0.5-1.8l-0.165,0.535l-0.059,0.476l0.024,0.388c0.1,0,0.2,0,0.2,0.1c0,0,0.2,0.5,0.1,0.9c0,0.1-0.1,0.2-0.2,0.3
	l0.3-0.3c0-0.1,0.1-0.2,0.1-0.3C-399.3,254.2-399.2,254.1-399.2,254z"/>
<path fill="#848484" d="M-399.482,253.671c0,0-0.114,0-0.229-0.114c-0.229,0-0.458-0.114-0.801-0.229
	c-0.572-0.229-1.041-0.451-1.241-0.91c-0.114,0-0.934,0.223-1.277,0.681c-0.229,0.343-0.229,0.687,0.458,1.259
	c0.343,0.229,0.916,0.572,1.717,0.916c0.229,0,0.343,0.114,0.458,0.114c0.458,0,0.687-0.114,0.916-0.343
	c0.114-0.114,0.114-0.229,0.229-0.343C-399.253,254.243-399.367,253.671-399.482,253.671z"/>
<path fill="#262626" d="M-361.2,263.6h0.2c-3.3-0.3-6.5-0.9-9.5-1.5c-2.1-0.4-4.1-0.9-6-1.4h0.2l1.2,2.4l1.1,2.6
	c1.8,0.4,3.6,0.8,5.5,1.1l-0.6-2.2l-0.6-2.2l1.7,0.3l1.8,0.4l0.5,2.1l0.5,2.1c2.3,0.3,4.6,0.6,7,0.7l-1.5-2.2
	C-359.7,265.8-361.2,263.6-361.2,263.6z M-387.6,257.3c-1.7-0.6-3.2-1.2-4.5-1.8h0.1l0.5,2.4l0.5,2.4c1.5,0.6,3.1,1.2,5,1.9
	l-0.8-2.4L-387.6,257.3z M-392.8,259.6c0.5,0.2,1.1,0.5,1.7,0.7l-0.9-0.3C-392,260-392.8,259.6-392.8,259.6z M-393.6,254.9
	c-1.8-0.8-2.9-1.4-3-1.4c-0.5-0.3-1-0.3-1.5-0.1c-0.4,0.1-0.8,0.4-1,0.7c-0.1,0.1-0.1,0.2-0.2,0.2c-0.1,0.1-0.1,0.2-0.1,0.3
	c-0.1,0.4-0.1,0.8,0,1.2c0.1,0.5,0.5,0.9,1,1.2c0.4,0.2,2.3,1.2,5.5,2.6l-0.3-2.4C-393.2,257.2-393.6,254.9-393.6,254.9z
	 M-385.9,262.3l1.8,0.6c0.1,0,0.3,0.1,0.4,0.1l-1.1-0.3C-384.8,262.7-385.9,262.3-385.9,262.3z M-351.3,264.1h0.2
	c-2.4,0-4.7-0.1-7-0.2h0.1l1.6,2.2l1.5,2.1c1,0,2,0.1,2.9,0.1c1.2,0,2.4,0,3.7-0.1l-1.5-2C-349.8,266.2-351.3,264.1-351.3,264.1z
	 M-347.7,264.1l1.6,2l1.5,1.9c2.6-0.2,5.2-0.6,7.9-1.1l-2.3-1.6l-2.219-1.616l1.919-0.384l1.909-0.366l1.981,1.666l2,1.6l2.509-0.6
	v-4.2c-5.7,1.6-11.4,2.5-16.9,2.7C-347.8,264.1-347.7,264.1-347.7,264.1z"/>
<path fill="#262626" d="M-336.6,266.8c0.9-0.2,1.7-0.3,2.6-0.5c0.1,0,0.2-0.1,0.4-0.1l-1.4,0.3C-335,266.5-336.6,266.8-336.6,266.8z
	 M-377.6,264.8c1.1,0.3,2.1,0.5,3.3,0.8l-1.6-0.4L-377.6,264.8z M-379,260.1h0.1c-2.2-0.6-4.2-1.3-6-1.9h0.1l0.6,2.5l0.7,2.359
	c1.8,0.6,3.8,1.141,5.9,1.641l-0.7-2.3C-378.3,262.4-379,260.1-379,260.1z M-368.3,266.8c1,0.2,2,0.3,3.1,0.5l-1.6-0.3
	C-366.8,267-368.3,266.8-368.3,266.8z"/>
<path fill="#444444" d="M-391.953,255.622l-0.847-0.422l-0.8-0.3l0.3,2.3l0.3,2.4h0.2l0.8,0.4l0.9,0.3l0.131,0.056l-0.484-2.328
	 M-384.8,258.3l-0.138-0.053l-1.263-0.447l-1.3-0.4l-0.1-0.1l0.8,2.5l0.7,2.4l0.2,0.1l1.1,0.4l1.1,0.3l0.2,0.1l-0.7-2.4
	 M-376.234,260.856l-0.266-0.056l-1.2-0.3l-1.2-0.3l-0.1-0.1l0.7,2.4l0.6,2.3h0.1l1.7,0.4l1.6,0.4l0.3,0.1l-1.078-2.516
	 M-366.2,263.1l-1.8-0.4l-1.8-0.4l0.6,2.3l0.6,2.2h0.3l1.4,0.3l1.7,0.2l-0.5-2.1 M-357.9,263.9h-0.2l-1.4-0.1l-1.5-0.1l-0.2-0.1
	l1.6,2.3l1.5,2.2l1.6,0.1l1.7,0.1l-0.1-0.1l-1.5-2.1 M-347.7,264.1h-3.6l1.487,2.147l1.438,1.891l0.047,0.094l1.928-0.131l1.8-0.1
	l-1.5-2 M-337.4,262.9l-2,0.4l-1.9,0.3l2.3,1.7l2.3,1.6l0.1-0.1l1.6-0.3l1.4-0.3h0.2l-2-1.7"/>
</svg>
