<svg xmlns="http://www.w3.org/2000/svg" viewBox="0 0 33.5 138.2"><path fill="#221F1F" d="M15.2 129.1l.7 4.4L0 134l.1-1.8c.2-.6.7-1.1 1.4-1.2l7.7-2 6 .1z"/><path fill="#404041" d="M8.6 64.1s-.2 34.7-2.2 65.7l8.8.8s1.1-27 .9-45.8c0 0 1.3 18 1.3 26.9 0 6.1 1.5 21.9 1.5 21.9l7.4 2.5-1.3-30.8s2.8-33.4 1.8-37.4l-1.5-3.8H8.6z"/><path fill="#E7AB8D" d="M5 4.8l-1.7 10 2.1.6 2.4 5.8h2.5l2.5-1.2 2.7 6.4 6-3.3-2.5-6.8-4.4-15.2"/><path fill="#FFC64B" d="M21.5 23.1c-.3-.7-8.8 3.4-9.8 7.8C10.7 35.2 7 63 7 63s.2.7 1.6 1c1.4.3 12 0 12 0l2.7 5s7.8-1.9 8.9-6.8 3.3-26.1-3-33.2-7.7-5.9-7.7-5.9z"/><path fill="#CE9524" d="M20.6 64.1s4.9-1.1 5.7-5.7c.8-4.6 0-13.5 0-13.5s.8 11.9-1.2 14.5c0 0-1 2.8-5.4 4.7h.9zm.6-43.6c2-.3 1.7 2.9 1.7 2.9-3.7.3-9.7 6.5-9.7 6.5l-1.7-4.7 9.7-4.7z"/><path fill="#221F1F" d="M26 132.1l.8 5.5-19.6.6.1-2.2c.3-.7.9-1.3 1.7-1.5l9.6-2.5 7.4.1z"/><path fill="#E7AB8D" d="M20.6 64.1s-1.9.9-1.9 2.2l3.5 4.2 1.1-1.4-2.7-5z"/><ellipse transform="rotate(-169.8 11.44 32.538)" fill="#CE9524" cx="11.4" cy="32.5" rx=".5" ry=".7"/><ellipse transform="rotate(-169.8 10.716 37.44)" fill="#CE9524" cx="10.7" cy="37.4" rx=".5" ry=".7"/><ellipse transform="rotate(-169.8 9.747 44.217)" fill="#CE9524" cx="9.7" cy="44.2" rx=".5" ry=".7"/><ellipse transform="rotate(-169.8 8.778 49.995)" fill="#CE9524" cx="8.8" cy="50" rx=".5" ry=".7"/><ellipse transform="rotate(-169.8 7.808 56.518)" fill="#CE9524" cx="7.8" cy="56.5" rx=".5" ry=".7"/><path fill="#CE9524" d="M14.7 36.8l5.5.6-.5 1.5-5-.8"/><path fill="#231F20" d="M19.2 5S13.1-3.3 7 1.6c0 0-3.2.3-2.9 4.5l.5 1.3.2-.9 5.5 2.9 2.6 4.2 1 .1.1-1 .9-.7c.4-.3.9-.4 1.3-.2.6.3.6 1.3.1 2.2-.2.3-.5.6-.7.8l.1.3s1.4 2.9 3.4 1.2c-.1 0 1.4-5.4.1-11.3z"/></svg>