<svg xmlns="http://www.w3.org/2000/svg" xmlns:xlink="http://www.w3.org/1999/xlink" viewBox="0 0 656.7 528.3"><path fill="#70B3DC" d="M656.7 466V344.7h-52V361h-12.5v-20.9h13.4v-97H409.9v-54.3h35.9L421.6 0H24.3L0 188.8h35.9v339.5h573.4V484h-17.1v-38.5h12.5V466h52zm-64.5-27.1v-71.5h12.5v71.5h-12.5z"/><path fill="#BAE4E8" d="M2752.6 162h374v436.6h-374z"/><path fill="#86D2DA" d="M3047.6 162h-295v414.8"/><path fill="#A9BFCB" d="M2815.6 390.3h248v205h-248z"/><path fill="#82A0AF" d="M2815.6 568.6h248v7.8h-248zm0-17.8h248v7.8h-248zm0-17.8h248v7.8h-248zm0-17.8h248v7.8h-248zm0-17.8h248v7.8h-248zm0-17.8h248v7.8h-248zm0-17.8h248v7.8h-248zm0-17.7h248v7.8h-248zm0-17.8h248v7.8h-248zm0-17.8h248v7.8h-248z"/><defs><path id="a" d="M3162.5 259.1h-445.8l24.2-188.8h397.3z"/></defs><use xlink:href="#a" overflow="visible" fill="#D1D3D4"/><clipPath id="b"><use xlink:href="#a" overflow="visible"/></clipPath><g clip-path="url(#b)" fill="#BCBEC0"><path d="M2910.4 162.9c-8.8 0-16-9.5-16-21.2h4.7c0 9.1 5.1 16.5 11.3 16.5 6.2 0 11.3-7.4 11.3-16.5h4.7c0 11.7-7.2 21.2-16 21.2z"/><path d="M2880.7 162.9c-8.8 0-16-9.5-16-21.2h4.7c0 9.1 5.1 16.5 11.3 16.5 6.2 0 11.3-7.4 11.3-16.5h4.7c0 11.7-7.2 21.2-16 21.2z"/><path d="M2850.9 162.9c-8.8 0-16-9.5-16-21.2h4.7c0 9.1 5.1 16.5 11.3 16.5 6.2 0 11.3-7.4 11.3-16.5h4.7c.1 11.7-7.1 21.2-16 21.2z"/><path d="M2821.2 162.9c-8.8 0-16-9.5-16-21.2h4.7c0 9.1 5.1 16.5 11.3 16.5 6.2 0 11.3-7.4 11.3-16.5h4.7c0 11.7-7.1 21.2-16 21.2z"/><path d="M2791.5 162.9c-8.8 0-16-9.5-16-21.2h4.7c0 9.1 5.1 16.5 11.3 16.5 6.2 0 11.3-7.4 11.3-16.5h4.7c0 11.7-7.2 21.2-16 21.2z"/><path d="M2761.8 162.9c-8.8 0-16-9.5-16-21.2h4.7c0 9.1 5.1 16.5 11.3 16.5 6.2 0 11.3-7.4 11.3-16.5h4.7c0 11.7-7.2 21.2-16 21.2z"/><path d="M2732 162.9c-8.8 0-16-9.5-16-21.2h4.7c0 9.1 5.1 16.5 11.3 16.5 6.2 0 11.3-7.4 11.3-16.5h4.7c.1 11.7-7.1 21.2-16 21.2zm192 19.4c-8.8 0-16-9.5-16-21.2h4.7c0 9.1 5.1 16.5 11.3 16.5 6.2 0 11.3-7.4 11.3-16.5h4.7c0 11.7-7.2 21.2-16 21.2z"/><path d="M2894.3 182.3c-8.8 0-16-9.5-16-21.2h4.7c0 9.1 5.1 16.5 11.3 16.5 6.2 0 11.3-7.4 11.3-16.5h4.7c0 11.7-7.2 21.2-16 21.2z"/><path d="M2864.6 182.3c-8.8 0-16-9.5-16-21.2h4.7c0 9.1 5.1 16.5 11.3 16.5 6.2 0 11.3-7.4 11.3-16.5h4.7c0 11.7-7.2 21.2-16 21.2z"/><path d="M2834.8 182.3c-8.8 0-16-9.5-16-21.2h4.7c0 9.1 5.1 16.5 11.3 16.5 6.2 0 11.3-7.4 11.3-16.5h4.7c0 11.7-7.1 21.2-16 21.2z"/><path d="M2805.1 182.3c-8.8 0-16-9.5-16-21.2h4.7c0 9.1 5.1 16.5 11.3 16.5 6.2 0 11.3-7.4 11.3-16.5h4.7c0 11.7-7.2 21.2-16 21.2z"/><path d="M2775.4 182.3c-8.8 0-16-9.5-16-21.2h4.7c0 9.1 5.1 16.5 11.3 16.5 6.2 0 11.3-7.4 11.3-16.5h4.7c0 11.7-7.2 21.2-16 21.2z"/><path d="M2745.6 182.3c-8.8 0-16-9.5-16-21.2h4.7c0 9.1 5.1 16.5 11.3 16.5 6.2 0 11.3-7.4 11.3-16.5h4.7c.1 11.7-7.1 21.2-16 21.2zm164.8 18.3c-8.8 0-16-9.5-16-21.2h4.7c0 9.1 5.1 16.5 11.3 16.5 6.2 0 11.3-7.4 11.3-16.5h4.7c0 11.7-7.2 21.2-16 21.2z"/><path d="M2880.7 200.6c-8.8 0-16-9.5-16-21.2h4.7c0 9.1 5.1 16.5 11.3 16.5 6.2 0 11.3-7.4 11.3-16.5h4.7c0 11.7-7.2 21.2-16 21.2z"/><path d="M2850.9 200.6c-8.8 0-16-9.5-16-21.2h4.7c0 9.1 5.1 16.5 11.3 16.5 6.2 0 11.3-7.4 11.3-16.5h4.7c.1 11.7-7.1 21.2-16 21.2z"/><path d="M2821.2 200.6c-8.8 0-16-9.5-16-21.2h4.7c0 9.1 5.1 16.5 11.3 16.5 6.2 0 11.3-7.4 11.3-16.5h4.7c0 11.7-7.1 21.2-16 21.2z"/><path d="M2791.5 200.6c-8.8 0-16-9.5-16-21.2h4.7c0 9.1 5.1 16.5 11.3 16.5 6.2 0 11.3-7.4 11.3-16.5h4.7c0 11.7-7.2 21.2-16 21.2z"/><path d="M2761.8 200.6c-8.8 0-16-9.5-16-21.2h4.7c0 9.1 5.1 16.5 11.3 16.5 6.2 0 11.3-7.4 11.3-16.5h4.7c0 11.7-7.2 21.2-16 21.2z"/><path d="M2732 200.6c-8.8 0-16-9.5-16-21.2h4.7c0 9.1 5.1 16.5 11.3 16.5 6.2 0 11.3-7.4 11.3-16.5h4.7c.1 11.7-7.1 21.2-16 21.2zm192 19.8c-8.8 0-16-9.5-16-21.2h4.7c0 9.1 5.1 16.5 11.3 16.5 6.2 0 11.3-7.4 11.3-16.5h4.7c0 11.7-7.2 21.2-16 21.2z"/><path d="M2894.3 220.4c-8.8 0-16-9.5-16-21.2h4.7c0 9.1 5.1 16.5 11.3 16.5 6.2 0 11.3-7.4 11.3-16.5h4.7c0 11.7-7.2 21.2-16 21.2z"/><path d="M2864.6 220.4c-8.8 0-16-9.5-16-21.2h4.7c0 9.1 5.1 16.5 11.3 16.5 6.2 0 11.3-7.4 11.3-16.5h4.7c0 11.7-7.2 21.2-16 21.2z"/><path d="M2834.8 220.4c-8.8 0-16-9.5-16-21.2h4.7c0 9.1 5.1 16.5 11.3 16.5 6.2 0 11.3-7.4 11.3-16.5h4.7c0 11.7-7.1 21.2-16 21.2z"/><path d="M2805.1 220.4c-8.8 0-16-9.5-16-21.2h4.7c0 9.1 5.1 16.5 11.3 16.5 6.2 0 11.3-7.4 11.3-16.5h4.7c0 11.7-7.2 21.2-16 21.2z"/><path d="M2775.4 220.4c-8.8 0-16-9.5-16-21.2h4.7c0 9.1 5.1 16.5 11.3 16.5 6.2 0 11.3-7.4 11.3-16.5h4.7c0 11.7-7.2 21.2-16 21.2z"/><path d="M2745.6 220.4c-8.8 0-16-9.5-16-21.2h4.7c0 9.1 5.1 16.5 11.3 16.5 6.2 0 11.3-7.4 11.3-16.5h4.7c.1 11.7-7.1 21.2-16 21.2zM2910.4 238.2c-8.8 0-16-9.5-16-21.2h4.7c0 9.1 5.1 16.5 11.3 16.5 6.2 0 11.3-7.4 11.3-16.5h4.7c0 11.7-7.2 21.2-16 21.2z"/><path d="M2880.7 238.2c-8.8 0-16-9.5-16-21.2h4.7c0 9.1 5.1 16.5 11.3 16.5 6.2 0 11.3-7.4 11.3-16.5h4.7c0 11.7-7.2 21.2-16 21.2z"/><path d="M2850.9 238.2c-8.8 0-16-9.5-16-21.2h4.7c0 9.1 5.1 16.5 11.3 16.5 6.2 0 11.3-7.4 11.3-16.5h4.7c.1 11.7-7.1 21.2-16 21.2z"/><path d="M2821.2 238.2c-8.8 0-16-9.5-16-21.2h4.7c0 9.1 5.1 16.5 11.3 16.5 6.2 0 11.3-7.4 11.3-16.5h4.7c0 11.7-7.1 21.2-16 21.2z"/><path d="M2791.5 238.2c-8.8 0-16-9.5-16-21.2h4.7c0 9.1 5.1 16.5 11.3 16.5 6.2 0 11.3-7.4 11.3-16.5h4.7c0 11.7-7.2 21.2-16 21.2z"/><path d="M2761.8 238.2c-8.8 0-16-9.5-16-21.2h4.7c0 9.1 5.1 16.5 11.3 16.5 6.2 0 11.3-7.4 11.3-16.5h4.7c0 11.7-7.2 21.2-16 21.2z"/><path d="M2732 238.2c-8.8 0-16-9.5-16-21.2h4.7c0 9.1 5.1 16.5 11.3 16.5 6.2 0 11.3-7.4 11.3-16.5h4.7c.1 11.7-7.1 21.2-16 21.2z"/><path d="M2715.3 258.3c-8.8 0-16-9.5-16-21.2h4.7c0 9.1 5.1 16.5 11.3 16.5 6.2 0 11.3-7.4 11.3-16.5h4.7c0 11.7-7.2 21.2-16 21.2zm210.9-.6c-8.8 0-16-9.5-16-21.2h4.7c0 9.1 5.1 16.5 11.3 16.5 6.2 0 11.3-7.4 11.3-16.5h4.7c0 11.6-7.2 21.2-16 21.2z"/><path d="M2894.3 258c-8.8 0-16-9.5-16-21.2h4.7c0 9.1 5.1 16.5 11.3 16.5 6.2 0 11.3-7.4 11.3-16.5h4.7c0 11.7-7.2 21.2-16 21.2z"/><path d="M2864.6 258c-8.8 0-16-9.5-16-21.2h4.7c0 9.1 5.1 16.5 11.3 16.5 6.2 0 11.3-7.4 11.3-16.5h4.7c0 11.7-7.2 21.2-16 21.2z"/><path d="M2834.8 258c-8.8 0-16-9.5-16-21.2h4.7c0 9.1 5.1 16.5 11.3 16.5 6.2 0 11.3-7.4 11.3-16.5h4.7c0 11.7-7.1 21.2-16 21.2z"/><path d="M2805.1 258c-8.8 0-16-9.5-16-21.2h4.7c0 9.1 5.1 16.5 11.3 16.5 6.2 0 11.3-7.4 11.3-16.5h4.7c0 11.7-7.2 21.2-16 21.2z"/><path d="M2775.4 258c-8.8 0-16-9.5-16-21.2h4.7c0 9.1 5.1 16.5 11.3 16.5 6.2 0 11.3-7.4 11.3-16.5h4.7c0 11.7-7.2 21.2-16 21.2z"/><path d="M2745.6 258c-8.8 0-16-9.5-16-21.2h4.7c0 9.1 5.1 16.5 11.3 16.5 6.2 0 11.3-7.4 11.3-16.5h4.7c.1 11.7-7.1 21.2-16 21.2z"/><g><path d="M2924 107.2c-8.8 0-16-9.5-16-21.2h4.7c0 9.1 5.1 16.5 11.3 16.5 6.2 0 11.3-7.4 11.3-16.5h4.7c0 11.7-7.2 21.2-16 21.2z"/><path d="M2894.3 107.2c-8.8 0-16-9.5-16-21.2h4.7c0 9.1 5.1 16.5 11.3 16.5 6.2 0 11.3-7.4 11.3-16.5h4.7c0 11.7-7.2 21.2-16 21.2z"/><path d="M2864.6 107.2c-8.8 0-16-9.5-16-21.2h4.7c0 9.1 5.1 16.5 11.3 16.5 6.2 0 11.3-7.4 11.3-16.5h4.7c0 11.7-7.2 21.2-16 21.2z"/><path d="M2834.8 107.2c-8.8 0-16-9.5-16-21.2h4.7c0 9.1 5.1 16.5 11.3 16.5 6.2 0 11.3-7.4 11.3-16.5h4.7c0 11.7-7.1 21.2-16 21.2z"/><path d="M2805.1 107.2c-8.8 0-16-9.5-16-21.2h4.7c0 9.1 5.1 16.5 11.3 16.5 6.2 0 11.3-7.4 11.3-16.5h4.7c0 11.7-7.2 21.2-16 21.2z"/><path d="M2775.4 107.2c-8.8 0-16-9.5-16-21.2h4.7c0 9.1 5.1 16.5 11.3 16.5 6.2 0 11.3-7.4 11.3-16.5h4.7c0 11.7-7.2 21.2-16 21.2z"/><path d="M2745.6 107.2c-8.8 0-16-9.5-16-21.2h4.7c0 9.1 5.1 16.5 11.3 16.5 6.2 0 11.3-7.4 11.3-16.5h4.7c.1 11.7-7.1 21.2-16 21.2zm164.8 17.9c-8.8 0-16-9.5-16-21.2h4.7c0 9.1 5.1 16.5 11.3 16.5 6.2 0 11.3-7.4 11.3-16.5h4.7c0 11.7-7.2 21.2-16 21.2z"/><path d="M2880.7 125.1c-8.8 0-16-9.5-16-21.2h4.7c0 9.1 5.1 16.5 11.3 16.5 6.2 0 11.3-7.4 11.3-16.5h4.7c0 11.7-7.2 21.2-16 21.2z"/><path d="M2850.9 125.1c-8.8 0-16-9.5-16-21.2h4.7c0 9.1 5.1 16.5 11.3 16.5 6.2 0 11.3-7.4 11.3-16.5h4.7c.1 11.7-7.1 21.2-16 21.2z"/><path d="M2821.2 125.1c-8.8 0-16-9.5-16-21.2h4.7c0 9.1 5.1 16.5 11.3 16.5 6.2 0 11.3-7.4 11.3-16.5h4.7c0 11.7-7.1 21.2-16 21.2z"/><path d="M2791.5 125.1c-8.8 0-16-9.5-16-21.2h4.7c0 9.1 5.1 16.5 11.3 16.5 6.2 0 11.3-7.4 11.3-16.5h4.7c0 11.7-7.2 21.2-16 21.2z"/><path d="M2761.8 125.1c-8.8 0-16-9.5-16-21.2h4.7c0 9.1 5.1 16.5 11.3 16.5 6.2 0 11.3-7.4 11.3-16.5h4.7c0 11.7-7.2 21.2-16 21.2z"/><path d="M2732 125.1c-8.8 0-16-9.5-16-21.2h4.7c0 9.1 5.1 16.5 11.3 16.5 6.2 0 11.3-7.4 11.3-16.5h4.7c.1 11.7-7.1 21.2-16 21.2zm192 19.8c-8.8 0-16-9.5-16-21.2h4.7c0 9.1 5.1 16.5 11.3 16.5 6.2 0 11.3-7.4 11.3-16.5h4.7c0 11.7-7.2 21.2-16 21.2z"/><path d="M2894.3 144.9c-8.8 0-16-9.5-16-21.2h4.7c0 9.1 5.1 16.5 11.3 16.5 6.2 0 11.3-7.4 11.3-16.5h4.7c0 11.7-7.2 21.2-16 21.2z"/><path d="M2864.6 144.9c-8.8 0-16-9.5-16-21.2h4.7c0 9.1 5.1 16.5 11.3 16.5 6.2 0 11.3-7.4 11.3-16.5h4.7c0 11.7-7.2 21.2-16 21.2z"/><path d="M2834.8 144.9c-8.8 0-16-9.5-16-21.2h4.7c0 9.1 5.1 16.5 11.3 16.5 6.2 0 11.3-7.4 11.3-16.5h4.7c0 11.7-7.1 21.2-16 21.2z"/><path d="M2805.1 144.9c-8.8 0-16-9.5-16-21.2h4.7c0 9.1 5.1 16.5 11.3 16.5 6.2 0 11.3-7.4 11.3-16.5h4.7c0 11.7-7.2 21.2-16 21.2z"/><path d="M2775.4 144.9c-8.8 0-16-9.5-16-21.2h4.7c0 9.1 5.1 16.5 11.3 16.5 6.2 0 11.3-7.4 11.3-16.5h4.7c0 11.7-7.2 21.2-16 21.2z"/><path d="M2745.6 144.9c-8.8 0-16-9.5-16-21.2h4.7c0 9.1 5.1 16.5 11.3 16.5 6.2 0 11.3-7.4 11.3-16.5h4.7c.1 11.7-7.1 21.2-16 21.2z"/></g><g><path d="M3122.7 162.9c-8.8 0-16-9.5-16-21.2h4.7c0 9.1 5.1 16.5 11.3 16.5 6.2 0 11.3-7.4 11.3-16.5h4.7c0 11.7-7.2 21.2-16 21.2z"/><path d="M3093 162.9c-8.8 0-16-9.5-16-21.2h4.7c0 9.1 5.1 16.5 11.3 16.5 6.2 0 11.3-7.4 11.3-16.5h4.7c0 11.7-7.2 21.2-16 21.2z"/><path d="M3063.2 162.9c-8.8 0-16-9.5-16-21.2h4.7c0 9.1 5.1 16.5 11.3 16.5s11.3-7.4 11.3-16.5h4.7c0 11.7-7.1 21.2-16 21.2z"/><path d="M3033.5 162.9c-8.8 0-16-9.5-16-21.2h4.7c0 9.1 5.1 16.5 11.3 16.5 6.2 0 11.3-7.4 11.3-16.5h4.7c0 11.7-7.2 21.2-16 21.2z"/><path d="M3003.8 162.9c-8.8 0-16-9.5-16-21.2h4.7c0 9.1 5.1 16.5 11.3 16.5 6.2 0 11.3-7.4 11.3-16.5h4.7c0 11.7-7.2 21.2-16 21.2z"/><path d="M2974.1 162.9c-8.8 0-16-9.5-16-21.2h4.7c0 9.1 5.1 16.5 11.3 16.5 6.2 0 11.3-7.4 11.3-16.5h4.7c0 11.7-7.2 21.2-16 21.2z"/><path d="M2944.3 162.9c-8.8 0-16-9.5-16-21.2h4.7c0 9.1 5.1 16.5 11.3 16.5 6.2 0 11.3-7.4 11.3-16.5h4.7c0 11.7-7.1 21.2-16 21.2zm192 19.4c-8.8 0-16-9.5-16-21.2h4.7c0 9.1 5.1 16.5 11.3 16.5 6.2 0 11.3-7.4 11.3-16.5h4.7c0 11.7-7.2 21.2-16 21.2z"/><path d="M3106.6 182.3c-8.8 0-16-9.5-16-21.2h4.7c0 9.1 5.1 16.5 11.3 16.5 6.2 0 11.3-7.4 11.3-16.5h4.7c0 11.7-7.2 21.2-16 21.2z"/><path d="M3076.8 182.3c-8.8 0-16-9.5-16-21.2h4.7c0 9.1 5.1 16.5 11.3 16.5 6.2 0 11.3-7.4 11.3-16.5h4.7c.1 11.7-7.1 21.2-16 21.2z"/><path d="M3047.1 182.3c-8.8 0-16-9.5-16-21.2h4.7c0 9.1 5.1 16.5 11.3 16.5 6.2 0 11.3-7.4 11.3-16.5h4.7c0 11.7-7.2 21.2-16 21.2z"/><path d="M3017.4 182.3c-8.8 0-16-9.5-16-21.2h4.7c0 9.1 5.1 16.5 11.3 16.5 6.2 0 11.3-7.4 11.3-16.5h4.7c0 11.7-7.2 21.2-16 21.2z"/><path d="M2987.7 182.3c-8.8 0-16-9.5-16-21.2h4.7c0 9.1 5.1 16.5 11.3 16.5 6.2 0 11.3-7.4 11.3-16.5h4.7c0 11.7-7.2 21.2-16 21.2z"/><path d="M2957.9 182.3c-8.8 0-16-9.5-16-21.2h4.7c0 9.1 5.1 16.5 11.3 16.5 6.2 0 11.3-7.4 11.3-16.5h4.7c0 11.7-7.1 21.2-16 21.2zm164.8 18.3c-8.8 0-16-9.5-16-21.2h4.7c0 9.1 5.1 16.5 11.3 16.5 6.2 0 11.3-7.4 11.3-16.5h4.7c0 11.7-7.2 21.2-16 21.2z"/><path d="M3093 200.6c-8.8 0-16-9.5-16-21.2h4.7c0 9.1 5.1 16.5 11.3 16.5 6.2 0 11.3-7.4 11.3-16.5h4.7c0 11.7-7.2 21.2-16 21.2z"/><path d="M3063.2 200.6c-8.8 0-16-9.5-16-21.2h4.7c0 9.1 5.1 16.5 11.3 16.5s11.3-7.4 11.3-16.5h4.7c0 11.7-7.1 21.2-16 21.2z"/><path d="M3033.5 200.6c-8.8 0-16-9.5-16-21.2h4.7c0 9.1 5.1 16.5 11.3 16.5 6.2 0 11.3-7.4 11.3-16.5h4.7c0 11.7-7.2 21.2-16 21.2z"/><path d="M3003.8 200.6c-8.8 0-16-9.5-16-21.2h4.7c0 9.1 5.1 16.5 11.3 16.5 6.2 0 11.3-7.4 11.3-16.5h4.7c0 11.7-7.2 21.2-16 21.2z"/><path d="M2974.1 200.6c-8.8 0-16-9.5-16-21.2h4.7c0 9.1 5.1 16.5 11.3 16.5 6.2 0 11.3-7.4 11.3-16.5h4.7c0 11.7-7.2 21.2-16 21.2z"/><path d="M2944.3 200.6c-8.8 0-16-9.5-16-21.2h4.7c0 9.1 5.1 16.5 11.3 16.5 6.2 0 11.3-7.4 11.3-16.5h4.7c0 11.7-7.1 21.2-16 21.2zm192 19.8c-8.8 0-16-9.5-16-21.2h4.7c0 9.1 5.1 16.5 11.3 16.5 6.2 0 11.3-7.4 11.3-16.5h4.7c0 11.7-7.2 21.2-16 21.2z"/><path d="M3153 202.5c-8.8 0-16-9.5-16-21.2h4.7c0 9.1 5.1 16.5 11.3 16.5 6.2 0 11.3-7.4 11.3-16.5h4.7c.1 11.7-7.1 21.2-16 21.2zm-.5 36.8c-8.8 0-16-9.5-16-21.2h4.7c0 9.1 5.1 16.5 11.3 16.5 6.2 0 11.3-7.4 11.3-16.5h4.7c0 11.7-7.2 21.2-16 21.2zm-45.9-18.9c-8.8 0-16-9.5-16-21.2h4.7c0 9.1 5.1 16.5 11.3 16.5 6.2 0 11.3-7.4 11.3-16.5h4.7c0 11.7-7.2 21.2-16 21.2z"/><path d="M3076.8 220.4c-8.8 0-16-9.5-16-21.2h4.7c0 9.1 5.1 16.5 11.3 16.5 6.2 0 11.3-7.4 11.3-16.5h4.7c.1 11.7-7.1 21.2-16 21.2z"/><path d="M3047.1 220.4c-8.8 0-16-9.5-16-21.2h4.7c0 9.1 5.1 16.5 11.3 16.5 6.2 0 11.3-7.4 11.3-16.5h4.7c0 11.7-7.2 21.2-16 21.2z"/><path d="M3017.4 220.4c-8.8 0-16-9.5-16-21.2h4.7c0 9.1 5.1 16.5 11.3 16.5 6.2 0 11.3-7.4 11.3-16.5h4.7c0 11.7-7.2 21.2-16 21.2z"/><path d="M2987.7 220.4c-8.8 0-16-9.5-16-21.2h4.7c0 9.1 5.1 16.5 11.3 16.5 6.2 0 11.3-7.4 11.3-16.5h4.7c0 11.7-7.2 21.2-16 21.2z"/><path d="M2957.9 220.4c-8.8 0-16-9.5-16-21.2h4.7c0 9.1 5.1 16.5 11.3 16.5 6.2 0 11.3-7.4 11.3-16.5h4.7c0 11.7-7.1 21.2-16 21.2zm164.8 17.8c-8.8 0-16-9.5-16-21.2h4.7c0 9.1 5.1 16.5 11.3 16.5 6.2 0 11.3-7.4 11.3-16.5h4.7c0 11.7-7.2 21.2-16 21.2z"/><path d="M3093 238.2c-8.8 0-16-9.5-16-21.2h4.7c0 9.1 5.1 16.5 11.3 16.5 6.2 0 11.3-7.4 11.3-16.5h4.7c0 11.7-7.2 21.2-16 21.2z"/><path d="M3063.2 238.2c-8.8 0-16-9.5-16-21.2h4.7c0 9.1 5.1 16.5 11.3 16.5s11.3-7.4 11.3-16.5h4.7c0 11.7-7.1 21.2-16 21.2z"/><path d="M3033.5 238.2c-8.8 0-16-9.5-16-21.2h4.7c0 9.1 5.1 16.5 11.3 16.5 6.2 0 11.3-7.4 11.3-16.5h4.7c0 11.7-7.2 21.2-16 21.2z"/><path d="M3003.8 238.2c-8.8 0-16-9.5-16-21.2h4.7c0 9.1 5.1 16.5 11.3 16.5 6.2 0 11.3-7.4 11.3-16.5h4.7c0 11.7-7.2 21.2-16 21.2z"/><path d="M2974.1 238.2c-8.8 0-16-9.5-16-21.2h4.7c0 9.1 5.1 16.5 11.3 16.5 6.2 0 11.3-7.4 11.3-16.5h4.7c0 11.7-7.2 21.2-16 21.2z"/><path d="M2944.3 238.2c-8.8 0-16-9.5-16-21.2h4.7c0 9.1 5.1 16.5 11.3 16.5 6.2 0 11.3-7.4 11.3-16.5h4.7c0 11.7-7.1 21.2-16 21.2zm192 19.8c-8.8 0-16-9.5-16-21.2h4.7c0 9.1 5.1 16.5 11.3 16.5 6.2 0 11.3-7.4 11.3-16.5h4.7c0 11.7-7.2 21.2-16 21.2z"/><path d="M3106.6 258c-8.8 0-16-9.5-16-21.2h4.7c0 9.1 5.1 16.5 11.3 16.5 6.2 0 11.3-7.4 11.3-16.5h4.7c0 11.7-7.2 21.2-16 21.2z"/><path d="M3076.8 258c-8.8 0-16-9.5-16-21.2h4.7c0 9.1 5.1 16.5 11.3 16.5 6.2 0 11.3-7.4 11.3-16.5h4.7c.1 11.7-7.1 21.2-16 21.2z"/><path d="M3047.1 258c-8.8 0-16-9.5-16-21.2h4.7c0 9.1 5.1 16.5 11.3 16.5 6.2 0 11.3-7.4 11.3-16.5h4.7c0 11.7-7.2 21.2-16 21.2z"/><path d="M3017.4 258c-8.8 0-16-9.5-16-21.2h4.7c0 9.1 5.1 16.5 11.3 16.5 6.2 0 11.3-7.4 11.3-16.5h4.7c0 11.7-7.2 21.2-16 21.2z"/><path d="M2987.7 258c-8.8 0-16-9.5-16-21.2h4.7c0 9.1 5.1 16.5 11.3 16.5 6.2 0 11.3-7.4 11.3-16.5h4.7c0 11.7-7.2 21.2-16 21.2z"/><path d="M2957.9 258c-8.8 0-16-9.5-16-21.2h4.7c0 9.1 5.1 16.5 11.3 16.5 6.2 0 11.3-7.4 11.3-16.5h4.7c0 11.7-7.1 21.2-16 21.2zM3136.3 107.2c-8.8 0-16-9.5-16-21.2h4.7c0 9.1 5.1 16.5 11.3 16.5 6.2 0 11.3-7.4 11.3-16.5h4.7c0 11.7-7.2 21.2-16 21.2z"/><path d="M3106.6 107.2c-8.8 0-16-9.5-16-21.2h4.7c0 9.1 5.1 16.5 11.3 16.5 6.2 0 11.3-7.4 11.3-16.5h4.7c0 11.7-7.2 21.2-16 21.2z"/><path d="M3076.8 107.2c-8.8 0-16-9.5-16-21.2h4.7c0 9.1 5.1 16.5 11.3 16.5 6.2 0 11.3-7.4 11.3-16.5h4.7c.1 11.7-7.1 21.2-16 21.2z"/><path d="M3047.1 107.2c-8.8 0-16-9.5-16-21.2h4.7c0 9.1 5.1 16.5 11.3 16.5 6.2 0 11.3-7.4 11.3-16.5h4.7c0 11.7-7.2 21.2-16 21.2z"/><path d="M3017.4 107.2c-8.8 0-16-9.5-16-21.2h4.7c0 9.1 5.1 16.5 11.3 16.5 6.2 0 11.3-7.4 11.3-16.5h4.7c0 11.7-7.2 21.2-16 21.2z"/><path d="M2987.7 107.2c-8.8 0-16-9.5-16-21.2h4.7c0 9.1 5.1 16.5 11.3 16.5 6.2 0 11.3-7.4 11.3-16.5h4.7c0 11.7-7.2 21.2-16 21.2z"/><path d="M2957.9 107.2c-8.8 0-16-9.5-16-21.2h4.7c0 9.1 5.1 16.5 11.3 16.5 6.2 0 11.3-7.4 11.3-16.5h4.7c0 11.7-7.1 21.2-16 21.2zm164.8 17.9c-8.8 0-16-9.5-16-21.2h4.7c0 9.1 5.1 16.5 11.3 16.5 6.2 0 11.3-7.4 11.3-16.5h4.7c0 11.7-7.2 21.2-16 21.2z"/><path d="M3093 125.1c-8.8 0-16-9.5-16-21.2h4.7c0 9.1 5.1 16.5 11.3 16.5 6.2 0 11.3-7.4 11.3-16.5h4.7c0 11.7-7.2 21.2-16 21.2z"/><path d="M3063.2 125.1c-8.8 0-16-9.5-16-21.2h4.7c0 9.1 5.1 16.5 11.3 16.5s11.3-7.4 11.3-16.5h4.7c0 11.7-7.1 21.2-16 21.2z"/><path d="M3033.5 125.1c-8.8 0-16-9.5-16-21.2h4.7c0 9.1 5.1 16.5 11.3 16.5 6.2 0 11.3-7.4 11.3-16.5h4.7c0 11.7-7.2 21.2-16 21.2z"/><path d="M3003.8 125.1c-8.8 0-16-9.5-16-21.2h4.7c0 9.1 5.1 16.5 11.3 16.5 6.2 0 11.3-7.4 11.3-16.5h4.7c0 11.7-7.2 21.2-16 21.2z"/><path d="M2974.1 125.1c-8.8 0-16-9.5-16-21.2h4.7c0 9.1 5.1 16.5 11.3 16.5 6.2 0 11.3-7.4 11.3-16.5h4.7c0 11.7-7.2 21.2-16 21.2z"/><path d="M2944.3 125.1c-8.8 0-16-9.5-16-21.2h4.7c0 9.1 5.1 16.5 11.3 16.5 6.2 0 11.3-7.4 11.3-16.5h4.7c0 11.7-7.1 21.2-16 21.2zm192 19.8c-8.8 0-16-9.5-16-21.2h4.7c0 9.1 5.1 16.5 11.3 16.5 6.2 0 11.3-7.4 11.3-16.5h4.7c0 11.7-7.2 21.2-16 21.2z"/><path d="M3106.6 144.9c-8.8 0-16-9.5-16-21.2h4.7c0 9.1 5.1 16.5 11.3 16.5 6.2 0 11.3-7.4 11.3-16.5h4.7c0 11.7-7.2 21.2-16 21.2z"/><path d="M3076.8 144.9c-8.8 0-16-9.5-16-21.2h4.7c0 9.1 5.1 16.5 11.3 16.5 6.2 0 11.3-7.4 11.3-16.5h4.7c.1 11.7-7.1 21.2-16 21.2z"/><path d="M3047.1 144.9c-8.8 0-16-9.5-16-21.2h4.7c0 9.1 5.1 16.5 11.3 16.5 6.2 0 11.3-7.4 11.3-16.5h4.7c0 11.7-7.2 21.2-16 21.2z"/><path d="M3017.4 144.9c-8.8 0-16-9.5-16-21.2h4.7c0 9.1 5.1 16.5 11.3 16.5 6.2 0 11.3-7.4 11.3-16.5h4.7c0 11.7-7.2 21.2-16 21.2z"/><path d="M2987.7 144.9c-8.8 0-16-9.5-16-21.2h4.7c0 9.1 5.1 16.5 11.3 16.5 6.2 0 11.3-7.4 11.3-16.5h4.7c0 11.7-7.2 21.2-16 21.2z"/><path d="M2957.9 144.9c-8.8 0-16-9.5-16-21.2h4.7c0 9.1 5.1 16.5 11.3 16.5 6.2 0 11.3-7.4 11.3-16.5h4.7c0 11.7-7.1 21.2-16 21.2z"/></g><path d="M2722.9 82.2h436.4v4.7h-436.4z"/></g><path fill="#0BC" d="M2841.4 325c.1-.5.2-1.1.2-1.6 0-8.1-6.6-14.7-14.7-14.7-1.5 0-3 .3-4.4.7-1.2-1.3-3-2.2-4.9-2.2-3 0-5.5 2-6.4 4.7-1.8-.7-3.8-1.1-5.8-1.1-5.8 0-10.8 3.1-13.7 7.7-.8-.2-1.6-.5-2.5-.5-5.9 0-10.8 4.8-10.8 10.8 0 .2.1.4.1.6-2.3.9-4 2.8-4.8 5.2h75.6c-.3-4.7-3.5-8.4-7.9-9.6z"/><path fill="#445D89" d="M2768.4 336.6c0 18.2 14.8 33 33 33h18.5c18.2 0 33-14.8 33-33v-4.4h-84.5v4.4z"/><path fill="#445D89" d="M2773.7 336.3c-.3 0-.5-.1-.8-.2-.9-.4-1.2-1.5-.8-2.4l1.6-3.1c.4-.9 1.5-1.2 2.4-.8.9.4 1.2 1.5.8 2.4l-1.6 3.1c-.3.7-.9 1-1.6 1zm4.7-9.2c-.3 0-.5-.1-.8-.2-.9-.4-1.2-1.5-.8-2.4l3.1-6.1c.4-.9 1.5-1.2 2.4-.8.9.4 1.2 1.5.8 2.4l-3.1 6.1c-.3.7-.9 1-1.6 1zm6.2-12.2c-.3 0-.5-.1-.8-.2-.9-.4-1.2-1.5-.8-2.4l3.1-6.1c.4-.9 1.5-1.2 2.4-.8.9.4 1.2 1.5.8 2.4l-3.1 6.1c-.3.6-.9 1-1.6 1zm6.3-12.2c-.3 0-.5-.1-.8-.2-.9-.4-1.2-1.5-.8-2.4l3.1-6.1c.4-.9 1.5-1.2 2.4-.8.9.4 1.2 1.5.8 2.4l-3.1 6.1c-.4.6-1 1-1.6 1zm6.2-12.3c-.3 0-.5-.1-.8-.2-.9-.4-1.2-1.5-.8-2.4l3.1-6.1c.4-.9 1.5-1.2 2.4-.8.9.4 1.2 1.5.8 2.4l-3.1 6.1c-.4.7-1 1-1.6 1zm6.2-12.2c-.3 0-.5-.1-.8-.2-.9-.4-1.2-1.5-.8-2.4l3.1-6.1c.4-.9 1.5-1.2 2.4-.8.9.4 1.2 1.5.8 2.4l-3.1 6.1c-.4.7-1 1-1.6 1zm6.2-12.2c-.3 0-.5-.1-.8-.2-.9-.4-1.2-1.5-.8-2.4l1.6-3.1c.3-.6.9-1 1.5-1 .7.1 1.3.4 1.6.9l1.6 3.1c.4.9.1 1.9-.7 2.4-.9.4-1.9.1-2.4-.7v-.1.1c-.3.6-1 1-1.6 1zm35 61.1c-.6 0-1.2-.3-1.6-.9l-3.2-6.1c-.4-.9-.1-1.9.7-2.4.8-.4 1.9-.1 2.4.7l3.2 6.1c.4.9.1 1.9-.7 2.4-.2.2-.5.2-.8.2zm-6.3-12.2c-.6 0-1.2-.3-1.6-.9l-3.2-6.1c-.4-.9-.1-1.9.7-2.4.8-.4 1.9-.1 2.4.7l3.2 6.1c.4.9.1 1.9-.7 2.4-.3.1-.6.2-.8.2zm-6.4-12.2c-.6 0-1.2-.3-1.6-.9l-3.2-6.1c-.4-.9-.1-1.9.7-2.4.8-.4 1.9-.1 2.4.7l3.2 6.1c.4.9.1 1.9-.7 2.4-.3.1-.5.2-.8.2zm-6.4-12.3c-.6 0-1.2-.3-1.6-.9l-3.2-6.1c-.4-.9-.1-1.9.7-2.4.8-.4 1.9-.1 2.4.7l3.2 6.1c.4.9.1 1.9-.7 2.4-.2.2-.5.2-.8.2zm-6.3-12.2c-.6 0-1.2-.3-1.6-.9l-3.2-6.1c-.4-.9-.1-1.9.7-2.4.8-.4 1.9-.1 2.4.7l3.2 6.1c.4.9.1 1.9-.7 2.4-.3.1-.6.2-.8.2zm30.2 58.1c-.6 0-1.2-.3-1.6-.9l-1.6-3.1c-.4-.9-.1-1.9.7-2.4.9-.4 1.9-.1 2.4.7l1.6 3.1c.4.9.1 1.9-.7 2.4-.2.2-.5.2-.8.2z"/><circle fill="#445D89" cx="2811.3" cy="262.5" r="4.9"/><path fill="#0BC" d="M2972.1 325c.1-.5.2-1.1.2-1.6 0-8.1-6.6-14.7-14.7-14.7-1.5 0-3 .3-4.4.7-1.2-1.3-3-2.2-4.9-2.2-3 0-5.5 2-6.4 4.7-1.8-.7-3.7-1.1-5.8-1.1-5.8 0-10.8 3.1-13.7 7.7-.8-.2-1.6-.5-2.5-.5-5.9 0-10.8 4.8-10.8 10.8 0 .2.1.4.1.6-2.3.9-4 2.8-4.8 5.2h75.6c-.3-4.7-3.6-8.4-7.9-9.6z"/><path fill="#445D89" d="M2899.1 336.6c0 18.2 14.8 33 33 33h18.5c18.2 0 33-14.8 33-33v-4.4h-84.5v4.4z"/><path fill="#445D89" d="M2904.4 336.3c-.3 0-.5-.1-.8-.2-.9-.4-1.2-1.5-.8-2.4l1.6-3.1c.4-.9 1.5-1.2 2.4-.8.9.4 1.2 1.5.8 2.4l-1.6 3.1c-.3.7-.9 1-1.6 1zm4.7-9.2c-.3 0-.5-.1-.8-.2-.9-.4-1.2-1.5-.8-2.4l3.1-6.1c.4-.9 1.5-1.2 2.4-.8.9.4 1.2 1.5.8 2.4l-3.1 6.1c-.3.7-.9 1-1.6 1zm6.2-12.2c-.3 0-.5-.1-.8-.2-.9-.4-1.2-1.5-.8-2.4l3.1-6.1c.4-.9 1.5-1.2 2.4-.8.9.4 1.2 1.5.8 2.4l-3.1 6.1c-.3.6-.9 1-1.6 1zm6.2-12.2c-.3 0-.5-.1-.8-.2-.9-.4-1.2-1.5-.8-2.4l3.1-6.1c.4-.9 1.5-1.2 2.4-.8.9.4 1.2 1.5.8 2.4l-3.1 6.1c-.3.6-.9 1-1.6 1zm6.3-12.3c-.3 0-.5-.1-.8-.2-.9-.4-1.2-1.5-.8-2.4l3.1-6.1c.4-.9 1.5-1.2 2.4-.8.9.4 1.2 1.5.8 2.4l-3.1 6.1c-.4.7-1 1-1.6 1zm6.2-12.2c-.3 0-.5-.1-.8-.2-.9-.4-1.2-1.5-.8-2.4l3.1-6.1c.4-.9 1.5-1.2 2.4-.8.9.4 1.2 1.5.8 2.4l-3.1 6.1c-.4.7-1 1-1.6 1zm6.2-12.2c-.3 0-.5-.1-.8-.2-.9-.4-1.2-1.5-.8-2.4l1.6-3.1c.3-.6.9-1 1.5-1 .7.1 1.3.4 1.6.9l1.6 3.1c.4.9.1 1.9-.7 2.4-.9.4-1.9.1-2.4-.7v-.1.1c-.4.6-1 1-1.6 1zm35 61.1c-.6 0-1.2-.3-1.6-.9l-3.2-6.1c-.4-.9-.1-1.9.7-2.4.8-.4 1.9-.1 2.4.7l3.2 6.1c.4.9.1 1.9-.7 2.4-.2.2-.5.2-.8.2zm-6.4-12.2c-.6 0-1.2-.3-1.6-.9l-3.2-6.1c-.4-.9-.1-1.9.7-2.4.8-.4 1.9-.1 2.4.7l3.2 6.1c.4.9.1 1.9-.7 2.4-.2.1-.5.2-.8.2zm-6.3-12.2c-.6 0-1.2-.3-1.6-.9l-3.2-6.1c-.4-.9-.1-1.9.7-2.4.8-.4 1.9-.1 2.4.7l3.2 6.1c.4.9.1 1.9-.7 2.4-.3.1-.5.2-.8.2zm-6.4-12.3c-.6 0-1.2-.3-1.6-.9l-3.2-6.1c-.4-.9-.1-1.9.7-2.4.8-.4 1.9-.1 2.4.7l3.2 6.1c.4.9.1 1.9-.7 2.4-.2.2-.5.2-.8.2zm-6.3-12.2c-.6 0-1.2-.3-1.6-.9l-3.2-6.1c-.4-.9-.1-1.9.7-2.4.8-.4 1.9-.1 2.4.7l3.2 6.1c.4.9.1 1.9-.7 2.4-.3.1-.6.2-.8.2zm30.2 58.1c-.6 0-1.2-.3-1.6-.9l-1.6-3.1c-.4-.9-.1-1.9.7-2.4.9-.4 1.9-.1 2.4.7l1.6 3.1c.4.9.1 1.9-.7 2.4-.2.2-.5.2-.8.2z"/><circle fill="#445D89" cx="2942" cy="262.5" r="4.9"/><path fill="#0BC" d="M3099.2 325c.1-.5.2-1.1.2-1.6 0-8.1-6.6-14.7-14.7-14.7-1.5 0-3 .3-4.4.7-1.2-1.3-3-2.2-4.9-2.2-3 0-5.5 2-6.4 4.7-1.8-.7-3.8-1.1-5.8-1.1-5.8 0-10.8 3.1-13.7 7.7-.8-.2-1.6-.5-2.5-.5-5.9 0-10.8 4.8-10.8 10.8 0 .2.1.4.1.6-2.3.9-4 2.8-4.8 5.2h75.6c-.2-4.7-3.5-8.4-7.9-9.6z"/><path fill="#445D89" d="M3026.3 336.6c0 18.2 14.8 33 33 33h18.5c18.2 0 33-14.8 33-33v-4.4h-84.5v4.4z"/><path fill="#445D89" d="M3031.6 336.3c-.3 0-.5-.1-.8-.2-.9-.4-1.2-1.5-.8-2.4l1.6-3.1c.4-.9 1.5-1.2 2.4-.8.9.4 1.2 1.5.8 2.4l-1.6 3.1c-.3.7-1 1-1.6 1zm4.7-9.2c-.3 0-.5-.1-.8-.2-.9-.4-1.2-1.5-.8-2.4l3.1-6.1c.4-.9 1.5-1.2 2.4-.8.9.4 1.2 1.5.8 2.4l-3.1 6.1c-.3.7-1 1-1.6 1zm6.2-12.2c-.3 0-.5-.1-.8-.2-.9-.4-1.2-1.5-.8-2.4l3.1-6.1c.4-.9 1.5-1.2 2.4-.8.9.4 1.2 1.5.8 2.4l-3.1 6.1c-.3.6-.9 1-1.6 1zm6.2-12.2c-.3 0-.5-.1-.8-.2-.9-.4-1.2-1.5-.8-2.4l3.1-6.1c.4-.9 1.5-1.2 2.4-.8.9.4 1.2 1.5.8 2.4l-3.1 6.1c-.3.6-.9 1-1.6 1zm6.2-12.3c-.3 0-.5-.1-.8-.2-.9-.4-1.2-1.5-.8-2.4l3.1-6.1c.4-.9 1.5-1.2 2.4-.8.9.4 1.2 1.5.8 2.4l-3.1 6.1c-.3.7-.9 1-1.6 1zm6.3-12.2c-.3 0-.5-.1-.8-.2-.9-.4-1.2-1.5-.8-2.4l3.1-6.1c.4-.9 1.5-1.2 2.4-.8.9.4 1.2 1.5.8 2.4l-3.1 6.1c-.4.7-1 1-1.6 1zm6.2-12.2c-.3 0-.5-.1-.8-.2-.9-.4-1.2-1.5-.8-2.4l1.6-3.1c.3-.6.9-1 1.5-1 .7 0 1.3.4 1.6.9l1.6 3.1c.4.9.1 1.9-.7 2.4-.9.4-1.9.1-2.4-.7v-.1.1c-.4.6-1 1-1.6 1zm35 61.1c-.6 0-1.2-.3-1.6-.9l-3.2-6.1c-.4-.9-.1-1.9.7-2.4.8-.4 1.9-.1 2.4.7l3.2 6.1c.4.9.1 1.9-.7 2.4-.2.2-.5.2-.8.2zm-6.4-12.2c-.6 0-1.2-.3-1.6-.9l-3.2-6.1c-.4-.9-.1-1.9.7-2.4.8-.4 1.9-.1 2.4.7l3.2 6.1c.4.9.1 1.9-.7 2.4-.2.1-.5.2-.8.2zm-6.3-12.2c-.6 0-1.2-.3-1.6-.9l-3.2-6.1c-.4-.9-.1-1.9.7-2.4.8-.4 1.9-.1 2.4.7l3.2 6.1c.4.9.1 1.9-.7 2.4-.3.1-.6.2-.8.2zm-6.4-12.3c-.6 0-1.2-.3-1.6-.9l-3.2-6.1c-.4-.9-.1-1.9.7-2.4.8-.4 1.9-.1 2.4.7l3.2 6.1c.4.9.1 1.9-.7 2.4-.2.2-.5.2-.8.2zm-6.4-12.2c-.6 0-1.2-.3-1.6-.9l-3.2-6.1c-.4-.9-.1-1.9.7-2.4.8-.4 1.9-.1 2.4.7l3.2 6.1c.4.9.1 1.9-.7 2.4-.2.1-.5.2-.8.2zm30.3 58.1c-.6 0-1.2-.3-1.6-.9l-1.6-3.1c-.4-.9-.1-1.9.7-2.4.9-.4 1.9-.1 2.4.7l1.6 3.1c.4.9.1 1.9-.7 2.4-.3.2-.5.2-.8.2z"/><circle fill="#445D89" cx="3069.2" cy="262.5" r="4.9"/></svg>