<svg xmlns="http://www.w3.org/2000/svg" viewBox="0 0 35.2 103.2"><path fill="#E1B79B" d="M13.1 34.4l2.4 2.2-.3 4.3-5.1-4.5"/><path fill="#E6AB7F" d="M5.8 14.6l3.4 6.3 2.1-.8 3 1.6 3.1-1.7 1.9 2.2 4.6-4.5-4.2-5.1-7.7-7"/><path fill="#4A3C3A" d="M17.6 3.9c-4.2-6-6.8-3.8-12.5-1.8S2.9 11.9 2.5 13c-.4 1.2-2.5.9-2.5.9s.7 2.7 4.2 4C7.7 19 12 8.4 12 8.4c1.1 1.5 2.1 2.5 3 3.2.2-.4.5-.7.9-.8.8-.1 1.5.5 1.7 1.5v.6c1.3.2 2-.3 2-.3 1.4-4.2-2-8.7-2-8.7z"/><path fill="#F0E8D3" d="M23.9 17.7l8.6 7.6s3.9 5.6 2.3 10c-1.5 4.5-2.5 4.6-2.5 4.6l.6 12.5-18.1.3V30.6s-.1-4 4.5-8.5l4.6-4.4z"/><path fill="#D1C9B5" d="M23.6 16.3l-5.2 5.2.5 4.3 6-8.2"/><path fill="#D1C9B5" d="M19.2 22.9l-1.6 2.9.8-4.3"/><path fill="#64B6E6" d="M5.4 38.1l-3.8-2.2.7-1.3c.4-.6 1.2-.9 1.8-.5l2.6 1.5-1.3 2.5z"/><path fill="#0995FF" d="M6.787 35.603l8.456 4.953-1.415 2.417L5.37 38.02z"/><path fill="#E6AB7F" d="M25.9 38.2l-4.6 5.9-5.6-3s-.7-3-2.5-3c-1.8.1-1.2.7-1.2.7l1.2.8-1.3 1.7-2.7-1.6s-.5 2.1 2.3 3.4 3.3.8 3.3.8l6.8 4.6c.8.5 1.8.4 2.4-.4l5.6-7.1-3.7-2.8z"/><path fill="#CC9672" d="M20 79.2h5.1v15.7H20z"/><path fill="#E6AB7F" d="M8.5 31.6c-1.3-.5-1.9 2.1-1.9 2.1 1.1 1 1.8-.8 1.8-.8l1.2.9c-2 2.4 1.5 3.5 2.2 3.1 1.8-1 1.3-2.5 1.3-2.5-.9-.7-3.2-2.3-4.6-2.8z"/><path fill="#221F1F" d="M19 94.1l-.1 1.9-8.6 3.9v3.3h16.3V96h-.9l-.1-1.9"/><path fill="#E6AB7F" d="M24.1 79.2h5.1v15.7h-5.1z"/><path fill="#4A3C3A" d="M23.1 94.1L23 96l-8.6 3.9v3.3h16.3V96h-.9l-.1-1.9"/><path fill="#908976" d="M14.8 52.6l-.5 28h19.2l-.6-28.3"/><path fill="#756F60" d="M20 80.6L17.1 59l1.1 21.6"/></svg>