<svg xmlns="http://www.w3.org/2000/svg" viewBox="0 0 33.6 129.6"><path fill="#D0D2D3" d="M10.6 36.3l-.5 11.1h3.4l1.3-9.9"/><path fill="#2187C5" d="M16.2 44.1l-15-.6 1.1.6 14.5.5"/><path fill="#2187C5" d="M16.8 44.6l-14.5-.5 1.1 17h15.8"/><path fill="#1474A5" d="M.7 60.1h1.2l1.5 1-1.1-17h-.5"/><path fill="#136791" d="M1.2 53.4H0l1.2-9.9 1.1.6h-.5"/><path fill="#4A3C3A" d="M13.6 1.7s2.1-4.1 9.3.5c0 0 4.9 3.1 4 10s-.6 7.8-.6 7.8-12.2.1-15.1-3.1c0 0-2.4-10.1 0-13.7 0 .1.9-1.9 2.4-1.5zm1.3 119.7l1.7 1.9-.8 6.3h-1.5V126l-3.6 3.5h-6v-.5c0-.4.3-.8.7-.9l2.6-.8 4-4.6 2.9-1.3z"/><path fill="#E7AB8D" d="M19.6 77.6l-4.7 43.8-3 1.3 1-45.1"/><path fill="#4A3C3A" d="M27.1 118.5l1.9 1.7-.1 6.3-1.5.2-.4-3.5-3.2 3.9-6 .6-.1-.6c-.1-.4.2-.8.6-1l2.5-1 3.4-4.9 2.9-1.7z"/><path fill="#E7AB8D" d="M16.1 72l2.4 20 5.8 28.1 2.8-1.6-2.8-25.9.5-14"/><path fill="#0995FF" d="M29.4 54.9l-.6 24.8s-13.5 2.2-20.7-2.4l2.4-22.4h18.9z"/><path fill="#F1F1F2" d="M16.5 57.2l-1.6 2.5c-2.2-.4-4.4-1.2-6.7-2.5l6.4-13.1-5-5.9s-1.1-1.3-.1-3.3c.2-.4.5-1 .8-1.8-2-3.5 1.6-6.2 1.6-6.2l5.3-4.2 5.3-.6 10.2 3.7s1.7 1 .7 4.3-6.9 14.4-6.9 14.4L31.7 57s-6.2 3.5-14 2.9l-1.2-2.7z"/><path fill="#D0D2D3" d="M11.6 29.8l-1.5 3.3c-.3-.6-.5-1.2-.6-1.8l2.1-1.5z"/><path fill="#E7AB8D" d="M15.4 17.3l1.7 5.5v5.7l5.3-6.3-2.4-6.8"/><path fill="#E7AB8D" d="M16.5 4.5s2.7 2.8 5.3 4.3c0 0-.8 3.3 1.2 5.6-3.2 5.7-8.7 4.4-8.7 4.4-5.8-4.5-1.8-11.9-1.1-13 1.2-.1 2.6-.5 3.3-1.3z"/><path fill="#D0D2D3" d="M17.1 23.1L13.5 27h2.3l.8 3.5 2.7-2 2 1.3 1.1-7.6-5.3 6.3m6.7-7.2v-1.5l-3.7.4v1.5"/><path fill="#F1F1F2" d="M24.2 20.8V40h-6.3l1.8-18.6"/><path fill="#69C6FF" d="M17.4 14.7l.4 4.5 8.5-.7-.4-4.5"/><path fill="#0995FF" d="M18.4 14.6l.4 4.5 8.5-.7-.4-4.5"/><path fill="#E7AB8D" d="M23.8 19.8l1.8-2.5v-4.4l-5 .5v3.7l-.5 1.4v1.7"/><path fill="#D0D2D3" d="M27.3 32.2l-3.1 5.3V25.2l.5 10.3m-6.1 9.3s6.1 3 7.7-.2l.6 1.5c.1 0-4.8 2.4-8.3-1.3z"/><ellipse fill="#D0D2D3" cx="16.1" cy="33" rx=".7" ry=".8"/><ellipse fill="#D0D2D3" cx="17.4" cy="46.8" rx=".7" ry=".8"/></svg>