<svg xmlns="http://www.w3.org/2000/svg" viewBox="0 0 43.2 137.2"><path fill="#4A3C3A" d="M20 127.4l-10.4 4.5s-.5 2.1 1.1 2.5c0 0 10.8.1 14.2-1.6v-5.3H20z"/><path fill="#4A3C3A" d="M24.1 129.4v3.2s-.2 4.1 6.2 4.7c0 0 2.6.3 4-1.2l-2.6-6.7h-7.6z"/><path fill="#908976" d="M11.2 58.7v11.1l8.8 57.6h4.1v2h7.6l3.4-56.3v-8.9l-2.5-5.5"/><path fill="#F0E8D3" d="M12.6 41.8l-1.3 17c2.9 1.9 19.6 1.4 19.6 1.4l.3 1.7 3.7 4.4c7.7-6.3 8.4-13.6 8.4-13.6s-3.6-25.3-4.7-27.9-12.1-9-12.1-9l-7.7 5.9s-3.7 2-5.5 3.6c-1.8 1.6-6.6 17-6.6 17L11.2 66"/><path fill="#FCC384" d="M3.4 10.1l3.5 8h2.5l2.2 2.2 4.8-1.2 3.1 3.4 6.9-6.7-6.7-5.7-9.2-7.7"/><path fill="#4A3C3A" d="M11.7.4c-.3-.3-.8-.4-1.3-.4C8.6.2 4.2 1.4.3 6.9 0 7.3-.1 8 .1 8.5l1.1 2.9s1.5.5 3.1-1C6 8.9 9.3 6 9.3 6l4.8 4.2c.3-.5.8-.8 1.4-.8.9 0 1.6.8 1.6 1.7 0 .5-.2.9-.6 1.2 0 0 2.9-.2 3.9-1.7.9-1.1-6.6-8.2-8.7-10.2z"/><path fill="#D1C9B5" d="M17.8 20.6l-.8 4.6 2.5-2.7m7.8-7.4l-7.8 7.4 2.4 3.3 6.9-8.6"/><path fill="#0995FF" d="M20.3 26.7l1.1-1.7c0-.1-1.8-2.5-1.8-2.5L18 24.2l1 2.3-4.1 18.3 3.1 4.6 3.3-3.4-1-19.3z"/><path fill="#D1C9B5" d="M30.8 60.1l4-9-.5-14.7L36 51.5l-4.9 10.3"/><path fill="#FCC384" d="M31.1 61.8l-1.4 1.6 3.4 6.9 1.7-4.1"/><path fill="#7A7565" d="M24.1 127.4l-1.5-46.5v46.5"/><path fill="#D1C9B5" d="M12.1 36v21.5l-.9-17.6"/></svg>
