<svg xmlns="http://www.w3.org/2000/svg" viewBox="0 0 48.4 104.9"><path fill="#FFC64B" d="M35.6 38.4v65.8c0 .4-.3.7-.6.7H12.4c-.4 0-.7-.3-.7-.7V38.4c0-.4.3-.7.7-.7H35c.3.1.6.4.6.7z"/><path fill="#D39E33" d="M24.6 37.8v67.1H35c.4 0 .6-.3.6-.7V38.4c0-.4-.3-.7-.6-.7H24.6v.1z"/><path fill="#F9F9F9" d="M35.4 93.4H35c-.4 0-.7.2-1.1.4l-9.4 5.4-9.9 5.7h12.1l8.9-5.2v-6.3h-.2zm0-16.5c-.4 0-.8.2-1.1.4l-8 4.6-1.8 1.1-12.9 7.4v6.1c.7.2 1.4.1 2-.3l10.9-6.3 11.1-6.4v-6.6h-.2zm-.1-15.7c-.4 0-.8.1-1.1.4l-9.7 5.6-12.9 7.4v6.1c.6.1 1.3 0 1.9-.3l11-6.3 11.1-6.4v-6.5h-.3zm.3-16.2h-.4c-.3 0-.6.1-.9.3 0 0-.1 0-.1.1l-.5.3-9.2 5.3-12.9 7.4v6.2c.6.1 1.3.1 1.9-.3l11-6.3 11.1-6.4V45zM20 37.8l-8.3 4.8v6.2c.6.1 1.3.1 1.9-.3l4.9-2.8 6.1-3.5 7.4-4.3H20z"/><path fill="#F9F9F9" d="M38.5 15.9V43c0 1-.5 1.8-1.2 2.2l-.1.1h-.1s-.1 0-.1.1c0 0-.1 0-.1.1h-.1c-.1 0-.1 0-.2.1H13c-.4 0-.9-.1-1.2-.3-.8-.4-1.3-1.3-1.3-2.3V15.9c0-1.4 1.1-2.6 2.6-2.6h23.8c.1 0 .2.1.3.1.1 0 .1.1.2.1.1.1.2.1.3.2.4.6.8 1.3.8 2.2z"/><path fill="#B2B2B2" d="M24.6 37.8v4.3l7.5-4.3h-7.5zm11 7.2h-.4c-.3 0-.7.1-1 .3l-9.7 5.6v7l11.1-6.4V45zm-.3 16.2c-.4 0-.8.2-1.1.4l-9.7 5.6v6.9l11.1-6.4v-6.5h-.3zm.1 15.8c-.4 0-.8.1-1.1.4L24.5 83v7l11.1-6.4V77s-.1-.1-.2 0zM35 93.4c-.4 0-.7.1-1.1.4l-9.4 5.4v5.7h2.1l8.9-5.2v-6.3H35z"/><path fill="#B2B2B2" d="M24.6 13.3v32.3h11.3c1.4 0 2.6-1.1 2.6-2.5V15.9c0-1.4-1.2-2.6-2.6-2.6H24.6z"/><path fill="#FFC64B" d="M48.4 4.5v12.3H0V4.5L5.1 0h39l2.7 2.8"/><path fill="#D39E33" d="M48.4 4.5v12.3H24.6V0h19.5l3 3.1"/></svg>