<svg xmlns="http://www.w3.org/2000/svg" viewBox="0 0 45.4 150.3"><path fill="#FFF44B" d="M34.8 16v46.6l-.2.2-.1.1-1.6 1.4-2 1.8-8.1.1-11 .1-.7-.8-.2-.3V16"/><path fill="#DDCC2A" d="M22.8 16v50.2l8.1-.1 3.8-3.5V16H22.8"/><path fill="#F9F9F9" d="M34.8 62.5h-.1l-.1.3-2.4 3.9L32 70l-.3 5.1-.4 6.6-.3 5-.4 6.5-.4 5.3-.3 5.9-.3 5.5-.4 6-.4 5.3-.3 6.6-.4 5.3-.4 6.6-.3 4.4-.7.9-4.4 5.3-3.5-3.1v-.2l-.3-5.2-.4-6-.4-5.4-.4-6.1-.3-5.3-.4-5.6-.4-5.3-.3-5.7-.4-5.3-.4-6.2-.3-5.2-.4-5.9-.4-5.3-.3-4.9-2.6-4.1-.2-.3 11.9-1.3 11.9-1.4"/><path fill="#B2B2B2" d="M34.7 62.5l-11.9 1.3v85.9l4.6-5.6 4.8-77.4 2.5-4.2"/><path fill="#FFF44B" d="M29.5 141.6c-.1-.4-.3-.8-.6-1.1-.3-.3-.7-.5-1.1-.7h-.1c-.3-.1-.6-.1-.9-.1-.2 0-.4.1-.5.1l-3.5.9-4.3 1.2-.3.1c-1.4.4-2.2 1.8-1.9 3.2.3.9 1 1.6 1.8 1.8.2.1.5.1.7.1.2 0 .5 0 .7-.1l3.3-.9 3.9-1 1-.3c.1 0 .1 0 .2-.1.6-.2 1-.6 1.3-1.1.4-.6.5-1.3.3-2zm1.1-11.9c-.3-1.1-1.2-1.8-2.2-1.9H28c-.2 0-.4.1-.5.1l-4.6 1.2-5.1 1.4-1.1.3c-1.4.4-2.2 1.8-1.8 3.2.4 1.4 1.8 2.2 3.2 1.8h.1l4.7-1.3 2.7-.7 2.6-.7.6-.2c.4-.1.8-.3 1.1-.6.2-.1.3-.3.4-.5.1-.1.2-.3.2-.5v-.1c0-.1.1-.3.1-.4v-.7c.1-.1.1-.2 0-.4zm.8-11.9c-.2-.6-.6-1.2-1.1-1.5l-.6-.3c-.1 0-.3-.1-.4-.1h-.6c-.2 0-.4 0-.5.1l-5.4 1.5L17 119l-1.7.5c-1.4.4-2.2 1.8-1.9 3.2.4 1.4 1.8 2.2 3.2 1.9l.8-.2 5.5-1.5 2.4-.6 3.6-1 .7-.2c.7-.2 1.3-.7 1.6-1.3.1-.1.1-.3.2-.4 0-.1 0-.1.1-.2 0-.1.1-.3.1-.4-.1-.4-.1-.7-.2-1zm1.3-11.4c-.4-1.2-1.5-2-2.7-1.9h-.1c-.1 0-.3 0-.4.1l-6.6 1.8-6.6 1.8-1.5.4c-1.4.4-2.2 1.8-1.9 3.2.4 1.4 1.8 2.2 3.2 1.9l.6-.2 6.2-1.7 6.7-1.8 1.3-.3c.2 0 .3-.1.4-.1.2-.1.4-.2.5-.3.3-.2.5-.5.7-.8.1-.1.1-.3.2-.4 0-.1.1-.2.1-.4 0-.6 0-1-.1-1.3zm.2-11.3c-.2-.9-.9-1.5-1.7-1.8-.2-.1-.4-.1-.7-.1h-.3c-.2 0-.4.1-.5.1l-6.9 1.9-7.3 2-1.2.3c-1.4.4-2.2 1.8-1.9 3.2.4 1.4 1.8 2.2 3.2 1.8h.2l7-1.9 7.4-2 .8-.2c.1 0 .2-.1.4-.1.2-.1.4-.2.6-.4.1 0 .1-.1.2-.1.2-.1.3-.3.4-.5.4-.7.5-1.5.3-2.2zm0-11.6c-.2-.9-.9-1.5-1.6-1.8-.3-.1-.6-.2-.9-.2h-.1c-.2 0-.4 0-.5.1l-6.9 1.9-8.1 2.2-.4.1c-1.4.4-2.2 1.8-1.9 3.2.3 1.2 1.4 2 2.6 2 .2 0 .4 0 .6-.1l7.1-1.9 8.2-2.2h.1c.1 0 .2-.1.4-.1.2-.1.4-.2.6-.4.1 0 .1-.1.2-.1l.3-.3c.1-.1.2-.2.2-.4 0-.1.1-.1.1-.2s.1-.1.1-.2c0-.6 0-1.1-.1-1.6zm1-11.7c-.2-.6-.5-1-.9-1.4-.3-.2-.6-.4-1-.5-.2-.1-.5-.1-.8-.1-.2 0-.4 0-.5.1L22.8 72 14 74.5l-1 .3c-1.4.4-2.2 1.8-1.8 3.2.4 1.4 1.8 2.2 3.2 1.9l8.4-2.3 8.9-2.4.3-.2c.7-.2 1.3-.7 1.6-1.3.1-.1.1-.2.2-.4.2-.4.2-1 .1-1.5z"/><path fill="#F9F9F9" d="M45.4 17.8H0C1.6 9.2 8.3 2.2 17 .1c.1-.1.2-.1.3-.1v4c0 1.4 1.2 2.6 2.6 2.6h5.6c.3 0 .6-.1.8-.1.4-.1.7-.3 1-.6l.1-.1c.1-.1.2-.3.3-.5.2-.4.3-.8.3-1.2V0c3.2.7 6.1 2.1 8.6 4 1.8 1.3 3.3 2.9 4.6 4.6 2.1 2.7 3.5 5.8 4.2 9.2z"/><path fill="#DDCC2A" d="M31.2 69.9c-.2 0-.4 0-.5.1l-7.9 2.1v5.4L32 75c1.4-.4 2.2-1.8 1.9-3.2-.3-1.2-1.5-2-2.7-1.9zm-1 11.6c-.2 0-.4 0-.5.1l-6.9 1.8v5.4l8.3-2.2c1.4-.4 2.2-1.8 1.9-3.2-.4-1.1-1.5-1.9-2.8-1.9zm0 11.7c-.2 0-.4.1-.5.1l-6.9 1.9v5.4l8.3-2.2c1.4-.4 2.2-1.8 1.9-3.2-.4-1.3-1.5-2.1-2.8-2zm-.2 11.2c-.1 0-.4.1-.5.1l-6.7 1.8v5.4l8-2.2c1.4-.4 2.2-1.8 1.9-3.2-.4-1.2-1.5-2-2.7-1.9zm-1.2 11.5c-.2 0-.4 0-.5.1l-5.4 1.4v5.4l6.8-1.8c1.4-.4 2.2-1.8 1.8-3.2-.4-1.2-1.5-2-2.7-1.9zm-.8 11.8c-.2 0-.4 0-.5.1l-4.6 1.3v5.4l6-1.6c1.4-.4 2.2-1.8 1.8-3.2-.4-1.2-1.5-2-2.7-2zm-1.2 11.9c-.2 0-.4 0-.5.1l-3.5.9v5.4l4.8-1.3c1.4-.4 2.2-1.8 1.9-3.2-.3-1.2-1.5-1.9-2.7-1.9z"/><path fill="#B2B2B2" d="M45.4 17.8H22.8V6.6h2.7c.7 0 1.4-.3 1.8-.8.2-.2.3-.4.4-.6.2-.4.3-.8.3-1.2V0c3.2.7 6.1 2.1 8.6 4 1.8 1.3 3.3 2.9 4.6 4.6 2.1 2.7 3.5 5.8 4.2 9.2z"/></svg>