<svg xmlns="http://www.w3.org/2000/svg" viewBox="0 0 45.6 219.8"><path fill="#2187C5" d="M30.7 197.3V17.5l15-11.9C45.6 2.5 43.1 0 40 0H5.6C2.5 0 0 2.5 0 5.6l15 11.9v179.8l6.2 22.6c1.1 0 2.2-.1 3.2 0l6.3-22.6z"/><path fill="#E6E7E8" d="M32.2 28.7c1-.4 1.4-1.6 1-2.5-.4-1-1.6-1.4-2.5-1l-17.2 7.4c-1 .4-1.4 1.6-1 2.5.3.7 1 1.2 1.8 1.2.3 0 .5-.1.8-.2l17.1-7.4zm0 14.9c1-.4 1.4-1.6 1-2.5-.4-1-1.6-1.4-2.5-1l-17.2 7.4c-1 .4-1.4 1.6-1 2.5.3.7 1 1.2 1.8 1.2.3 0 .5 0 .8-.2l17.1-7.4zm0 14.9c1-.4 1.4-1.6 1-2.5-.4-1-1.6-1.4-2.5-1l-17.2 7.4c-1 .4-1.4 1.6-1 2.5.3.7 1 1.2 1.8 1.2.3 0 .5-.1.8-.2l17.1-7.4zm0 14.9c1-.4 1.4-1.6 1-2.5-.4-1-1.6-1.4-2.5-1l-17.2 7.4c-1 .4-1.4 1.6-1 2.5.3.7 1 1.2 1.8 1.2.3 0 .5 0 .8-.2l17.1-7.4zm0 14.9c1-.4 1.4-1.6 1-2.5-.4-1-1.6-1.4-2.5-1l-17.2 7.4c-1 .4-1.4 1.6-1 2.5.3.7 1 1.2 1.8 1.2.3 0 .5-.1.8-.2l17.1-7.4zm0 15c1-.4 1.4-1.6 1-2.5-.4-1-1.6-1.4-2.5-1l-17.2 7.4c-1 .4-1.4 1.6-1 2.5.3.7 1 1.2 1.8 1.2.3 0 .5 0 .8-.2l17.1-7.4zm0 14.9c1-.4 1.4-1.6 1-2.5-.4-1-1.6-1.4-2.5-1l-17.2 7.4c-1 .4-1.4 1.6-1 2.5.3.7 1 1.2 1.8 1.2.3 0 .5 0 .8-.2l17.1-7.4zm0 15.5c1-.4 1.4-1.6 1-2.5-.4-1-1.6-1.4-2.5-1l-17.2 7.4c-1 .4-1.4 1.6-1 2.5.3.7 1 1.2 1.8 1.2.3 0 .5-.1.8-.2l17.1-7.4zm0 14.9c1-.4 1.4-1.6 1-2.5-.4-1-1.6-1.4-2.5-1l-17.2 7.4c-1 .4-1.4 1.6-1 2.5.3.7 1 1.2 1.8 1.2.3 0 .5-.1.8-.2l17.1-7.4zm0 14.9c1-.4 1.4-1.6 1-2.5-.4-1-1.6-1.4-2.5-1l-17.2 7.4c-1 .4-1.4 1.6-1 2.5.3.7 1 1.2 1.8 1.2.3 0 .5 0 .8-.2l17.1-7.4zm0 14.9c1-.4 1.4-1.6 1-2.5-.4-1-1.6-1.4-2.5-1l-17.2 7.4c-1 .4-1.4 1.6-1 2.5.3.7 1 1.2 1.8 1.2.3 0 .5-.1.8-.2l17.1-7.4zm0 15c1-.4 1.4-1.6 1-2.5-.4-1-1.6-1.4-2.5-1l-17.2 7.4c-1 .4-1.4 1.6-1 2.5.3.7 1 1.2 1.8 1.2.3 0 .5 0 .8-.2l17.1-7.4z"/><path fill="#48B9FF" d="M32.2 28.7c1-.4 1.4-1.6 1-2.5-.4-1-1.6-1.4-2.5-1l-17.2 7.4c-1 .4-1.4 1.6-1 2.5.3.7 1 1.2 1.8 1.2.3 0 .5-.1.8-.2l17.1-7.4zm0 14.9c1-.4 1.4-1.6 1-2.5-.4-1-1.6-1.4-2.5-1l-17.2 7.4c-1 .4-1.4 1.6-1 2.5.3.7 1 1.2 1.8 1.2.3 0 .5 0 .8-.2l17.1-7.4zm0 14.9c1-.4 1.4-1.6 1-2.5-.4-1-1.6-1.4-2.5-1l-17.2 7.4c-1 .4-1.4 1.6-1 2.5.3.7 1 1.2 1.8 1.2.3 0 .5-.1.8-.2l17.1-7.4zm0 14.9c1-.4 1.4-1.6 1-2.5-.4-1-1.6-1.4-2.5-1l-17.2 7.4c-1 .4-1.4 1.6-1 2.5.3.7 1 1.2 1.8 1.2.3 0 .5 0 .8-.2l17.1-7.4zm0 14.9c1-.4 1.4-1.6 1-2.5-.4-1-1.6-1.4-2.5-1l-17.2 7.4c-1 .4-1.4 1.6-1 2.5.3.7 1 1.2 1.8 1.2.3 0 .5-.1.8-.2l17.1-7.4zm0 15c1-.4 1.4-1.6 1-2.5-.4-1-1.6-1.4-2.5-1l-17.2 7.4c-1 .4-1.4 1.6-1 2.5.3.7 1 1.2 1.8 1.2.3 0 .5 0 .8-.2l17.1-7.4zm0 14.9c1-.4 1.4-1.6 1-2.5-.4-1-1.6-1.4-2.5-1l-17.2 7.4c-1 .4-1.4 1.6-1 2.5.3.7 1 1.2 1.8 1.2.3 0 .5 0 .8-.2l17.1-7.4zm0 15.5c1-.4 1.4-1.6 1-2.5-.4-1-1.6-1.4-2.5-1l-17.2 7.4c-1 .4-1.4 1.6-1 2.5.3.7 1 1.2 1.8 1.2.3 0 .5-.1.8-.2l17.1-7.4zm0 14.9c1-.4 1.4-1.6 1-2.5-.4-1-1.6-1.4-2.5-1l-17.2 7.4c-1 .4-1.4 1.6-1 2.5.3.7 1 1.2 1.8 1.2.3 0 .5-.1.8-.2l17.1-7.4zm0 14.9c1-.4 1.4-1.6 1-2.5-.4-1-1.6-1.4-2.5-1l-17.2 7.4c-1 .4-1.4 1.6-1 2.5.3.7 1 1.2 1.8 1.2.3 0 .5 0 .8-.2l17.1-7.4zm0 14.9c1-.4 1.4-1.6 1-2.5-.4-1-1.6-1.4-2.5-1l-17.2 7.4c-1 .4-1.4 1.6-1 2.5.3.7 1 1.2 1.8 1.2.3 0 .5-.1.8-.2l17.1-7.4zm0 15c1-.4 1.4-1.6 1-2.5-.4-1-1.6-1.4-2.5-1l-17.2 7.4c-1 .4-1.4 1.6-1 2.5.3.7 1 1.2 1.8 1.2.3 0 .5 0 .8-.2l17.1-7.4z"/></svg>