<svg xmlns="http://www.w3.org/2000/svg" xmlns:xlink="http://www.w3.org/1999/xlink" viewBox="0 0 257.2 405.4"><defs><path id="a" d="M0 0h257.2v405.4H0z"/></defs><clipPath id="b"><use xlink:href="#a" overflow="visible"/></clipPath><path clip-path="url(#b)" fill="#8CD9EA" d="M76.5 38.5h84.9v46.2H76.5z"/><g clip-path="url(#b)"><g fill="none" stroke="#FFF" stroke-width=".094" stroke-miterlimit="10"><path d="M215.5 63.7v.3"/><path stroke-dasharray="0.1899,0.1899" d="M215.5 64.5v9.1"/><path d="M215.5 73.9v.2"/></g><circle fill="#FFF" cx="215.5" cy="75.5" r=".7"/><path fill="#FFF" d="M208.7 64.3H205s-3.9 1.6 1.4 11.8h.9c5.2-10.1 1.4-11.8 1.4-11.8z"/><path fill="#FFF" d="M206.2 72.6h1.3v12.5h-1.3zM200.3 85.1h13v1.2h-13z"/><path fill="#0A96FF" d="M212.3 55.3h-11l-5.9 10.4h22.9"/><g><path fill="#0A96FF" d="M178.3 86v61.1h39.5V86"/><path fill="#FFF" d="M181.2 104.6h33.6l-33.6-14.9"/><path fill="#F5F1E6" d="M181.2 89.7l33.6 14.9V89.7"/><path fill="#0A96FF" d="M195.1 92.7h5.9v.9h-5.9z"/><g><path fill="#FFF" d="M181.2 123.9h33.6l-33.6-14.7"/><path fill="#F5F1E6" d="M181.2 109.2l33.6 14.7v-14.7"/><path fill="#0A96FF" d="M195.1 112.2h5.9v1h-5.9z"/></g><g><path fill="#FFF" d="M181.2 143.4h33.6l-33.6-14.8"/><path fill="#F5F1E6" d="M181.2 128.6l33.6 14.8v-14.8"/><path fill="#0A96FF" d="M195.1 131.6h5.9v1h-5.9z"/></g></g><g><path fill="#0A96FF" d="M92.2 108.6v23.9h74.7v-23.9H92.2zm11.2 22.9h-5.1v-16.9h5.1v16.9zm8.3 0h-5.1v-16.9h5.1v16.9zm8.3 0h-5v-16.9h5.1v16.9zm8.3 0h-5.1v-16.9h5.1v16.9zm8.3 0h-5.1v-16.9h5.1v16.9zm8.3 0h-5.1v-16.9h5.1v16.9zm8.2 0H148v-16.9h5.1v16.9zm8.4 0h-5.1v-16.9h5.1v16.9z"/><path fill="#FFF9E8" d="M164.3 124.4H94.7l-20.5 22.2h110.7"/><path fill="#B4B4B5" d="M74.2 146.6h110.7v6.4H74.2z"/><path fill="#0995FF" d="M70.3 149.8h118.4v27.1H70.3z"/><path fill="#0F8AD6" d="M91.6 159h75.8v17.8H91.6z"/></g><g><path fill="#56B4D1" d="M184.8 86.4c-.1 0-.2 0-.3-.1-.3-.2-.3-.5-.1-.7l1.8-2.6c.2-.3.5-.3.7-.1.3.2.3.5.1.7l-1.8 2.5c-.2.2-.3.3-.4.3zM192.7 86.4c-.2 0-.3-.1-.4-.3l-1.8-2.5c-.2-.3-.1-.6.1-.7.3-.2.6-.1.7.1l1.8 2.6c.2.3.1.6-.1.7-.2 0-.3.1-.3.1z"/><path fill="#56B4D1" d="M195.4 79.2c0 3.7-3 6.7-6.7 6.7s-6.7-3-6.7-6.7 3-6.7 6.7-6.7c3.7-.1 6.7 2.9 6.7 6.7z"/><path fill="#FFF" d="M193.9 79.2c0 2.8-2.3 5.1-5.1 5.1s-5.1-2.3-5.1-5.1 2.3-5.1 5.1-5.1 5.1 2.2 5.1 5.1z"/><g fill="#56B4D1"><path d="M182.2 74.1c-.7-1.3 0-3 1.5-3.8s3.3-.3 3.9 1l-5.4 2.8z"/><path d="M184.446 72.262l.445-.228 1.322 2.582-.446.228z"/></g><g fill="#56B4D1"><path d="M195.1 74.1c.7-1.3 0-3-1.5-3.8-1.5-.8-3.3-.3-3.9 1l5.4 2.8z"/><path d="M191.74 74.83l-.444-.226 1.32-2.583.445.23z"/></g><g fill="#283950"><path d="M189.1 74.8c0 .3-.2.4-.4.4-.3 0-.4-.2-.4-.4s.2-.4.4-.4c.3 0 .4.2.4.4zM189.1 83.5c0 .3-.2.4-.4.4-.3 0-.4-.2-.4-.4 0-.3.2-.4.4-.4.3-.1.4.1.4.4zM193 79.6c-.3 0-.4-.2-.4-.4 0-.3.2-.4.4-.4.3 0 .4.2.4.4s-.2.4-.4.4z"/><circle cx="184.4" cy="79.2" r=".4"/><g><path d="M186.8 75.2c.1.2 0 .3-.1.4-.2.1-.3 0-.4-.1-.1-.2 0-.3.1-.4.2 0 .3.1.4.1zM191.1 82.7c.1.2 0 .3-.1.4-.2.1-.3 0-.4-.1-.1-.2 0-.3.1-.4.1-.1.3 0 .4.1zM185.1 76.7c.2.1.2.3.1.4-.1.2-.3.2-.4.1-.2-.1-.2-.3-.1-.4.1-.1.2-.2.4-.1zM192.6 81.1c.2.1.2.3.1.4-.1.2-.3.2-.4.1-.2-.1-.2-.3-.1-.4 0-.2.2-.2.4-.1zM190.5 75.2c-.1.2 0 .3.1.4.2.1.3 0 .4-.1.1-.2 0-.3-.1-.4 0 0-.3.1-.4.1zM186.2 82.7c-.1.2 0 .3.1.4.2.1.3 0 .4-.1.1-.2 0-.3-.1-.4 0-.1-.3 0-.4.1z"/><circle cx="192.4" cy="77" r=".3"/><path d="M184.9 81.1c-.2.1-.2.3-.1.4.1.2.3.2.4.1.2-.1.2-.3.1-.4-.1-.2-.4-.2-.4-.1z"/></g></g><path fill="#002F2F" d="M188.7 79.3l-.1-.2s2.4-1.6 3.1-1.7c.1 0 .1.1.1.2-.4.4-3.1 1.7-3.1 1.7z"/><path fill="#002F2F" d="M189.1 79.2c0 .3-.2.4-.4.4s-.4-.2-.4-.4c0-.3.2-.4.4-.4s.4.1.4.4z"/></g><g><path fill="#FFF" d="M71.4 123.1c-7.3 1.8-6.6 7.1-6.3 8.5l-.8 1.1v-7.8l1.1-1.5c1.4-.2 5.7-1.4 5.1-7.7-6.5 1.6-5.8 6.3-5.6 7.5l-.7.9v-7l.8-1.1c1-.2 4.4-1 3.9-5.9-5 1.2-4.5 4.8-4.3 5.7l-.4.6v-5.1c.7-.6 2.3-2.7-.3-5.7-2.6 2.9-.9 5.1-.3 5.7v7.5l-.4-.6c.2-.9.7-4.5-4.3-5.7-.5 4.9 2.8 5.7 3.9 5.9l.8 1.1v7l-.7-.9c.3-1.2.9-5.9-5.6-7.5-.6 6.4 3.7 7.5 5.1 7.7l1.1 1.5v7.9l-.8-1.1c.3-1.3 1-6.7-6.3-8.5-.7 7.4 4.5 8.6 5.8 8.7l1.2 1.6v4.7h.4v-7.1l1.2-1.6c2-.3 7.1-1.4 6.4-8.8z"/><path fill="#0A96FF" d="M70.9 137.5H57.3v1.2h.3l.5 5.5c0 1.6 1.7 2.9 3.8 2.9h4.4c2.1 0 3.8-1.3 3.8-2.9l.4-5.5h.3l.1-1.2z"/><path fill="#FFF" d="M52.6 123.1c-7.3 1.8-6.6 7.1-6.3 8.5l-.8 1.1v-7.8l1.1-1.5c1.4-.2 5.7-1.4 5.1-7.7-6.5 1.6-5.8 6.3-5.6 7.5l-.7.9v-7l.8-1.1c1-.2 4.4-1 3.9-5.9-5 1.2-4.5 4.8-4.3 5.7l-.4.6v-5.1c.7-.6 2.3-2.7-.3-5.7-2.6 2.9-.9 5.1-.3 5.7v7.5l-.4-.6c.2-.9.7-4.5-4.3-5.7-.5 4.9 2.8 5.7 3.9 5.9l.8 1.1v7l-.7-.9c.3-1.2.9-5.9-5.6-7.5-.6 6.4 3.7 7.5 5.1 7.7l1.1 1.5v7.9l-.8-1.1c.3-1.3 1-6.7-6.3-8.5-.7 7.4 4.5 8.6 5.8 8.7l1.2 1.6v4.7h.4v-7.1l1.2-1.6c2-.3 7.1-1.4 6.4-8.8z"/><path fill="#0A96FF" d="M52.1 137.5H38.5v1.2h.3l.5 5.5c0 1.6 1.7 2.9 3.8 2.9h4.4c2.1 0 3.8-1.3 3.8-2.9l.5-5.5h.2l.1-1.2z"/><path fill="#FFFAE2" d="M129 127.8c10.5 0 19.7-2.3 25.7-5.8-.2-.6-.5-1.2-.9-1.8l-7.6-11c-1.7-2.5-5.7-4.5-8.7-4.5h-17c-3.1 0-6.9 2.1-8.7 4.5l-7.6 11c-.3.5-.7 1.1-.9 1.8 5.9 3.5 15.2 5.8 25.7 5.8z"/><path fill="#CCC" d="M142.5 136.9c-.7 0-.5-5.1-2.7-9.9-2.4-5.1-4-6.6-4-6.6l-13.1 1.8s-3.5 6.2-4.6 11.6"/><path fill="#B3B3B3" d="M137.2 122.7s.9 1.5 1.3 2.4c.4.9-1.7.7-3.3.5-1.5-.3-9.8-1.7-12.6.9-2.8 2.7-3.7 5.1-3.9 6.1-.3.9 0-1.2 1.6-5.1 1.6-3.9 2.1-5.1 2.3-5.3.2-.3 14-.7 14.6.5z"/><g fill="#999"><path d="M136.1 127.6c-.8.3-.6.9 1.5.9 1.3.1 2.1-.2 2.7-.1-.2-.5-.4-1-.7-1.6-.3-.4-.4-.9-.6-1.3.1.1-2.2 1.8-2.9 2.1zM140.2 134.2h1.5c-.1-.7-.3-1.5-.4-2.4-.9.5-3 1.5-3.5 1.7-.5.1-.3.7 2.4.7zM119.9 129.2c1.3.4 3.9.3 4.4 0 .6-.3.3-.6-1.1-1.1-1-.4-2.2-1.4-2.7-1.7-.4.9-.8 1.8-1.2 2.8h.6zM119.4 134.7c1.5-.2 2.9-.6 2.1-.9-.8-.3-1.8-.9-3.2-1.6-.2.5-.3 1-.3 1.5-.1.4-.2.9-.3 1.2.6 0 1.2-.1 1.7-.2z"/></g><path fill="#FFF" d="M148.8 98.6h-.2l-2.4-.7c-.2-.1-.3-.3-.3-.4s.1-.4.3-.5l2.3-1.3-1.3-.4c-.3-.1-.4-.3-.3-.7.1-.3.3-.4.7-.3l2.4.9c.2.1.3.3.3.4 0 .2-.1.4-.3.5l-2.2 1.3 1.3.3c.3.1.4.3.3.6-.1.2-.3.3-.6.3z"/><path fill="#0995FF" d="M129.3 132.1c17.9 0 34.5 1.7 47.9 4.5-.1-.8-.2-1.5-.2-2.3 0-3.9-3.6-5.1-6-5.7-11.3-2.4-25.7-3.9-41.6-3.9h-.5-.1c-15.8 0-30.3 1.5-41.6 3.9-2.3.5-6 1.6-6 5.7 0 .8-.1 1.5-.2 2.3 13.8-2.8 30.5-4.5 48.3-4.5z"/><g><path fill="#0073BA" d="M177.2 135.6v.2c-13.5-2.9-30-4.5-47.9-4.5s-34.5 1.7-47.9 4.5v-.2c-3.7 3.3-6.1 6.4-7.1 10.9h109.9c-1.1-3.2-4.1-7.6-7-10.9z"/><path fill="#D94E41" d="M177.1 136c-.1-.5-.1-1.1-.1-1.6.1.6.1 1.1.1 1.6zM81.4 136c.1-.5.1-1.1.1-1.6.1.6 0 1.1-.1 1.6z"/></g><g><path fill="#B3B3B3" d="M122.7 99.1s-7.3-1-8.5 1.5c-.9 2-1.1 2.6 1.3 3 2.4.4.4 1.8 1.7 2.4 1.3.5 6.1-5 5.5-6.9z"/><path fill="gray" d="M120.1 101.3s-2.9-1-3.8-.5c-.9.5-1 .6-.1 1.6s1.1 1.6 1.4 2c.3.3 2.3-.8 2.5-3.1z"/><path fill="#B3B3B3" d="M137.8 100.9s7.3-1 8.5 1.5c.9 2 1.1 2.6-1.3 3-2.4.4-.4 1.8-1.7 2.4-1.3.5-6.1-5-5.5-6.9z"/><path fill="gray" d="M140.4 102.8s2.9-1 3.8-.5c.9.5 1 .6.1 1.6s-1.1 1.6-1.4 2c-.2.3-2.2-.7-2.5-3.1z"/><path fill="#CCC" d="M137.8 99.2s-3.6-2.2-7.9-2.3c-4.3-.1-9.6 1.6-12.5 6.6-3.4 5.8-.9 12.6.1 14.1 1.5 2.3 3 3.9 5.7 5.2 3.1 1.6 7.4 2.1 11.7.8 1.9-.6 4.9-2.7 5.9-3.9 1.1-1.2 3.4-3.9 3.2-9.2-.3-4.2-2.9-9.4-6.2-11.3z"/><path fill="gray" d="M129.4 113.7s1.3-.9 1.9-.5.7 1.2-.3 1.8c-.9.6-1.6.8-1.6.8s-2.7-.7-2.6-1.6c.3-1 1.6-1.6 2.6-.5z"/><circle fill="#4D4D4D" cx="135.2" cy="114.3" r=".3"/><circle fill="#4D4D4D" cx="135" cy="115.8" r=".3"/><circle fill="#4D4D4D" cx="136.8" cy="115.3" r=".3"/><circle fill="#4D4D4D" cx="123.7" cy="115.5" r=".3"/><circle fill="#4D4D4D" cx="122.7" cy="116.9" r=".3"/><circle fill="#4D4D4D" cx="121.6" cy="115.2" r=".3"/><path fill="#4D4D4D" d="M129.1 116s.3 2.7.1 2.9c-.1.3-1.8.9-2.7.6s-.9-.9-1.2-.8c-.3.1.1.8.5.9.4.2 1.6.3 2.4.2.7-.3 1.1-.7 1.2-.6s1.5.9 2.7.8c1.2-.1 1.7-.9 2-1 .3-.2.3-.3-.1-.5-.3-.2-1.1 1-2 1-.9 0-2.1-.4-2.2-.8-.2-.3-.3-2.4-.3-2.8.2-.4-.4-.4-.4.1z"/><path fill="#999" d="M117.3 109.3c1.5-.3 2.9-.8 2.1-1.1-.8-.3-1.9-.9-3.3-1.5-.1.5-.3 1-.3 1.6-.1.4-.2.9-.2 1.3.5-.2 1.1-.2 1.7-.3zM142.7 112.9c.4.1.8.2 1 .3 0-.5.1-1 .1-1.7-1.1.3-1.8.5-2.7.5-.2 0-.1.4 1.6.9zM141.6 116.4c.5.3.9.5 1.2.7.2-.6.4-1.3.7-2.1-.9 0-2.9-.1-3.4-.2s-.6.4 1.5 1.6zM116.6 114.3c1.4-.3 3.6-1.7 3.9-2.3.3-.6-.1-.6-1.5-.4-1.1.2-2.7-.1-3.3-.2.1.9.3 2.1.4 3.1.2-.1.3-.2.5-.2z"/><g><path fill="#595858" d="M122.1 110.2c-.1 0-.1 0-.2-.1s-.2-.3-.1-.3c0 0 .7-.9 1.7-.9s1.6.9 1.6.9c.1.1.1.3-.1.3-.1.1-.3.1-.3-.1 0 0-.5-.8-1.3-.8-.7 0-1.3.8-1.3.8.2.1.1.2 0 .2z"/></g><g><path fill="#595858" d="M136.6 110.2c-.1 0-.2-.1-.3-.2 0 0-.4-.7-1.2-.7-.9 0-1.2.7-1.2.7-.1.1-.3.2-.3.1s-.2-.3-.1-.3c0 0 .5-1 1.7-1s1.6.9 1.7 1c.1.1 0 .3-.1.3-.1.1-.2.1-.2.1z"/></g></g></g></g><circle clip-path="url(#b)" fill="#FFF" cx="108.8" cy="70.4" r="15.3"/><path clip-path="url(#b)" fill="#56B4D1" d="M82.9 83.3s12.9-30 47.3-11.2c31.6 17.1 3.5 11.7 3.5 11.7l-50.8-.5z"/><path clip-path="url(#b)" fill="#56B4D1" d="M105.6 74.8s28.4-24.2 54.9-14.1l1 16.1-.5 7s-28.4 1.3-29.9 1c-1.5-.1-25.5-10-25.5-10zM103.5 69.3s-10.8-11.6-26.3-7.2l-1.5 21.5 11.8 2 16-16.3z"/><path clip-path="url(#b)" fill="#0995FF" d="M163.5 86.6H73.9V37.1h89.6v49.5zm-85.3-4.3h81V41.4h-81v40.9z"/><path clip-path="url(#b)" fill="#0F8AD6" d="M163.5 86.6V37.4H73.9l4.3 4.3h81v40.6"/><g clip-path="url(#b)" fill="none" stroke="#FFF" stroke-width=".5" stroke-linecap="round" stroke-miterlimit="10"><path d="M96.7 57.1l-3.8-3.3 3.8 3.3zM102.5 53.1l-2-4.5 2 4.5zM109.3 52.1l.2-4.9-.2 4.9zM115.9 54.1l2.2-4.4-2.2 4.4zM121.1 58.7l3.9-3-3.9 3z"/></g><path clip-path="url(#b)" fill="none" stroke="#FFF" stroke-width=".5" stroke-linecap="round" stroke-miterlimit="10" d="M118.9 55.9l1.5-1.5M112.7 52.2l.8-2.2M105.6 52.2l-.4-2.4M99.3 54.8l-1.5-1.9M123.6 61l1.8-1.2M94.5 60l-2.3-1.4"/><g clip-path="url(#b)"><path fill="#8CD9EA" d="M-51.9 231.8H33V278h-84.9z"/><g fill="none" stroke="#FFF" stroke-width=".094" stroke-miterlimit="10"><path d="M87.1 257.1v.2"/><path stroke-dasharray="0.1899,0.1899" d="M87.1 257.9v9"/><path d="M87.1 267.2v.3"/></g><circle fill="#FFF" cx="87.1" cy="268.8" r=".7"/><path fill="#FFF" d="M80.4 257.7H76.7s-3.9 1.6 1.4 11.8h.9c5.1-10.2 1.4-11.8 1.4-11.8z"/><path fill="#FFF" d="M77.9 265.9h1.3v12.5h-1.3zM72 278.4h13v1.2H72z"/><path fill="#0A96FF" d="M84 248.7H73l-5.9 10.4H90M49.9 279.4v61h39.6v-61"/><path fill="#FFF" d="M52.8 297.9h33.7l-33.7-14.8"/><path fill="#F5F1E6" d="M52.8 283.1l33.7 14.8v-14.8"/><path fill="#0A96FF" d="M66.7 286.1h5.9v.9h-5.9z"/><path fill="#FFF" d="M52.8 317.3h33.7l-33.7-14.8"/><path fill="#F5F1E6" d="M52.8 302.5l33.7 14.8v-14.8"/><path fill="#0A96FF" d="M66.7 305.5h5.9v1h-5.9z"/><path fill="#FFF" d="M52.8 336.7h33.7l-33.7-14.8"/><path fill="#F5F1E6" d="M52.8 321.9l33.7 14.8v-14.8"/><path fill="#0A96FF" d="M66.7 324.9h5.9v1h-5.9z"/><g><path fill="#0A96FF" d="M-36.2 301.9v23.9h74.7v-23.9h-74.7zm11.3 22.9H-30v-16.9h5.1v16.9zm8.3 0h-5.1v-16.9h5.1v16.9zm8.3 0h-5.1v-16.9h5.1v16.9zm8.2 0h-5.1v-16.9h5.1v16.9zm8.4 0H3.2v-16.9h5.1v16.9zm8.3 0h-5.1v-16.9h5.1v16.9zm8.2 0h-5.1v-16.9h5.1v16.9zm8.3 0H28v-16.9h5.1v16.9z"/><path fill="#FFF9E8" d="M35.9 317.7h-69.5l-20.6 22.2H56.5"/><path fill="#B4B4B5" d="M-54.2 339.9H56.5v6.4H-54.2z"/><path fill="#0995FF" d="M-58 343.1H60.4v27.1H-58z"/><path fill="#0F8AD6" d="M-36.8 352.3H39v17.8h-75.8z"/></g><g><path fill="#56B4D1" d="M56.4 279.7c-.1 0-.2 0-.3-.1-.3-.2-.3-.5-.1-.7l1.8-2.6c.2-.3.5-.3.7-.1.3.2.3.5.1.7l-1.8 2.5c-.1.2-.2.3-.4.3zM64.3 279.7c-.2 0-.3-.1-.4-.3l-1.8-2.5c-.2-.3-.1-.6.1-.7.3-.2.6-.1.7.1l1.8 2.6c.2.3.1.6-.1.7-.1 0-.2.1-.3.1z"/><path fill="#56B4D1" d="M67.1 272.5c0 3.7-3 6.7-6.7 6.7s-6.7-3-6.7-6.7 3-6.7 6.7-6.7c3.7-.1 6.7 2.9 6.7 6.7z"/><path fill="#FFF" d="M65.5 272.5c0 2.8-2.3 5.1-5.1 5.1s-5.1-2.3-5.1-5.1 2.3-5.1 5.1-5.1 5.1 2.2 5.1 5.1z"/><g fill="#56B4D1"><path d="M53.9 267.5c-.7-1.3 0-3 1.5-3.8 1.5-.8 3.3-.3 3.9 1l-5.4 2.8z"/><path d="M56.084 265.687l.445-.228 1.32 2.582-.446.227z"/></g><g fill="#56B4D1"><path d="M66.8 267.5c.7-1.3 0-3-1.5-3.8-1.5-.8-3.3-.3-3.9 1l5.4 2.8z"/><path d="M63.365 268.178l-.446-.228 1.32-2.582.445.228z"/></g><g fill="#283950"><path d="M60.8 268.1c0 .3-.2.4-.4.4-.3 0-.4-.2-.4-.4 0-.3.2-.4.4-.4s.4.3.4.4zM60.8 276.8c0 .3-.2.4-.4.4-.3 0-.4-.2-.4-.4s.2-.4.4-.4.4.1.4.4zM64.7 272.9c-.3 0-.4-.2-.4-.4 0-.3.2-.4.4-.4s.4.2.4.4-.3.4-.4.4z"/><circle cx="56.1" cy="272.5" r=".4"/><g><path d="M58.5 268.6c.1.2 0 .3-.1.4-.2.1-.3 0-.4-.1-.1-.2 0-.3.1-.4.1-.1.3 0 .4.1zM62.8 276c.1.2 0 .3-.1.4-.2.1-.3 0-.4-.1-.1-.2 0-.3.1-.4 0 0 .3 0 .4.1zM56.8 270c.2.1.2.3.1.4-.1.2-.3.2-.4.1s-.2-.3-.1-.4c0-.1.2-.2.4-.1zM64.2 274.4c.2.1.2.3.1.4-.1.2-.3.2-.4.1s-.2-.3-.1-.4c.1-.2.3-.2.4-.1zM62.2 268.6c-.1.2 0 .3.1.4.2.1.3 0 .4-.1.1-.2 0-.3-.1-.4-.1-.1-.3 0-.4.1zM57.9 276c-.1.2 0 .3.1.4.2.1.3 0 .4-.1.1-.2 0-.3-.1-.4-.1 0-.3 0-.4.1z"/><circle cx="64.1" cy="270.4" r=".3"/><path d="M56.5 274.4c-.2.1-.2.3-.1.4.1.2.3.2.4.1s.2-.3.1-.4c0-.2-.3-.2-.4-.1z"/></g></g><path fill="#002F2F" d="M60.4 272.6l-.1-.2s2.4-1.6 3.1-1.7c.1 0 .1.1.1.2-.5.4-3.1 1.7-3.1 1.7z"/><path fill="#002F2F" d="M60.7 272.5c0 .3-.2.4-.4.4s-.4-.2-.4-.4c0-.3.2-.4.4-.4s.4.2.4.4z"/></g><g><path fill="#FFF" d="M-56.9 316.4c-7.3 1.8-6.6 7.1-6.3 8.5l-.8 1.1v-7.8l1.1-1.5c1.4-.2 5.7-1.4 5.1-7.7-6.5 1.6-5.8 6.3-5.6 7.5l-.7.9v-7l.8-1.1c1-.2 4.4-1 3.9-5.9-5 1.2-4.5 4.8-4.3 5.7l-.4.6v-5.1c.7-.6 2.3-2.7-.3-5.7-2.6 2.9-.9 5.1-.3 5.7v7.5l-.4-.6c.2-.9.7-4.5-4.3-5.7-.5 4.9 2.8 5.7 3.9 5.9l.8 1.1v7l-.7-.9c.3-1.2.9-5.9-5.6-7.5-.6 6.4 3.7 7.5 5.1 7.7l1.1 1.5v7.9l-.8-1.1c.3-1.3 1-6.7-6.3-8.5-.7 7.4 4.5 8.6 5.8 8.7l1.2 1.6v4.7h.4v-7.1l1.2-1.6c1.9-.3 7.1-1.4 6.4-8.8z"/><path fill="#0A96FF" d="M-57.4 330.8H-71v1.2h.3l.5 5.5c0 1.6 1.7 2.9 3.8 2.9h4.4c2.1 0 3.8-1.3 3.8-2.9l.4-5.5h.3l.1-1.2z"/><path fill="#FFF" d="M-75.7 316.4c-7.3 1.8-6.6 7.1-6.3 8.5l-.8 1.1v-7.8l1.1-1.5c1.4-.2 5.7-1.4 5.1-7.7-6.5 1.6-5.8 6.3-5.6 7.5l-.7.9v-7l.8-1.1c1-.2 4.4-1 3.9-5.9-5 1.2-4.5 4.8-4.3 5.7l-.4.6v-5.1c.7-.6 2.3-2.7-.3-5.7-2.6 2.9-.9 5.1-.3 5.7v7.5l-.4-.6c.2-.9.7-4.5-4.3-5.7-.5 4.9 2.8 5.7 3.9 5.9l.8 1.1v7l-.7-.9c.3-1.2.9-5.9-5.6-7.5-.6 6.4 3.7 7.5 5.1 7.7l1.1 1.5v7.9l-.8-1.1c.3-1.3 1-6.7-6.3-8.5-.7 7.4 4.5 8.6 5.8 8.7l1.2 1.6v4.7h.4v-7.1l1.2-1.6c1.9-.3 7.1-1.4 6.4-8.8z"/><path fill="#0A96FF" d="M-76.2 330.8H-89.8v1.2h.3l.5 5.5c0 1.6 1.7 2.9 3.8 2.9h4.4c2.1 0 3.8-1.3 3.8-2.9l.5-5.5h.3v-1.2z"/><path fill="#FFFAE2" d="M.6 321.1c10.5 0 19.7-2.3 25.7-5.8-.2-.6-.5-1.2-.9-1.8l-7.6-11c-1.7-2.5-5.7-4.5-8.7-4.5h-17c-3.1 0-6.9 2.1-8.7 4.5l-7.6 11c-.3.5-.7 1.1-.9 1.8 6 3.5 15.3 5.8 25.7 5.8z"/><path fill="#CCC" d="M14.2 330.2c-.7 0-.5-5.1-2.7-9.9-2.4-5.1-4-6.6-4-6.6l-13.1 1.8s-3.5 6.2-4.6 11.6"/><path fill="#B3B3B3" d="M8.9 316s.9 1.5 1.3 2.4c.4.9-1.7.7-3.3.5-1.5-.3-9.8-1.7-12.6.9-2.8 2.7-3.7 5.1-3.9 6.1-.3.9 0-1.2 1.6-5.1s2.1-5.1 2.3-5.3c.1-.3 14-.7 14.6.5z"/><g fill="#999"><path d="M7.7 321c-.8.3-.6.9 1.5.9 1.3.1 2.1-.2 2.7-.1-.2-.5-.4-1-.7-1.6-.3-.4-.4-.9-.6-1.3.1 0-2.1 1.7-2.9 2.1zM11.9 327.6h1.5c-.1-.7-.3-1.5-.4-2.4-.9.5-3 1.5-3.5 1.7-.6.1-.3.7 2.4.7zM-8.5 322.5c1.3.4 3.9.3 4.4 0 .6-.3.3-.6-1.1-1.1-1-.4-2.2-1.4-2.7-1.7-.4.9-.8 1.8-1.2 2.8h.6zM-8.9 328.1c1.5-.2 2.9-.6 2.1-.9-.8-.3-1.8-.9-3.2-1.6-.2.5-.3 1-.3 1.5-.1.4-.2.9-.3 1.2.6-.1 1.2-.1 1.7-.2z"/></g><path fill="#FFF" d="M20.5 292h-.2l-2.4-.7c-.2-.1-.3-.3-.3-.4s.1-.4.3-.5l2.3-1.3-1.3-.4c-.3-.1-.4-.3-.3-.7.1-.3.3-.4.7-.3l2.4.9c.2.1.3.3.3.4 0 .2-.1.4-.3.5l-2.2 1.3 1.3.3c.3.1.4.3.3.6-.2.1-.3.3-.6.3z"/><path fill="#0995FF" d="M1 325.4c17.9 0 34.5 1.7 47.9 4.5-.1-.8-.2-1.5-.2-2.3 0-3.9-3.6-5.1-6-5.7C31.4 319.5 17 318 1.1 318H.6.5c-15.8 0-30.3 1.5-41.6 3.9-2.3.5-6 1.6-6 5.7 0 .8-.1 1.5-.2 2.3 13.8-2.8 30.4-4.5 48.3-4.5z"/><g><path fill="#0073BA" d="M48.9 328.9v.2c-13.5-2.9-30-4.5-47.9-4.5s-34.5 1.7-47.9 4.5v-.2c-3.7 3.3-6.1 6.4-7.1 10.9H55.9c-1.2-3.1-4.2-7.6-7-10.9z"/><path fill="#D94E41" d="M48.8 329.4c-.1-.5-.1-1.1-.1-1.6 0 .5 0 1.1.1 1.6zM-46.9 329.4c.1-.5.1-1.1.1-1.6.1.5 0 1.1-.1 1.6z"/></g><g><path fill="#B3B3B3" d="M-5.6 292.4s-7.3-1-8.5 1.5c-.9 2-1.1 2.6 1.3 3 2.4.4.4 1.8 1.7 2.4 1.3.6 6.1-5 5.5-6.9z"/><path fill="gray" d="M-8.2 294.6s-2.9-1-3.8-.5c-.9.5-1 .6-.1 1.6s1.1 1.6 1.4 2c.3.4 2.2-.7 2.5-3.1z"/><path fill="#B3B3B3" d="M9.5 294.2s7.3-1 8.5 1.5c.9 2 1.1 2.6-1.3 3-2.4.4-.4 1.8-1.7 2.4-1.3.6-6.1-5-5.5-6.9z"/><path fill="gray" d="M12.1 296.1s2.9-1 3.8-.5c.9.5 1 .6.1 1.6s-1.1 1.6-1.4 2c-.3.3-2.2-.7-2.5-3.1z"/><path fill="#CCC" d="M9.5 292.5s-3.6-2.2-7.9-2.3-9.6 1.6-12.5 6.6c-3.4 5.8-.9 12.6.1 14.1 1.5 2.3 3 3.9 5.7 5.2 3.1 1.6 7.4 2.1 11.7.8 1.9-.6 4.9-2.7 5.9-3.9 1.1-1.2 3.4-3.9 3.2-9.2-.3-4.2-2.9-9.3-6.2-11.3z"/><path fill="gray" d="M1 307.1s1.3-.9 1.9-.5c.6.4.7 1.2-.3 1.8-.9.6-1.6.7-1.6.7s-2.7-.7-2.6-1.6c.3-.9 1.6-1.5 2.6-.4z"/><circle fill="#4D4D4D" cx="6.9" cy="307.7" r=".3"/><circle fill="#4D4D4D" cx="6.7" cy="309.1" r=".3"/><circle fill="#4D4D4D" cx="8.4" cy="308.6" r=".3"/><circle fill="#4D4D4D" cx="-4.6" cy="308.9" r=".3"/><circle fill="#4D4D4D" cx="-5.6" cy="310.2" r=".3"/><circle fill="#4D4D4D" cx="-6.8" cy="308.5" r=".3"/><path fill="#4D4D4D" d="M.8 309.3s.3 2.7.1 2.9c-.1.3-1.8.9-2.7.6s-.9-.9-1.2-.8c-.3.1.1.8.5.9s1.6.3 2.4.2c.7-.3 1.1-.7 1.2-.6s1.5.9 2.7.8c1.2-.1 1.7-.9 2-1 .3-.2.3-.3-.1-.5s-1.1 1-2 1-2.1-.4-2.2-.8c-.2-.3-.3-2.4-.3-2.8.2-.4-.4-.4-.4.1z"/><path fill="#999" d="M-11 302.6c1.5-.3 2.9-.8 2.1-1.1-.8-.3-1.9-.9-3.3-1.5-.1.5-.3 1-.3 1.6-.1.4-.2.9-.2 1.3.5-.1 1.1-.2 1.7-.3zM14.3 306.2c.4.1.8.2 1 .3 0-.5.1-1 .1-1.7-1.1.3-1.8.5-2.7.5-.2.1-.1.4 1.6.9zM13.2 309.7c.5.3.9.5 1.2.7.2-.6.4-1.3.7-2.1-.9 0-2.9-.1-3.4-.2-.4-.1-.5.4 1.5 1.6zM-11.7 307.7c1.4-.3 3.6-1.7 3.9-2.3.3-.6-.1-.6-1.5-.4-1.1.2-2.7-.1-3.3-.2.1.9.3 2.1.4 3.1.1-.1.3-.2.5-.2z"/><g><path fill="#595858" d="M-6.2 303.6c-.1 0-.1 0-.2-.1s-.2-.3-.1-.3c0 0 .7-.9 1.7-.9s1.6.9 1.6.9c.1.1.1.3-.1.3-.1.1-.3.1-.3-.1 0 0-.5-.8-1.3-.8-.7 0-1.3.8-1.3.8.1.1 0 .2 0 .2z"/></g><g><path fill="#595858" d="M8.3 303.6c-.1 0-.2-.1-.3-.2 0 0-.4-.7-1.2-.7-.9 0-1.2.7-1.2.7-.1.1-.3.2-.3.1s-.2-.3-.1-.3c0 0 .5-1 1.7-1s1.6.9 1.7 1 0 .3-.1.3l-.2.1z"/></g></g></g><circle fill="#FFF" cx="-19.5" cy="263.8" r="15.3"/><path fill="#56B4D1" d="M-45.4 276.6s12.9-30 47.3-11.2c31.6 17.1 3.5 11.7 3.5 11.7l-50.8-.5z"/><path fill="#56B4D1" d="M-22.7 268.1S5.7 243.9 32.2 254l1 16.1-.5 7s-28.4 1.3-29.9 1c-1.6-.1-25.5-10-25.5-10zM-24.8 262.7s-10.8-11.6-26.3-7.2l-1.5 21.5 11.8 2 16-16.3z"/><path fill="#0995FF" d="M35.2 279.9h-89.6v-49.5h89.6v49.5zm-85.3-4.3h81v-40.9h-81v40.9z"/><path fill="#0F8AD6" d="M35.2 279.9v-49.1h-89.6l4.3 4.3h81v40.6"/><g fill="none" stroke="#FFF" stroke-width=".5" stroke-linecap="round" stroke-miterlimit="10"><path d="M-31.6 250.4l-3.8-3.3 3.8 3.3zM-25.9 246.4l-2-4.5 2 4.5zM-19 245.4l.2-4.9-.2 4.9zM-12.4 247.4l2.2-4.4-2.2 4.4zM-7.2 252l3.9-3-3.9 3z"/></g><path fill="none" stroke="#FFF" stroke-width=".5" stroke-linecap="round" stroke-miterlimit="10" d="M-9.4 249.3l1.4-1.6M-15.6 245.5l.8-2.1M-22.7 245.5l-.4-2.4M-29 248.2l-1.5-2M-4.7 254.3l1.8-1.2M-33.9 253.3l-2.3-1.4"/></g><g clip-path="url(#b)"><path fill="#8CD9EA" d="M205.1 231.8H290V278h-84.9z"/><g fill="none" stroke="#FFF" stroke-width=".094" stroke-miterlimit="10"><path d="M344.1 257.1v.2"/><path stroke-dasharray="0.1899,0.1899" d="M344.1 257.9v9"/><path d="M344.1 267.2v.3"/></g><circle fill="#FFF" cx="344.1" cy="268.8" r=".7"/><path fill="#FFF" d="M337.4 257.7H333.7s-3.9 1.6 1.4 11.8h.9c5.1-10.2 1.4-11.8 1.4-11.8z"/><path fill="#FFF" d="M334.9 265.9h1.3v12.5h-1.3zM329 278.4h13v1.2h-13z"/><path fill="#0A96FF" d="M341 248.7h-11l-5.9 10.4H347M306.9 279.4v61h39.6v-61"/><path fill="#FFF" d="M309.8 297.9h33.7l-33.7-14.8"/><path fill="#F5F1E6" d="M309.8 283.1l33.7 14.8v-14.8"/><path fill="#0A96FF" d="M323.7 286.1h5.9v.9h-5.9z"/><path fill="#FFF" d="M309.8 317.3h33.7l-33.7-14.8"/><path fill="#F5F1E6" d="M309.8 302.5l33.7 14.8v-14.8"/><path fill="#0A96FF" d="M323.7 305.5h5.9v1h-5.9z"/><path fill="#FFF" d="M309.8 336.7h33.7l-33.7-14.8"/><path fill="#F5F1E6" d="M309.8 321.9l33.7 14.8v-14.8"/><path fill="#0A96FF" d="M323.7 324.9h5.9v1h-5.9z"/><g><path fill="#0A96FF" d="M220.8 301.9v23.9h74.7v-23.9h-74.7zm11.3 22.9H227v-16.9h5.1v16.9zm8.3 0h-5.1v-16.9h5.1v16.9zm8.3 0h-5.1v-16.9h5.1v16.9zm8.2 0h-5.1v-16.9h5.1v16.9zm8.4 0h-5.1v-16.9h5.1v16.9zm8.3 0h-5.1v-16.9h5.1v16.9zm8.2 0h-5.1v-16.9h5.1v16.9zm8.3 0H285v-16.9h5.1v16.9z"/><path fill="#FFF9E8" d="M292.9 317.7h-69.5l-20.6 22.2h110.7"/><path fill="#B4B4B5" d="M202.8 339.9h110.7v6.4H202.8z"/><path fill="#0995FF" d="M199 343.1h118.4v27.1H199z"/><path fill="#0F8AD6" d="M220.2 352.3H296v17.8h-75.8z"/></g><g><path fill="#56B4D1" d="M313.4 279.7c-.1 0-.2 0-.3-.1-.3-.2-.3-.5-.1-.7l1.8-2.6c.2-.3.5-.3.7-.1.3.2.3.5.1.7l-1.8 2.5c-.1.2-.2.3-.4.3zM321.3 279.7c-.2 0-.3-.1-.4-.3l-1.8-2.5c-.2-.3-.1-.6.1-.7.3-.2.6-.1.7.1l1.8 2.6c.2.3.1.6-.1.7-.1 0-.2.1-.3.1z"/><path fill="#56B4D1" d="M324.1 272.5c0 3.7-3 6.7-6.7 6.7s-6.7-3-6.7-6.7 3-6.7 6.7-6.7c3.7-.1 6.7 2.9 6.7 6.7z"/><path fill="#FFF" d="M322.5 272.5c0 2.8-2.3 5.1-5.1 5.1s-5.1-2.3-5.1-5.1 2.3-5.1 5.1-5.1 5.1 2.2 5.1 5.1z"/><g fill="#56B4D1"><path d="M310.9 267.5c-.7-1.3 0-3 1.5-3.8 1.5-.8 3.3-.3 3.9 1l-5.4 2.8z"/><path d="M313.086 265.686l.445-.228 1.32 2.582-.444.228z"/></g><g fill="#56B4D1"><path d="M323.8 267.5c.7-1.3 0-3-1.5-3.8-1.5-.8-3.3-.3-3.9 1l5.4 2.8z"/><path d="M320.362 268.177l-.445-.228 1.32-2.583.445.228z"/></g><g fill="#283950"><path d="M317.8 268.1c0 .3-.2.4-.4.4-.3 0-.4-.2-.4-.4 0-.3.2-.4.4-.4s.4.3.4.4zM317.8 276.8c0 .3-.2.4-.4.4-.3 0-.4-.2-.4-.4s.2-.4.4-.4.4.1.4.4zM321.7 272.9c-.3 0-.4-.2-.4-.4 0-.3.2-.4.4-.4.3 0 .4.2.4.4s-.3.4-.4.4z"/><circle cx="313.1" cy="272.5" r=".4"/><g><path d="M315.5 268.6c.1.2 0 .3-.1.4-.2.1-.3 0-.4-.1-.1-.2 0-.3.1-.4.1-.1.3 0 .4.1zM319.8 276c.1.2 0 .3-.1.4-.2.1-.3 0-.4-.1-.1-.2 0-.3.1-.4 0 0 .3 0 .4.1zM313.8 270c.2.1.2.3.1.4-.1.2-.3.2-.4.1-.2-.1-.2-.3-.1-.4 0-.1.2-.2.4-.1zM321.2 274.4c.2.1.2.3.1.4-.1.2-.3.2-.4.1-.2-.1-.2-.3-.1-.4.1-.2.3-.2.4-.1zM319.2 268.6c-.1.2 0 .3.1.4.2.1.3 0 .4-.1.1-.2 0-.3-.1-.4-.1-.1-.3 0-.4.1zM314.9 276c-.1.2 0 .3.1.4.2.1.3 0 .4-.1.1-.2 0-.3-.1-.4-.1 0-.3 0-.4.1z"/><circle cx="321.1" cy="270.4" r=".3"/><path d="M313.5 274.4c-.2.1-.2.3-.1.4.1.2.3.2.4.1s.2-.3.1-.4c0-.2-.3-.2-.4-.1z"/></g></g><path fill="#002F2F" d="M317.4 272.6l-.1-.2s2.4-1.6 3.1-1.7c.1 0 .1.1.1.2-.5.4-3.1 1.7-3.1 1.7z"/><path fill="#002F2F" d="M317.7 272.5c0 .3-.2.4-.4.4-.3 0-.4-.2-.4-.4 0-.3.2-.4.4-.4.3 0 .4.2.4.4z"/></g><g><path fill="#FFF" d="M200.1 316.4c-7.3 1.8-6.6 7.1-6.3 8.5l-.8 1.1v-7.8l1.1-1.5c1.4-.2 5.7-1.4 5.1-7.7-6.5 1.6-5.8 6.3-5.6 7.5l-.7.9v-7l.8-1.1c1-.2 4.4-1 3.9-5.9-5 1.2-4.5 4.8-4.3 5.7l-.4.6v-5.1c.7-.6 2.3-2.7-.3-5.7-2.6 2.9-.9 5.1-.3 5.7v7.5l-.4-.6c.2-.9.7-4.5-4.3-5.7-.5 4.9 2.8 5.7 3.9 5.9l.8 1.1v7l-.7-.9c.3-1.2.9-5.9-5.6-7.5-.6 6.4 3.7 7.5 5.1 7.7l1.1 1.5v7.9l-.8-1.1c.3-1.3 1-6.7-6.3-8.5-.7 7.4 4.5 8.6 5.8 8.7l1.2 1.6v4.7h.4v-7.1l1.2-1.6c1.9-.3 7.1-1.4 6.4-8.8z"/><path fill="#0A96FF" d="M199.6 330.8H186v1.2h.3l.5 5.5c0 1.6 1.7 2.9 3.8 2.9h4.4c2.1 0 3.8-1.3 3.8-2.9l.4-5.5h.3l.1-1.2z"/><path fill="#FFF" d="M181.3 316.4c-7.3 1.8-6.6 7.1-6.3 8.5l-.8 1.1v-7.8l1.1-1.5c1.4-.2 5.7-1.4 5.1-7.7-6.5 1.6-5.8 6.3-5.6 7.5l-.7.9v-7l.8-1.1c1-.2 4.4-1 3.9-5.9-5 1.2-4.5 4.8-4.3 5.7l-.4.6v-5.1c.7-.6 2.3-2.7-.3-5.7-2.6 2.9-.9 5.1-.3 5.7v7.5l-.4-.6c.2-.9.7-4.5-4.3-5.7-.5 4.9 2.8 5.7 3.9 5.9l.8 1.1v7l-.7-.9c.3-1.2.9-5.9-5.6-7.5-.6 6.4 3.7 7.5 5.1 7.7l1.1 1.5v7.9l-.8-1.1c.3-1.3 1-6.7-6.3-8.5-.7 7.4 4.5 8.6 5.8 8.7l1.2 1.6v4.7h.4v-7.1l1.2-1.6c1.9-.3 7.1-1.4 6.4-8.8z"/><path fill="#0A96FF" d="M180.8 330.8H167.2v1.2h.3l.5 5.5c0 1.6 1.7 2.9 3.8 2.9h4.4c2.1 0 3.8-1.3 3.8-2.9l.5-5.5h.3v-1.2z"/><path fill="#FFFAE2" d="M257.6 321.1c10.5 0 19.7-2.3 25.7-5.8-.2-.6-.5-1.2-.9-1.8l-7.6-11c-1.7-2.5-5.7-4.5-8.7-4.5h-17c-3.1 0-6.9 2.1-8.7 4.5l-7.6 11c-.3.5-.7 1.1-.9 1.8 6 3.5 15.3 5.8 25.7 5.8z"/><path fill="#CCC" d="M271.2 330.2c-.7 0-.5-5.1-2.7-9.9-2.4-5.1-4-6.6-4-6.6l-13.1 1.8s-3.5 6.2-4.6 11.6"/><path fill="#B3B3B3" d="M265.9 316s.9 1.5 1.3 2.4c.4.9-1.7.7-3.3.5-1.5-.3-9.8-1.7-12.6.9-2.8 2.7-3.7 5.1-3.9 6.1-.3.9 0-1.2 1.6-5.1 1.6-3.9 2.1-5.1 2.3-5.3.1-.3 14-.7 14.6.5z"/><g fill="#999"><path d="M264.7 321c-.8.3-.6.9 1.5.9 1.3.1 2.1-.2 2.7-.1-.2-.5-.4-1-.7-1.6-.3-.4-.4-.9-.6-1.3.1 0-2.1 1.7-2.9 2.1zM268.9 327.6h1.5c-.1-.7-.3-1.5-.4-2.4-.9.5-3 1.5-3.5 1.7-.6.1-.3.7 2.4.7zM248.5 322.5c1.3.4 3.9.3 4.4 0 .6-.3.3-.6-1.1-1.1-1-.4-2.2-1.4-2.7-1.7-.4.9-.8 1.8-1.2 2.8h.6zM248.1 328.1c1.5-.2 2.9-.6 2.1-.9-.8-.3-1.8-.9-3.2-1.6-.2.5-.3 1-.3 1.5-.1.4-.2.9-.3 1.2.6-.1 1.2-.1 1.7-.2z"/></g><path fill="#FFF" d="M277.5 292h-.2l-2.4-.7c-.2-.1-.3-.3-.3-.4s.1-.4.3-.5l2.3-1.3-1.3-.4c-.3-.1-.4-.3-.3-.7.1-.3.3-.4.7-.3l2.4.9c.2.1.3.3.3.4 0 .2-.1.4-.3.5l-2.2 1.3 1.3.3c.3.1.4.3.3.6-.2.1-.3.3-.6.3z"/><path fill="#0995FF" d="M258 325.4c17.9 0 34.5 1.7 47.9 4.5-.1-.8-.2-1.5-.2-2.3 0-3.9-3.6-5.1-6-5.7-11.3-2.4-25.7-3.9-41.6-3.9h-.5-.1c-15.8 0-30.3 1.5-41.6 3.9-2.3.5-6 1.6-6 5.7 0 .8-.1 1.5-.2 2.3 13.8-2.8 30.4-4.5 48.3-4.5z"/><g><path fill="#0073BA" d="M305.9 328.9v.2c-13.5-2.9-30-4.5-47.9-4.5s-34.5 1.7-47.9 4.5v-.2c-3.7 3.3-6.1 6.4-7.1 10.9h110c-1.3-3.1-4.3-7.6-7.1-10.9z"/><path fill="#D94E41" d="M305.8 329.4c-.1-.5-.1-1.1-.1-1.6 0 .5 0 1.1.1 1.6zM210.1 329.4c.1-.5.1-1.1.1-1.6.1.5 0 1.1-.1 1.6z"/></g><g><path fill="#B3B3B3" d="M251.4 292.4s-7.3-1-8.5 1.5c-.9 2-1.1 2.6 1.3 3 2.4.4.4 1.8 1.7 2.4 1.3.6 6.1-5 5.5-6.9z"/><path fill="gray" d="M248.8 294.6s-2.9-1-3.8-.5c-.9.5-1 .6-.1 1.6s1.1 1.6 1.4 2c.3.4 2.2-.7 2.5-3.1z"/><path fill="#B3B3B3" d="M266.5 294.2s7.3-1 8.5 1.5c.9 2 1.1 2.6-1.3 3-2.4.4-.4 1.8-1.7 2.4-1.3.6-6.1-5-5.5-6.9z"/><path fill="gray" d="M269.1 296.1s2.9-1 3.8-.5c.9.5 1 .6.1 1.6s-1.1 1.6-1.4 2c-.3.3-2.2-.7-2.5-3.1z"/><path fill="#CCC" d="M266.5 292.5s-3.6-2.2-7.9-2.3-9.6 1.6-12.5 6.6c-3.4 5.8-.9 12.6.1 14.1 1.5 2.3 3 3.9 5.7 5.2 3.1 1.6 7.4 2.1 11.7.8 1.9-.6 4.9-2.7 5.9-3.9 1.1-1.2 3.4-3.9 3.2-9.2-.3-4.2-2.9-9.3-6.2-11.3z"/><path fill="gray" d="M258 307.1s1.3-.9 1.9-.5c.6.4.7 1.2-.3 1.8-.9.6-1.6.8-1.6.8s-2.7-.7-2.6-1.6c.3-1 1.6-1.6 2.6-.5z"/><circle fill="#4D4D4D" cx="263.9" cy="307.7" r=".3"/><circle fill="#4D4D4D" cx="263.7" cy="309.1" r=".3"/><circle fill="#4D4D4D" cx="265.4" cy="308.6" r=".3"/><circle fill="#4D4D4D" cx="252.4" cy="308.9" r=".3"/><circle fill="#4D4D4D" cx="251.4" cy="310.2" r=".3"/><circle fill="#4D4D4D" cx="250.2" cy="308.5" r=".3"/><path fill="#4D4D4D" d="M257.8 309.3s.3 2.7.1 2.9c-.1.3-1.8.9-2.7.6-.9-.3-.9-.9-1.2-.8-.3.1.1.8.5.9.4.2 1.6.3 2.4.2.7-.3 1.1-.7 1.2-.6s1.5.9 2.7.8c1.2-.1 1.7-.9 2-1 .3-.2.3-.3-.1-.5s-1.1 1-2 1c-.9 0-2.1-.4-2.2-.8-.2-.3-.3-2.4-.3-2.8.2-.4-.4-.4-.4.1z"/><path fill="#999" d="M246 302.6c1.5-.3 2.9-.8 2.1-1.1-.8-.3-1.9-.9-3.3-1.5-.1.5-.3 1-.3 1.6-.1.4-.2.9-.2 1.3.5-.1 1.1-.2 1.7-.3zM271.3 306.2c.4.1.8.2 1 .3 0-.5.1-1 .1-1.7-1.1.3-1.8.5-2.7.5-.2.1-.1.4 1.6.9zM270.2 309.7c.5.3.9.5 1.2.7.2-.6.4-1.3.7-2.1-.9 0-2.9-.1-3.4-.2-.4-.1-.5.4 1.5 1.6zM245.3 307.7c1.4-.3 3.6-1.7 3.9-2.3.3-.6-.1-.6-1.5-.4-1.1.2-2.7-.1-3.3-.2.1.9.3 2.1.4 3.1.1-.1.3-.2.5-.2z"/><g><path fill="#595858" d="M250.8 303.6c-.1 0-.1 0-.2-.1s-.2-.3-.1-.3c0 0 .7-.9 1.7-.9s1.6.9 1.6.9c.1.1.1.3-.1.3-.1.1-.3.1-.3-.1 0 0-.5-.8-1.3-.8-.7 0-1.3.8-1.3.8.1.1 0 .2 0 .2z"/></g><g><path fill="#595858" d="M265.3 303.6c-.1 0-.2-.1-.3-.2 0 0-.4-.7-1.2-.7-.9 0-1.2.7-1.2.7-.1.1-.3.2-.3.1s-.2-.3-.1-.3c0 0 .5-1 1.7-1s1.6.9 1.7 1c.1.1 0 .3-.1.3l-.2.1z"/></g></g></g><circle fill="#FFF" cx="237.5" cy="263.8" r="15.3"/><path fill="#56B4D1" d="M211.6 276.6s12.9-30 47.3-11.2c31.6 17.1 3.5 11.7 3.5 11.7l-50.8-.5z"/><path fill="#56B4D1" d="M234.3 268.1s28.4-24.2 54.9-14.1l1 16.1-.5 7s-28.4 1.3-29.9 1c-1.6-.1-25.5-10-25.5-10zM232.2 262.7s-10.8-11.6-26.3-7.2l-1.5 21.5 11.8 2 16-16.3z"/><path fill="#0995FF" d="M292.2 279.9h-89.6v-49.5h89.6v49.5zm-85.3-4.3h81v-40.9h-81v40.9z"/><path fill="#0F8AD6" d="M292.2 279.9v-49.1h-89.6l4.3 4.3h81v40.6"/><g fill="none" stroke="#FFF" stroke-width=".5" stroke-linecap="round" stroke-miterlimit="10"><path d="M225.4 250.4l-3.8-3.3 3.8 3.3zM231.1 246.4l-2-4.5 2 4.5zM238 245.4l.2-4.9-.2 4.9zM244.6 247.4l2.2-4.4-2.2 4.4zM249.8 252l3.9-3-3.9 3z"/></g><path fill="none" stroke="#FFF" stroke-width=".5" stroke-linecap="round" stroke-miterlimit="10" d="M247.6 249.3l1.4-1.6M241.4 245.5l.8-2.1M234.3 245.5l-.4-2.4M228 248.2l-1.5-2M252.3 254.3l1.8-1.2M223.1 253.3l-2.3-1.4"/></g></svg>