<svg xmlns="http://www.w3.org/2000/svg" xmlns:xlink="http://www.w3.org/1999/xlink" viewBox="0 0 366.2 408.6"><defs><path id="a" d="M0 0h366.2v408.6H0z"/></defs><clipPath id="b"><use xlink:href="#a" overflow="visible"/></clipPath><g clip-path="url(#b)"><ellipse fill="#283950" cx="307.4" cy="31.9" rx="13.3" ry="13.4"/><path fill="#FFF" d="M307.4 42.8c-6 0-10.8-4.9-10.8-10.9S301.4 21 307.4 21s10.8 4.9 10.8 10.9-4.8 10.9-10.8 10.9z"/><g fill="#283950"><path d="M308.4 22.5c0 .5-.4 1-1 1-.5 0-1-.4-1-1s.4-1 1-1 1 .5 1 1zM308.4 41.3c0 .5-.4 1-1 1-.5 0-1-.4-1-1 0-.5.4-1 1-1s1 .4 1 1zM316.7 32.9c-.5 0-1-.4-1-1s.4-1 1-1c.5 0 1 .4 1 1 0 .5-.4 1-1 1zM298.1 32.9c-.5 0-1-.4-1-1s.4-1 1-1c.5 0 1 .4 1 1 0 .5-.4 1-1 1z"/><g><path d="M303.4 23.4c.2.3.1.8-.3.9-.3.2-.8.1-.9-.3-.2-.3-.1-.8.3-.9.3-.1.7 0 .9.3zM312.7 39.7c.2.3.1.8-.3.9-.3.2-.8.1-.9-.3-.2-.3-.1-.8.3-.9.3-.2.7-.1.9.3zM299.7 26.6c.3.2.4.6.3.9-.2.3-.6.4-.9.3-.3-.2-.4-.6-.2-.9 0-.4.5-.5.8-.3zM315.8 36c.3.2.4.6.3.9-.2.3-.6.4-.9.3-.3-.2-.4-.6-.3-.9.2-.4.6-.5.9-.3zM311.5 23.4c-.2.3-.1.8.3.9.3.2.7.1.9-.3.2-.3.1-.8-.3-.9-.3-.1-.7 0-.9.3zM302.2 39.7c-.2.3-.1.8.3.9.3.2.7.1.9-.3.2-.3.1-.8-.3-.9-.3-.2-.7-.1-.9.3zM315.1 26.6c-.3.2-.4.6-.3.9.2.3.6.4.9.3.3-.2.4-.6.2-.9 0-.4-.4-.5-.8-.3zM299 36c-.3.2-.4.6-.2.9.2.3.6.4.9.3.3-.2.4-.6.3-.9-.2-.4-.7-.5-1-.3z"/></g></g><path fill="#002F2F" d="M307.5 32.1l-.2-.3s5.2-3.6 6.7-3.8c.2 0 .3.2.2.3-1 1.1-6.7 3.8-6.7 3.8z"/><path fill="#002F2F" d="M308.3 31.9c0 .5-.4.9-.9.9s-.9-.4-.9-.9.4-.9.9-.9.9.4.9.9z"/><path fill="#6F6F70" d="M305.6 118.4h1.8v61.2h-1.8z"/><path fill="#9E9E9F" d="M325.2 118.4c-2.4-2.9-9.9-5.1-18.7-5.1s-16.3 2.1-18.7 5.1h-.8v2c0 3.9 8.7 7.1 19.5 7.1s19.5-3.2 19.5-7.1v-2h-.8z"/><ellipse fill="#FFF" cx="306.5" cy="118.4" rx="19.5" ry="7.1"/><path fill="#6F6F70" d="M306.5 170.1s-11.9.3-11.9 9.4h23.8c0-9.1-11.9-9.4-11.9-9.4z"/><path fill="#283950" d="M255.3 98.9h-20.9H210.3c-15.9 0-9.2 25.4-9.2 25.4l7.9 15.6 23.8-2.7 23.8 2.7 7.9-15.6c0-.1 6.7-25.4-9.2-25.4z"/><path fill="#888" d="M203 172l-5.5 7.5h5.5s1.4 0 3.6-3.7c2.3-3.7 3.3-5.7 3.3-5.7L203 172zM262.6 172l5.5 7.5h-5.5s-1.4 0-3.6-3.7c-2.3-3.7-3.3-5.7-3.3-5.7l6.9 1.9z"/><path fill="#2187C5" d="M192.3 130s6.9-10 16.3-6.1c9.1 5.5 4.2 15.3 0 19.2L192.3 130zM273.3 130s-6.9-10-16.3-6.1c-9.1 5.5-4.2 15.3 0 19.2l16.3-13.1z"/><path fill="#283950" d="M270 127.5c-14 0-13.4 12.4-13.4 12.4l.1 15.3h-47.8l.1-15.3s.6-12.4-13.4-12.4c-12.4 6.2 2.3 19.4 2.3 19.4V172h69.8v-25.1s14.7-13.2 2.3-19.4z"/><path fill="#D7D7D9" d="M209 143.1l-.1 12h47.8l-.1-12"/><path fill="#FFF" d="M234.3 133.1c-20.7 0-20.2 4.5-25.3 9.7v.4h47.6c0-.1-1.6-10.1-22.3-10.1zM65.8 145.6c-10.3 2.5-9.3 10.1-8.9 11.9l-1.1 1.5v-11l1.6-2.2c2-.3 8.1-1.9 7.2-10.9-9.2 2.2-8.3 9-7.9 10.6l-.9 1.3v-9.9l1.1-1.5c1.5-.2 6.1-1.4 5.5-8.3-7 1.7-6.3 6.8-6 8.1l-.6.8v-7.2c.9-.9 3.3-3.9-.3-8-3.6 4.2-1.3 7.1-.3 8v10.6l-.6-.9c.3-1.3 1-6.4-6-8.1-.7 6.9 4 8.1 5.5 8.3l1.1 1.5v9.9l-.9-1.3c.4-1.7 1.3-8.4-7.9-10.6-.9 9 5.2 10.6 7.2 10.9l1.6 2.2v11.2l-1.1-1.6c.4-1.9 1.4-9.4-8.9-11.9-1 10.4 6.2 12 8.2 12.3l1.7 2.3v6.6h.7v-10l1.7-2.3c2-.2 9.3-1.9 8.3-12.3z"/><path fill="#283950" d="M65 166H46v1.7h.4l.7 7.8c0 2.3 2.4 4.1 5.3 4.1h6.2c2.9 0 5.3-1.8 5.3-4.1l.7-7.8h.4V166z"/><path fill="#FFF9E8" d="M77 81.8h101.3v95.6H77z"/><g fill="#C5BB9C"><path d="M80.6 82.4h45.5v29.2H80.6zM129.4 82.4h45.5v29.2h-45.5z"/></g><g fill="#C5BB9C"><path d="M80.6 115.3h45.5v29.2H80.6zM129.4 115.3h45.5v29.2h-45.5z"/></g><g fill="#C5BB9C"><path d="M80.6 148.2h45.5v29.2H80.6zM129.4 148.2h45.5v29.2h-45.5z"/></g><path fill="#283950" d="M75.3 80.7h104.9v2.1H75.3z"/><path fill="#FFF9E8" d="M75.3 177.4h104.9v2.1H75.3z"/><path fill="#9C8A78" d="M174.9 89.9h-37.4v21.6h-8.1V82.8h45.5M126 89.9H88.7v21.6h-8.1V82.8H126M174.9 122.6h-37.4v21.6h-8.1v-28.7h45.5M126 122.6H88.7v21.6h-8.1v-28.7H126M174.8 155.5h-37.4v21.6h-8.1v-28.7h45.5M126 155.5H88.7v21.6h-8.1v-28.7H126"/><path fill="#0A96FF" d="M171.222 111.558l-.02-17.5 3.6-.004.02 17.5z"/><path fill="#403D3C" d="M172.363 107.47l-.01-12.3h1.5l.01 12.3zM172.3 108.4h1.5v.5h-1.5zM172.3 109.7h1.5v.5h-1.5z"/><path fill="#0A96FF" d="M167.33 111.658l-.018-17.5 3.6-.004.02 17.5z"/><path fill="#403D3C" d="M168.373 107.47l-.01-12.3h1.5l.01 12.3zM168.4 108.4h1.5v.5h-1.5zM168.4 109.7h1.5v.5h-1.5z"/><g><path fill="#0A96FF" d="M163.34 111.558l-.02-17.5 3.6-.004.02 17.5z"/><path fill="#403D3C" d="M164.38 107.47l-.01-12.3h1.5l.01 12.3zM164.4 108.4h1.5v.5h-1.5zM164.4 109.7h1.5v.5h-1.5z"/></g><g><path fill="#0A96FF" d="M159.424 111.658l-.017-17.5 3.6-.004.017 17.5z"/><path fill="#403D3C" d="M160.47 107.47l-.012-12.3h1.5l.012 12.3zM160.5 108.4h1.5v.5h-1.5zM160.5 109.7h1.5v.5h-1.5z"/></g><g><path fill="#0A96FF" d="M155.417 111.558l-.02-17.5 3.6-.004.02 17.5z"/><path fill="#403D3C" d="M156.557 107.47l-.01-12.3h1.5l.01 12.3zM156.5 108.4h1.5v.5h-1.5zM156.5 109.7h1.5v.5h-1.5z"/></g><g><path fill="#0A96FF" d="M151.52 111.558l-.016-17.5 3.6-.004.015 17.5z"/><path fill="#403D3C" d="M152.67 107.47l-.012-12.3h1.5l.012 12.3zM152.6 108.4h1.5v.5h-1.5zM152.6 109.7h1.5v.5h-1.5z"/></g><g><path fill="#0A96FF" d="M147.614 111.658l-.017-17.5 3.6-.004.017 17.5z"/><path fill="#403D3C" d="M148.655 107.37l-.01-12.3h1.5l.01 12.3zM148.7 108.4h1.5v.5h-1.5zM148.7 109.7h1.5v.5h-1.5z"/></g><g><path fill="#0A96FF" d="M138.964 110.55l5.12-16.734 3.443 1.053-5.12 16.733z"/><path fill="#403D3C" d="M141.24 106.83l3.602-11.76 1.434.44-3.6 11.76zM140.75 108.27l.148-.48 1.433.446-.147.477zM140.474 109.527l.146-.478 1.435.437-.146.478z"/></g><g><path fill="#0A96FF" d="M122.373 177.41l-.02-17.5 3.6-.003.02 17.5z"/><path fill="#403D3C" d="M123.414 173.125l-.01-12.3 1.5-.002.01 12.3zM123.4 174.1h1.5v.5h-1.5zM123.4 175.4h1.5v.5h-1.5z"/><path fill="#0A96FF" d="M118.482 177.31l-.02-17.5 3.6-.003.02 17.5z"/><path fill="#403D3C" d="M119.424 173.225l-.01-12.3 1.5-.002.01 12.3zM119.5 174.1h1.5v.5h-1.5zM119.5 175.4h1.5v.5h-1.5z"/><path fill="#0A96FF" d="M114.49 177.41l-.018-17.5 3.6-.003.02 17.5z"/><path fill="#403D3C" d="M115.43 173.125l-.01-12.3 1.5-.002.01 12.3zM115.5 174.1h1.5v.5h-1.5zM115.5 175.4h1.5v.5h-1.5z"/><g><path fill="#0A96FF" d="M110.576 177.31l-.017-17.5 3.6-.003.016 17.5z"/><path fill="#403D3C" d="M111.52 173.225l-.01-12.3 1.5-.002.01 12.3zM111.6 174.1h1.5v.5h-1.5zM111.6 175.4h1.5v.5h-1.5z"/></g><g><path fill="#0A96FF" d="M106.568 177.41l-.02-17.5 3.6-.003.02 17.5z"/><path fill="#403D3C" d="M107.608 173.125l-.01-12.3 1.5-.002.01 12.3zM107.6 174.1h1.5v.5h-1.5zM107.6 175.4h1.5v.5h-1.5z"/></g><g><path fill="#0A96FF" d="M102.67 177.41l-.014-17.5 3.6-.002.015 17.5z"/><path fill="#403D3C" d="M103.72 173.125l-.01-12.3 1.5-.002.01 12.3zM103.7 174.1h1.5v.5h-1.5zM103.7 175.4h1.5v.5h-1.5z"/></g><g><path fill="#0A96FF" d="M98.765 177.31l-.017-17.5 3.6-.003.017 17.5z"/><path fill="#403D3C" d="M99.706 173.225l-.01-12.3 1.5-.002.01 12.3zM99.8 174.1h1.5v.5h-1.5zM99.8 175.4h1.5v.5h-1.5z"/></g><g><path fill="#0A96FF" d="M94.833 177.337l-.017-17.5 3.6-.003.017 17.5z"/><path fill="#403D3C" d="M95.778 173.25l-.01-12.3h1.5l.01 12.3zM95.9 174.1h1.5v.5h-1.5zM95.9 175.4h1.5v.5h-1.5z"/></g><g><path fill="#0A96FF" d="M90.983 177.337l-.017-17.5 3.6-.003.017 17.5z"/><path fill="#403D3C" d="M91.928 173.25l-.01-12.3h1.5l.01 12.3zM92 174.1h1.5v.5H92zM92 175.4h1.5v.5H92z"/></g></g><g><ellipse fill="#34B57B" cx="152.5" cy="68.4" rx="6.8" ry="7.2"/><path fill="#D2B274" d="M161.3 71.6c0 .2-.2.4-.5.4h-16.6c-.2 0-.4-.2-.4-.4v-2.3c0-.2.2-.5.4-.5h16.7c.2 0 .5.2.5.5v2.3h-.1z"/><path fill="#F2DBAC" d="M158.6 80.8h-12.2l-1.1-8.7h14.5"/><path fill="#D1BD95" d="M145.3 72.1l14.1 2.8.4-2.8"/><path fill="#FFF" d="M152 62.1c-.4.4-.8.7-1.2 1.1-.2.1.1.6.3.4.4-.4.8-.7 1.2-1.1.2-.1-.1-.6-.3-.4zM155 62.1c-.4.4-.8.7-1.2 1.1-.2.1.1.6.3.4.4-.4.8-.7 1.2-1.1.2-.1-.1-.6-.3-.4zM149.3 64.4c-.4.4-.8.7-1.2 1.1-.2.1.1.6.3.4.4-.4.8-.7 1.2-1.1.2-.1-.1-.6-.3-.4zM148.1 66.7c-.4.4-.8.7-1.2 1.1-.2.1.1.6.3.4.4-.4.8-.7 1.2-1.1.2-.1-.1-.6-.3-.4zM151.2 66.7c-.4.4-.8.7-1.2 1.1-.2.1.1.6.3.4.4-.4.8-.7 1.2-1.1.2-.1-.1-.6-.3-.4zM154.4 66.7c-.4.4-.8.7-1.2 1.1-.2.1.1.6.3.4.4-.4.8-.7 1.2-1.1.2-.1-.1-.6-.3-.4zM157.5 66.7c-.4.4-.8.7-1.2 1.1-.2.1.1.6.3.4.4-.4.8-.7 1.2-1.1.2-.1-.1-.6-.3-.4zM152.7 64.4c-.4.4-.8.7-1.2 1.1-.2.1.1.6.3.4.4-.4.8-.7 1.2-1.1.2-.1-.1-.6-.3-.4zM156 64.4c-.4.4-.8.7-1.2 1.1-.2.1.1.6.3.4.4-.4.8-.7 1.2-1.1.2-.1-.1-.6-.3-.4z"/></g><g><path fill="#283950" d="M123.1 76.2c-8.6 0-15.7-6.8-15.7-15.3 0-4.1 1.6-7.9 4.6-10.8l1.2 1.2c-2.6 2.6-4.1 6-4.1 9.6 0 7.5 6.3 13.6 14 13.6 3.6 0 7.1-1.4 9.7-3.8l1.1 1.2c-2.9 2.8-6.7 4.3-10.8 4.3z"/><path fill="#283950" d="M122 75.4h2.3v4.1H122z"/><path fill="#283950" d="M123.1 77.6s-9.2.4-11.7 3.1h23.4c-2.5-2.7-11.7-3.1-11.7-3.1zM136.2 72.8c-.1 0-.3 0-.4.1l-24.6-24.6c0-.1.1-.2.1-.4 0-.6-.5-1.2-1.2-1.2-.6 0-1.2.5-1.2 1.2 0 .6.5 1.2 1.2 1.2.1 0 .3 0 .4-.1l24.6 24.6c0 .1-.1.2-.1.4 0 .6.5 1.2 1.2 1.2.6 0 1.2-.5 1.2-1.2-.1-.7-.6-1.2-1.2-1.2z"/><g><path fill="#253F54" d="M117.1 54.1v.3l3.9 3.9c-.3-2 .1-6.2 2.1-6.8 1-1.1 1.5 1.3 3.3.5.8-.6 1.5-1 2.2-1.2-1.6-.9-3.5-1.4-5.5-1.4-.6 0-1.2.1-1.7.2.1.1.2.3.3.5.2.9-.4 1.4-1.1 2.1-.9.9-2.3 1.5-2.3 0 0-.4-1.7.1-1-1 0-.1.1-.2.2-.3-.8.5-1.6 1-2.3 1.7l.6.6c.6 0 1.2.4 1.3.9z"/><path fill="#2F516C" d="M116.4 69.9c-.3-.1-.5-.1-.8-.2 1.5 1.3 3.2 2.2 5.2 2.6l-.9-1.2c-.7-.9-2.4-.9-3.5-1.2z"/><path fill="#253F54" d="M134.7 60.6c-.3-.4-.7-.7-1.3-.8-.1.5-.1 1-.5 1.4-1.3-.2-2.3-.8-2.9-2-.5.7-.9 1.5-1.3 2.2l.3.3c0 .6-.1 1.1-.3 1.6.1 0 .3-.1.4-.1h.1c0 .3-.4.8-.8.5-.1.2-.3.5-.5.7.4.6.8 1.2 1 1.8l2.6 2.6c1.9-2.1 3.1-4.8 3.1-7.9.1-.1.1-.2.1-.3zm-5 1.1c0-.2.2-.3.4-.4l-.1.1c.1-.2.3-.3.6-.2-.1.4-.6.6-.9.5zM123.5 57.6c-.8-.9-1.8-.7-1.2 0 .7.9 3.6 1.2 3.6.3-.1-.9-1.4-.6-2.4-.3z"/><path fill="#2F516C" d="M129.2 66.8c-.6.9-1 0-1.4-.2 1.5 1.2-.9 4.9-1.7 4.8-.3-.2-.8-2.8-1.1-3.5-.1-.6-1.1-3.7-1.4-4-1.3-.1-5.8-2.2-2.9-4.7.1-.1.3-.1.4-.1-.1-.2-.1-.5-.2-.8l-3.8-3.9c-.1.3-.5.4-.6.7-.1.2.1.6.1.9 0 .3-.1.6-.2.9-.1.4.1.9 0 1.3-.3 1.2-1.4.7-1.9 0-.4-.6-.5-1-1.3-.7-.6.2-.8.4-1.2 0-.2.7-.4 1.4-.4 2.1.6-.2 1.3-.2 1.7-.2 0 .7-.7 1-.9 1.7-.1.5-.1 1.5.6 1.3.9-.2-.1-1.5 1-1.8.7-.2 2.4.7 2.2 1.4-.2.7-.6.6-.3 1.4.1.2.3.3.3.5 0 .3-.2.3-.2.6-.1.5.1.4.2.9.1.7-.3.4-.9.8-1.4.9.9 1.1 1.5 1.1.9 0 1.8-.3 2.7-.3.8-.1 2.8 0 3.3.8.4.6-.2 1.3-.1 2 0 .5.4.9.6 1.3.3.6.1.6.2 1.2v.2c3.1-.1 6-1.5 8-3.6l-2.6-2.6c.1.1.2.3.3.5zm.2 2.7c-.2.5-.4.6-.6.6-.1-.1-.1-.5 0-1s.4-.8.5-.8c.2.1.2.7.1 1.2z"/><path fill="#198FD8" d="M118.3 52.1c-.1 1.5 1.4.9 2.3 0 .7-.7 1.3-1.2 1.1-2.1 0-.2-.1-.3-.3-.5-1.4.2-2.7.7-3.9 1.3-.1.1-.1.2-.2.3-.7 1.1 1 .6 1 1z"/><path fill="#0A96FF" d="M121.2 59.1c-.1 0-.3.1-.4.1-2.9 2.5 1.6 4.7 2.9 4.7.3.3 1.3 3.4 1.4 4 .3.7.8 3.3 1.1 3.5.8.1 3.2-3.7 1.7-4.8.4.2.8 1.1 1.4.2-.1-.2-.2-.4-.2-.6l-8-7.9c-.1.3 0 .6.1.8zM128.8 69.1c-.2.5-.2.9 0 1 .1.1.4-.1.6-.6.1-.5.1-1.1 0-1.1-.2-.1-.4.2-.6.7z"/><path fill="#198FD8" d="M128.4 63.7c.4.2.7-.2.8-.5h-.1c-.1 0-.2 0-.4.1-.1.1-.2.2-.3.4z"/><path fill="#198FD8" d="M128.6 50.8c-.7.2-1.4.6-2.2 1.2-1.8.8-2.3-1.6-3.3-.5-2 .5-2.4 4.7-2.1 6.8l8 7.9c-.3-.7-.6-1.3-1-1.8.2-.2.3-.5.5-.7.1-.1.2-.3.3-.4.2-.5.3-1 .3-1.6-.1-.1-.3-.2-.3-.3.4-.7.9-1.5 1.3-2.2.6 1.2 1.6 1.9 2.9 2 .3-.4.4-.9.5-1.4.6.1 1 .4 1.3.8-.3-4.3-2.7-7.9-6.2-9.8zm-6.3 6.7c-.5-.7.5-.9 1.2 0 .9-.3 2.3-.6 2.3.3.1.9-2.8.6-3.5-.3z"/><path fill="#198FD8" d="M129.9 61.4l.1-.1c-.2.1-.4.2-.4.4.4.1.9 0 .9-.5-.2 0-.5 0-.6.2z"/><path fill="#0A96FF" d="M116.5 55.1c.1-.3.5-.4.6-.7l-1.3-1.3-.6-.6c-.3.3-.5.6-.8.9-1 1.2-1.8 2.6-2.3 4.1.4.4.6.2 1.2 0 .8-.3.9.2 1.3.7.5.7 1.6 1.2 1.9 0 .1-.4-.1-.9 0-1.3 0-.3.2-.6.2-.9-.1-.2-.3-.6-.2-.9z"/><path fill="#198FD8" d="M115.8 53.1l1.3 1.3c0-.1.1-.2 0-.3-.1-.5-.7-.9-1.3-1z"/><path fill="#0A96FF" d="M123.3 71.1c-.3-.5-.6-.8-.6-1.3 0-.6.5-1.3.1-2-.5-.8-2.5-.8-3.3-.8-.9.1-1.8.3-2.7.3-.7 0-3-.2-1.5-1.1.6-.4 1-.1.9-.8-.1-.5-.3-.4-.2-.9 0-.3.2-.3.2-.6 0-.2-.2-.3-.3-.5-.3-.8.2-.7.3-1.4.2-.7-1.4-1.5-2.2-1.4-1.1.2 0 1.5-1 1.8-.8.2-.7-.8-.6-1.3.1-.7.8-1 .9-1.7-.4-.1-1.1 0-1.7.2 0 .4-.1.8-.1 1.3 0 3.5 1.6 6.7 4.1 8.8.3.1.5.1.8.2 1.1.3 2.7.3 3.5 1.2l.9 1.2c.7.1 1.5.2 2.2.2h.5v-.2c0-.7.2-.7-.2-1.2z"/></g></g><ellipse fill="#B4B4B5" cx="232.5" cy="139.3" rx="18.8" ry="3.7"/><g><path fill="#CCC" d="M215.9 129.5s-3.1 1.1-5.6.7c-2.5-.3-7.7-3.1-8.2-7.9s2.5-7.1 2.6-10.1c.1-2.9-1.3-5.2-4.7-3.4-3.4 1.7-6 7.6-5.3 12.9.7 5.2 5.3 12.2 11.2 12.7s11.4-2.4 12.9-4c1.7-1.7.3-2.1-2.9-.9z"/><g fill="#999"><path d="M210.3 130.2c-.7-.1-1.5-.4-2.4-.8-.6.8-.6 3.4-.7 4.9 1.2 0 2.4-.1 3.5-.3-.2-.9-.2-2.8-.2-3.8-.1.1-.1.1-.2 0zM202.8 128.2c.5-.9.8-1.4 1.1-1.8-.9-1.1-1.6-2.4-1.8-3.8-.1-.1-.3-.1-.4-.1-1.5-.3-4.6.9-6.3 2 1.1 3 3.2 6.2 5.9 8.1-.1-1.3.8-3.1 1.5-4.4zM200.7 116.6c1.4.2 1.9.5 2.3.5.5-1.2 1.2-2.3 1.5-3.4-.5-1-5.8-2.1-7.2-2.3-1.1 1.6-1.9 3.6-2.4 5.7 1.3-.8 3.9-.7 5.8-.5z"/></g></g><path fill="#CCC" d="M223.5 102.6s-4.2 7.4-5.6 14c-1.4 6.6-1.1 7.8-1.4 7.2-.3-.6-2.8-1.6-2.9 2.4-.1 4 .8 11.4 1.2 12.5.4 1.1 7.9 1.7 9.8.6 1.8-1.1 2.3-1.9 5.4-1.1 3.1.9 7.8.5 8.7-.1.9-.6 4.9-1.1 6.2-.5 1.3.5 5.8-.3 6.2-1.1.4-.8.3-4.7 0-9s-2.8-7-3.7-7-.6-6.2-3.3-12c-2.9-6.2-4.8-7.9-4.8-7.9l-15.8 2z"/><path fill="#999" d="M213.9 136.6s.1-1.9 2.6-1.5c1.8.3 5 2.7 5.3 2 1.3-2.4-.4-13.7.4-14.4.7-.7 5.1-1.1 5.8 1s.4 11.7 1.8 12.8c1.4 1.1 6.7 2.6 6.9 0 .2-2.7-.2-10 1-11.7s5.7-7 5.6-2.2c-.1 4.8-.7 11.5.1 12.2s4.1-.3 5.2-.5c1.1-.2 2.5 0 2.6-1s.5 1.7.1 2.7-6.7 2-7.6 1.6c-.9-.4-4.2-.1-5.6.5-1.4.6-6.6.9-8.3.1-1.3-.7-5.2.3-6.6.9-1.4.6-1.8.4-2.6.1-.6-.3-7.7-.8-6.7-2.6z"/><path fill="#CCC" d="M212.4 139.6s-.2-3 2.1-3.8c2.4-.8 5.5.9 6.3 2.1.9 1.3.8 1.9-1 2.3-1.6.4-7.3 0-7.4-.6zM243.8 138.7s-.4-2.9 1.5-3.5c1.9-.6 5.6-.8 6.8.6 1.2 1.4.9 3.1-.3 3.3-1.2.2-7.4.7-8-.4z"/><path fill="#999" d="M227.5 126.8s1.3-3.9 4.3-4.3 5.3 1 6.4 4.7c1.2 3.8.6 10.4-.4 11.1-1.1.6-3.8.5-7.1-.2-3.3-.8-4.4-2.3-4.4-2.3s-2.5-2.9 1.2-9z"/><path fill="#B3B3B3" d="M241.1 103.3s1 1.7 1.5 2.9c.5 1.1-2.1.9-3.9.6-1.9-.3-11.8-2.1-15.2 1.1s-4.4 6.2-4.7 7.3c-.3 1.1 0-1.4 1.9-6.2 1.9-4.7 2.6-6.2 2.8-6.4.2-.1 16.9-.7 17.6.7z"/><path fill="#CCC" d="M222.1 125s.6 10.5.6 13.2-.9 3.8.6 4.3 4.3.6 5-1c.8-1.6.3-3.2.1-5.5s.1-10.6-.2-12.1c-.2-1.5-7.3-7.3-6.1 1.1zM237.3 124.9s-.2 7.6-.3 11.2c-.1 3.5-.6 4.9 0 5.6.5.8 4.5 1.1 5.6 0 1.1-1.2.4-2.9.2-6.2-.2-3.3 0-9.5.3-11.6s.1-4.3-.5-4.2c-.7 0-3.4 1-5.3 5.2z"/><g fill="#999"><path d="M239.7 109.3c-1 .4-.8 1.1 1.9 1.2 1.6.1 2.6-.2 3.3-.1-.2-.6-.5-1.3-.8-1.9s-.5-1.1-.8-1.6c0 0-2.6 2-3.6 2.4zM244.7 117.3h1.9c-.1-.9-.3-1.8-.5-2.9-1.1.6-3.6 1.9-4.2 2-.7.2-.4.8 2.8.9zM220.2 111.2c1.5.5 4.6.4 5.3 0s.3-.7-1.3-1.3c-1.3-.5-2.6-1.6-3.2-2.1-.5 1-.9 2.2-1.4 3.4h.6zM219.7 117.9c1.8-.2 3.5-.8 2.5-1.2-.9-.4-2.1-1.1-3.8-2-.2.6-.3 1.2-.5 1.8l-.3 1.5c.7.1 1.4 0 2.1-.1z"/></g><g><path fill="#FFF2D4" d="M250.9 112c-.1.1-.2.1-.4.2.1-.5.2-1.4 0-1.3-1.4.8-2.9 1.5-4.4 2.2-1.6.7-3 1.3-4.5 2.2-1.2.7-6 3.7-7.2 4.6-.2.1-.4.1-.6.1-.5 0-8.2-3.6-12.9-7.6-.7-.6-3-2.5-3.3-2.3-.1 0 0 1.4 0 1.7-.1-.1-.2-.2-.4-.2-.5-.4-1.1-.7-1.7-1-.2-.1.7 2.9.7 2.9s-1.4-1.4-3.6-1.7c-.1 0 0 .8.1 1.8.5 0 1.3.2 1.6.3 1.2.3 6.6 1.9 8.9 2.9h.1c1.1.4 5.3 1.9 8.1 2.7 1.2.4 2.1.6 2.3.6.3 0 .7-.1 1.1-.2 1.8-.8 2.8-1.1 3.7-1.5 1.3-.6 2.8-1.2 4.1-1.8 1.3-.6 2.8-1.1 4.1-1.7 1.1-.5 2.7-.9 4-1.5.4-.2.9-.4 1.3-.5 0-.5 0-1.1-.1-1.5.3 0-.2.2-1 .6z"/><path fill="#4F4287" d="M235.9 144.1c.1 0 .1 0 0 0 .1 0 .1 0 0 0z"/><path fill="#0A8CDD" d="M235.5 129c0-1-.2-5.3-.2-6.3 0-.9-.2-2.9-.2-2.9-.4.1-.8.2-1.1.2-.2 0-1.1-.2-2.3-.6.4.5.4 5.5.4 8.2-.1 1.6 0 3.5.1 5.1.1 2.2 0 4 .1 6.2.1 1.8-.1 3.6.4 5.3-1.7-.4-3.7-1.1-5.6-1.7 2.7.9 5.8 2 7.5 2 .3 0 .7-.1 1.2-.3-.2-2.2-.1-3.8-.3-5.6-.1-2.3.1-5.9 0-9.6z"/><path fill="#4F4287" d="M236.5 143.9c.1 0 .1 0 .2-.1-.1.1-.2.1-.2.1zM235.8 144.1h0zM236 144.1zM227.1 142.4c-.1 0-.2-.1-.3-.1.1.1.2.1.3.1zM236.3 144s.1 0 .1-.1c0 .1-.1.1-.1.1zM236.4 144c0-.1 0-.1 0 0 0-.1 0-.1 0 0zM236.1 144.1h.1c0-.1-.1 0-.1 0zM236.2 144zM244.6 140.6c-2.2 1-5.1 2.2-7.3 3.1 2.2-.9 5.1-2.2 7.3-3.1zM237.3 143.6c-.1 0-.2.1-.3.1.1 0 .2 0 .3-.1zM245.6 140.1c-.1 0-.2.1-.2.1.1 0 .2-.1.2-.1zM245.3 140.2c-.2.1-.5.2-.7.3.2-.1.5-.2.7-.3zM237 143.8c-.1 0-.2.1-.3.1.1-.1.2-.1.3-.1zM246 140c-.1 0-.1.1-.2.1 0-.1.1-.1.2-.1zM246.6 139.7c-.1 0-.2.1-.3.1.2 0 .3-.1.3-.1zM225.6 141.9s-.1 0 0 0c-.1 0 0 0 0 0zM246.3 139.8c-.1 0-.1.1-.2.1 0 0 .1 0 .2-.1zM226 142.1zM226.5 142.2h-.1.1zM223.6 116.7h-.1.1z"/><path fill="#0995FF" d="M232.2 132.6c0-1.6-.2-3.5-.1-5.1 0-2.7 0-7.6-.4-8.2-2.7-.8-7-2.3-8.1-2.7h-.1c-2.3-1-7.7-2.5-8.9-2.9-.4-.1-1.1-.3-1.6-.3-.3 0-.5 0-.5.1 0 1.7.4 4.2.4 5.5.1 3.6.4 6 .8 9.1.4 3.2.6 5.3 1 9.2.1.7 7.4 3.4 10.5 4.3.1 0 .2.1.4.1h.1c.1 0 .2.1.4.1.1 0 .2.1.4.1h.1c.1 0 .2.1.3.1 1.9.6 4.1 1.4 5.9 1.8-.5-1.7-.3-3.6-.4-5.3-.3-1.8-.2-3.7-.2-5.9zM253.4 130c-.4-5.8-.2-7.7-.3-12.4 0-.7.2-3.4.1-4.8 0-.2-.5-.2-1 0-.5.1-1 .3-1.3.5-1.3.6-2.9 1-4 1.5-1.3.6-2.8 1-4.1 1.7-1.3.6-2.8 1.2-4.1 1.8-.9.4-1.9.8-3.7 1.5 0 0 .2 2 .2 2.9 0 1 .2 5.3.2 6.3 0 3.7-.1 7.3 0 9.5.1 1.8.1 3.4.3 5.6.3-.1.5-.2.8-.3.1 0 .2-.1.3-.1.1 0 .2-.1.3-.1 2.2-.8 5.1-2.1 7.3-3.1.3-.1.5-.2.7-.3h.1c.1 0 .2-.1.2-.1h.1c.1 0 .1-.1.2-.1h.1c.1 0 .1-.1.2-.1h.1c.1 0 .2-.1.3-.1 2-.8 3.6-1.6 5.8-2.3 1.2-.4 1.1-.5 1-1.6.2-1.5.3-4.6.2-5.9z"/></g><g><linearGradient id="c" gradientUnits="userSpaceOnUse" x1="244.899" y1="375.4" x2="244.899" y2="324.161" gradientTransform="matrix(1 0 0 -1 0 477.838)"><stop offset=".258" stop-color="#F5F5F5"/><stop offset=".489" stop-color="#EBEBEA"/><stop offset=".889" stop-color="#CFCFCE"/><stop offset="1" stop-color="#C6C6C5"/></linearGradient><path fill="url(#c)" d="M243 115.4c.6.3 1.5 0 1.8-.8.1-.4-.1-.7-.2-.8-.6-.5-1.3.5-1.7.5-.2 0-.5-.3-.5-.5.2-3.5 4.4-2.4 5.3.4.2.8 0 2.3-1.1 3.2-.5.4-1.9 1.2-2.4 1.7-1.1.9-1.3 3 .2 4.3.6.4.7-.3.5-.5-1.8-2 .2-3.9.8-4.3.6-.3 1.1-.8 1.4-1.2 1.1-1.3 1.2-3.3.3-4.7-1-1.6-2.9-1.9-4.5-1-1.3.8-1.5 3 .1 3.7z"/><linearGradient id="d" gradientUnits="userSpaceOnUse" x1="248.465" y1="375.4" x2="248.465" y2="324.161" gradientTransform="matrix(1 0 0 -1 0 477.838)"><stop offset=".258" stop-color="#F5F5F5"/><stop offset=".489" stop-color="#EBEBEA"/><stop offset=".889" stop-color="#CFCFCE"/><stop offset="1" stop-color="#C6C6C5"/></linearGradient><path fill="url(#d)" d="M250.6 119.4c-.6-.6-1.3-.9-2-.9-.6 0-1.2.2-1.7.7-.7.6-1.1 1.6-1.1 2.5 0 .4.1.9.3 1.3s.5.8.9 1.2c.2.2.7.8.7 1.4 0 .4-.2.9-.9 1.3-.1.1-.2.2-.2.4 0 .1 0 .2.1.2.1.1.1.1.3.1h.2c.9-.4 1.1-1.2 1.1-1.9 0-.5-.1-.9-.3-1.2-.3-.5-1-1.1-1.3-1.6-.3-.4-.4-.9-.4-1.4s.1-.9.3-1.1c.5-.8 1.5-1.3 2.3-1.3.9 0 1.6.5 1.6 1.5 0 .2 0 .4-.1.6s-.2.2-.3.2c0 0-.1 0-.1-.1-.2-.2-.4-.6-.9-.6h-.2c-.1 0-.2.1-.3.2s-.1.3-.1.4c.1.6.5 1.1 1.1 1.1h.3c.9-.1 1.3-.9 1.3-1.7-.2-.5-.3-1-.6-1.3zm-.9 2.8z"/><linearGradient id="e" gradientUnits="userSpaceOnUse" x1="251.856" y1="343.867" x2="255.015" y2="343.867" gradientTransform="matrix(1 0 0 -1 0 477.838)"><stop offset=".258" stop-color="#F5F5F5"/><stop offset=".489" stop-color="#EBEBEA"/><stop offset=".889" stop-color="#CFCFCE"/><stop offset="1" stop-color="#C6C6C5"/></linearGradient><path fill="url(#e)" d="M252.5 131l-1.4.1v1.7h1.5c.6 0 1.1.6 1.1.9v.1c0 1-1 1.3-1.6 1.3H250v1.8h1.5c2.6 0 4-1.4 4-3.3v-.1c0-1.6-1.1-2.6-3-2.5z"/><linearGradient id="f" gradientUnits="userSpaceOnUse" x1="252.963" y1="346.114" x2="254.995" y2="344.698" gradientTransform="matrix(1 0 0 -1 0 477.838)"><stop offset="0" stop-color="#FFF"/><stop offset="1" stop-color="#E3E3E2"/></linearGradient><path fill="url(#f)" d="M252.3 132.2s2.4-.6 3.1 1.7c0-1.5-1-3-3.3-2.7.1.3.2 1 .2 1z"/><linearGradient id="g" gradientUnits="userSpaceOnUse" x1="252.448" y1="343.301" x2="252.502" y2="339.925" gradientTransform="matrix(1 0 0 -1 0 477.838)"><stop offset="0" stop-color="#FFF"/><stop offset="1" stop-color="#F5F5F5"/></linearGradient><path fill="url(#g)" d="M251.2 135.4s2.3.2 2.7-1.4c.1.9-.1 2.5-2.8 2.5-.1-.4.1-1.1.1-1.1z"/><linearGradient id="h" gradientUnits="userSpaceOnUse" x1="250.916" y1="347.713" x2="239.902" y2="347.713" gradientTransform="matrix(1 0 0 -1 0 477.838)"><stop offset="0" stop-color="#C6C6C5"/><stop offset=".319" stop-color="#ECECEC"/><stop offset=".676" stop-color="#ECECEC"/><stop offset="1" stop-color="#CBCBCB"/></linearGradient><ellipse fill="url(#h)" cx="246.3" cy="130.1" rx="6.2" ry="2"/><radialGradient id="i" cx="243.579" cy="360.279" r="8.909" gradientTransform="matrix(1 0 0 -1.3426 0 611.62)" gradientUnits="userSpaceOnUse"><stop offset="0" stop-color="#843D14"/><stop offset=".879" stop-color="#422011"/></radialGradient><path fill="url(#i)" d="M246.3 133c2.8 0 6-1 6-2s-3.1-2-6-2c-2.8 0-6 1-6 2 .1 1 3.2 2 6 2z"/><radialGradient id="j" cx="274.329" cy="336.629" r="5.607" gradientTransform="matrix(.9623 0 0 -1.2288 -19.466 545.54)" gradientUnits="userSpaceOnUse"><stop offset="0" stop-color="#843D14"/><stop offset=".879" stop-color="#AC8662"/></radialGradient><path fill="url(#j)" d="M244 130.7c0-.5.7-1 1.8-1.3-1.9 0-4.6.7-4.6 1.5s2.2 1.7 4.9 1.7h1.2c-1.9-.4-3.3-1.2-3.3-1.9z"/><linearGradient id="k" gradientUnits="userSpaceOnUse" x1="237.288" y1="358.799" x2="251.179" y2="332.916" gradientTransform="matrix(1 0 0 -1 0 477.838)"><stop offset=".258" stop-color="#F5F5F5"/><stop offset=".489" stop-color="#EBEBEA"/><stop offset=".889" stop-color="#CFCFCE"/><stop offset="1" stop-color="#C6C6C5"/></linearGradient><path fill="url(#k)" d="M252.5 130.1c0 1.1-2.8 2-6.2 2-3.2 0-5.9-.8-6.1-1.8v10.9c0 3.5 12.3 3.7 12.3 0v-11.1z"/><linearGradient id="l" gradientUnits="userSpaceOnUse" x1="-1358.879" y1="337.729" x2="-1360.088" y2="345.133" gradientTransform="rotate(180 -553.697 238.92)"><stop offset="0" stop-color="#F5F5F5"/><stop offset="1" stop-color="#ECECEC"/></linearGradient><path fill="url(#l)" d="M251.9 140.9c0 .8-.6 1.5-1.1 1.9 1.5-.4 1.6-1.6 1.6-2.1v-10.1l-.4.3-.1 10z"/><linearGradient id="m" gradientUnits="userSpaceOnUse" x1="244.246" y1="339.804" x2="241.075" y2="341.229" gradientTransform="matrix(1 0 0 -1 0 477.838)"><stop offset="0" stop-color="#E3E3E2"/><stop offset=".636" stop-color="#EDEDED"/><stop offset="1" stop-color="#F5F5F5"/></linearGradient><path fill="url(#m)" d="M243.2 141.2v-9.3c-1.1-.1-1.9-.5-2.3-.8v9.8s2 2.5 4.8 2.5c-1.7-.5-2.5-1.4-2.5-2.2z"/><path fill="#FFF" d="M246.3 128.1c-3.4 0-6.2.9-6.2 2.1 0 1.3 2.7 2.3 6.2 2.3s6.2-1 6.2-2.3c0-1.2-2.7-2.1-6.2-2.1zm0 4c-3.2 0-5.8-.9-5.8-1.9 0-1.1 2.6-1.9 5.8-1.9s5.8.9 5.8 1.9c.1 1-2.5 1.9-5.8 1.9z"/></g><g><path fill="#B3B3B3" d="M224.6 75.9s-8.5-1.2-9.9 1.8c-1 2.3-1.3 3 1.5 3.5s.5 2.1 2 2.8c1.6.6 7.1-5.9 6.4-8.1z"/><path fill="gray" d="M221.6 78.5s-3.4-1.2-4.4-.6c-1 .6-1.2.7-.1 1.9 1.1 1.2 1.3 1.9 1.6 2.3.3.4 2.6-.9 2.9-3.6z"/><path fill="#B3B3B3" d="M242.2 78s8.5-1.2 9.9 1.8c1 2.3 1.3 3-1.5 3.5s-.5 2.1-2 2.8c-1.5.6-7-5.9-6.4-8.1z"/><path fill="gray" d="M245.4 80.2s3.4-1.2 4.4-.6 1.2.7.1 1.9c-1.1 1.2-1.3 1.9-1.6 2.3-.3.4-2.6-.9-2.9-3.6z"/><path fill="#CCC" d="M242.2 76s-4.2-2.6-9.2-2.7c-5-.1-11.2 1.9-14.6 7.7-4 6.8-1 14.7.1 16.4 1.8 2.7 3.5 4.5 6.6 6.1 3.6 1.9 8.6 2.4 13.7.9 2.2-.7 5.7-3.2 6.9-4.5 1.3-1.4 4-4.6 3.7-10.7-.3-4.9-3.2-10.9-7.2-13.2z"/><path fill="gray" d="M232.5 93s1.5-1.1 2.2-.6.8 1.4-.3 2.1-1.9.9-1.9.9-3.2-.8-3-1.9c.2-1.1 1.7-1.8 3-.5z"/><circle fill="#4D4D4D" cx="239.2" cy="93.7" r=".3"/><circle fill="#4D4D4D" cx="239" cy="95.4" r=".3"/><circle fill="#4D4D4D" cx="241" cy="94.8" r=".3"/><circle fill="#4D4D4D" cx="225.8" cy="95" r=".3"/><circle fill="#4D4D4D" cx="224.6" cy="96.7" r=".3"/><circle fill="#4D4D4D" cx="223.3" cy="94.7" r=".3"/><circle fill="#4D4D4D" cx="225.5" cy="88.9" r="1.4"/><circle fill="#4D4D4D" cx="240" cy="88.9" r="1.4"/><path fill="#4D4D4D" d="M232.2 95.6s.3 3.1.1 3.4c-.1.3-2.1 1.1-3.2.7-1.1-.4-1.1-1.1-1.4-.9-.3.1.1.9.6 1.1s1.9.4 2.8.2c.8-.3 1.3-.8 1.4-.7.1.1 1.8 1 3.2.9s2-1 2.3-1.2.3-.4-.1-.6c-.4-.2-1.3 1.2-2.3 1.2s-2.4-.5-2.6-.9c-.2-.4-.3-2.8-.3-3.3.1-.5-.5-.5-.5.1z"/><path fill="#999" d="M218.3 87.8c1.8-.3 3.4-.9 2.4-1.3-.9-.3-2.2-1-3.9-1.8-.1.6-.3 1.2-.4 1.9-.1.5-.2 1-.2 1.5.8-.1 1.5-.2 2.1-.3zM248 92c.5.1.9.2 1.2.3 0-.6.1-1.2.1-2-1.3.3-2.1.6-3.1.6-.4.1-.3.5 1.8 1.1zM246.7 96.1c.6.3 1 .6 1.4.8.2-.7.5-1.5.8-2.4-1 0-3.4-.1-4-.2-.6-.2-.6.4 1.8 1.8zM217.5 93.7c1.6-.3 4.2-2 4.6-2.7.4-.7-.1-.7-1.8-.5-1.3.2-3.1-.1-3.8-.2.1 1.1.3 2.4.5 3.6.1-.1.3-.2.5-.2z"/></g></g><g clip-path="url(#b)"><ellipse fill="#283950" cx="163.3" cy="226.3" rx="13.3" ry="13.4"/><path fill="#FFF" d="M163.3 237.2c-6 0-10.8-4.9-10.8-10.9s4.8-10.9 10.8-10.9 10.8 4.9 10.8 10.9-4.8 10.9-10.8 10.9z"/><g fill="#283950"><path d="M164.3 216.9c0 .5-.4 1-1 1-.5 0-1-.4-1-1s.4-1 1-1 1 .5 1 1zM164.3 235.7c0 .5-.4 1-1 1-.5 0-1-.4-1-1 0-.5.4-1 1-1s1 .4 1 1zM172.6 227.3c-.5 0-1-.4-1-1s.4-1 1-1c.5 0 1 .4 1 1 0 .5-.4 1-1 1zM154 227.3c-.5 0-1-.4-1-1s.4-1 1-1c.5 0 1 .4 1 1 0 .5-.4 1-1 1z"/><g><path d="M159.3 217.8c.2.3.1.8-.3.9-.3.2-.8.1-.9-.3-.2-.3-.1-.8.3-.9.3-.1.7 0 .9.3zM168.6 234.1c.2.3.1.8-.3.9-.3.2-.8.1-.9-.3-.2-.3-.1-.8.3-.9.3-.2.7-.1.9.3zM155.6 221c.3.2.4.6.3.9-.2.3-.6.4-.9.3-.3-.2-.4-.6-.2-.9 0-.4.5-.5.8-.3zM171.7 230.4c.3.2.4.6.3.9-.2.3-.6.4-.9.3-.3-.2-.4-.6-.3-.9.2-.4.6-.5.9-.3zM167.4 217.8c-.2.3-.1.8.3.9.3.2.7.1.9-.3.2-.3.1-.8-.3-.9-.3-.1-.7 0-.9.3zM158.1 234.1c-.2.3-.1.8.3.9.3.2.7.1.9-.3.2-.3.1-.8-.3-.9-.3-.2-.7-.1-.9.3zM171 221c-.3.2-.4.6-.3.9.2.3.6.4.9.3.3-.2.4-.6.2-.9 0-.4-.4-.5-.8-.3zM154.9 230.4c-.3.2-.4.6-.2.9s.6.4.9.3c.3-.2.4-.6.3-.9-.2-.4-.7-.5-1-.3z"/></g></g><path fill="#002F2F" d="M163.4 226.5l-.2-.3s5.2-3.6 6.7-3.8c.2 0 .3.2.2.3-1 1.1-6.7 3.8-6.7 3.8z"/><path fill="#002F2F" d="M164.2 226.3c0 .5-.4.9-.9.9s-.9-.4-.9-.9.4-.9.9-.9.9.4.9.9z"/><path fill="#6F6F70" d="M161.5 312.8h1.8V374h-1.8z"/><path fill="#9E9E9F" d="M181.1 312.8c-2.4-2.9-9.9-5.1-18.7-5.1-8.8 0-16.3 2.1-18.7 5.1h-.8v2c0 3.9 8.7 7.1 19.5 7.1s19.5-3.2 19.5-7.1v-2h-.8z"/><ellipse fill="#FFF" cx="162.4" cy="312.8" rx="19.5" ry="7.1"/><path fill="#6F6F70" d="M162.4 364.5s-11.9.3-11.9 9.4h23.8c0-9.1-11.9-9.4-11.9-9.4z"/><path fill="#283950" d="M111.2 293.3H90.3 66.2c-15.9 0-9.2 25.4-9.2 25.4l7.9 15.6 23.8-2.7 23.8 2.7 7.9-15.6c0-.1 6.7-25.4-9.2-25.4z"/><path fill="#888" d="M58.9 366.4l-5.5 7.5h5.5s1.4 0 3.6-3.7c2.3-3.7 3.3-5.7 3.3-5.7l-6.9 1.9zM118.5 366.4l5.5 7.5h-5.5s-1.4 0-3.6-3.7c-2.3-3.7-3.3-5.7-3.3-5.7l6.9 1.9z"/><path fill="#2187C5" d="M48.2 324.4s6.9-10 16.3-6.1c9.1 5.5 4.2 15.3 0 19.2l-16.3-13.1zM129.2 324.4s-6.9-10-16.3-6.1c-9.1 5.5-4.2 15.3 0 19.2l16.3-13.1z"/><path fill="#283950" d="M125.9 321.9c-14 0-13.4 12.4-13.4 12.4l.1 15.3H64.8l.1-15.3s.6-12.4-13.4-12.4c-12.4 6.2 2.3 19.4 2.3 19.4v25.1h69.8v-25.1s14.7-13.2 2.3-19.4z"/><path fill="#D7D7D9" d="M64.9 337.5l-.1 12h47.8l-.1-12"/><path fill="#FFF" d="M90.2 327.5c-20.7 0-20.2 4.5-25.3 9.7v.4h47.6c0-.1-1.6-10.1-22.3-10.1zM-78.3 340c-10.3 2.5-9.3 10.1-8.9 11.9l-1.1 1.5v-11l1.6-2.2c2-.3 8.1-1.9 7.2-10.9-9.2 2.2-8.3 9-7.9 10.6l-.9 1.3v-9.9l1.1-1.5c1.5-.2 6.1-1.4 5.5-8.3-7 1.7-6.3 6.8-6 8.1l-.6.8v-7.2c.9-.9 3.3-3.9-.3-8-3.6 4.2-1.3 7.1-.3 8v10.6l-.6-.9c.3-1.3 1-6.4-6-8.1-.7 6.9 4 8.1 5.5 8.3l1.1 1.5v9.9l-.9-1.3c.4-1.7 1.3-8.4-7.9-10.6-.9 9 5.2 10.6 7.2 10.9l1.6 2.2v11.2l-1.1-1.6c.4-1.9 1.4-9.4-8.9-11.9-1 10.4 6.2 12 8.2 12.3l1.7 2.3v6.6h.7v-10l1.7-2.3c2-.2 9.3-1.9 8.3-12.3z"/><path fill="#283950" d="M-79.1 360.4h-19v1.7h.4l.7 7.8c0 2.3 2.4 4.1 5.3 4.1h6.2c2.9 0 5.3-1.8 5.3-4.1l.7-7.8h.4v-1.7z"/><path fill="#FFF9E8" d="M-67.1 276.2H34.2v95.6H-67.1z"/><g fill="#C5BB9C"><path d="M-63.5 276.8H-18V306h-45.5zM-14.7 276.8h45.5V306h-45.5z"/></g><g fill="#C5BB9C"><path d="M-63.5 309.7H-18v29.2h-45.5zM-14.7 309.7h45.5v29.2h-45.5z"/></g><g fill="#C5BB9C"><path d="M-63.5 342.6H-18v29.2h-45.5zM-14.7 342.6h45.5v29.2h-45.5z"/></g><path fill="#283950" d="M-68.8 275.1H36.1v2.1H-68.8z"/><path fill="#FFF9E8" d="M-68.8 371.8H36.1v2.1H-68.8z"/><path fill="#9C8A78" d="M30.8 284.3H-6.6v21.6h-8.1v-28.7h45.5M-18.1 284.3h-37.3v21.6h-8.1v-28.7h45.4M30.8 317H-6.6v21.6h-8.1v-28.7h45.5M-18.1 317h-37.3v21.6h-8.1v-28.7h45.4M30.7 349.9H-6.7v21.6h-8.1v-28.7h45.5M-18.1 349.9h-37.3v21.6h-8.1v-28.7h45.4"/><path fill="#0A96FF" d="M27.243 305.966l-.02-17.5 3.6-.004.02 17.5z"/><path fill="#403D3C" d="M28.285 301.78l-.012-12.3 1.5-.002.012 12.3zM28.2 302.8h1.5v.5h-1.5zM28.2 304.1h1.5v.5h-1.5z"/><path fill="#0A96FF" d="M23.252 305.966l-.02-17.5 3.6-.004.02 17.5z"/><path fill="#403D3C" d="M24.294 301.88l-.01-12.3 1.5-.002.01 12.3zM24.3 302.8h1.5v.5h-1.5zM24.3 304.1h1.5v.5h-1.5z"/><g><path fill="#0A96FF" d="M19.36 305.866l-.018-17.5 3.6-.004.02 17.5z"/><path fill="#403D3C" d="M20.402 301.78l-.012-12.3 1.5-.002.012 12.3zM20.3 302.8h1.5v.5h-1.5zM20.3 304.1h1.5v.5h-1.5z"/></g><g><path fill="#0A96FF" d="M15.346 305.966l-.017-17.5 3.6-.004.016 17.5z"/><path fill="#403D3C" d="M16.39 301.88l-.01-12.3 1.5-.002.01 12.3zM16.4 302.8h1.5v.5h-1.5zM16.4 304.1h1.5v.5h-1.5z"/></g><g><path fill="#0A96FF" d="M11.438 305.966l-.02-17.5 3.6-.004.02 17.5z"/><path fill="#403D3C" d="M12.48 301.78l-.013-12.3 1.5-.002.012 12.3zM12.4 302.8h1.5v.5h-1.5zM12.4 304.1h1.5v.5h-1.5z"/></g><g><path fill="#0A96FF" d="M7.54 305.966l-.014-17.5 3.6-.003.015 17.5z"/><path fill="#403D3C" d="M8.59 301.78l-.01-12.3 1.5-.002.01 12.3zM8.5 302.8H10v.5H8.5zM8.5 304.1H10v.5H8.5z"/></g><g><path fill="#0A96FF" d="M3.535 305.966l-.017-17.5 3.6-.004.017 17.5z"/><path fill="#403D3C" d="M4.677 301.78l-.012-12.3 1.5-.002.012 12.3zM4.6 302.8h1.5v.5H4.6zM4.6 304.1h1.5v.5H4.6z"/></g><g><path fill="#0A96FF" d="M-5.107 304.84l5.12-16.733 3.442 1.053-5.12 16.733z"/><path fill="#403D3C" d="M-2.855 301.223l3.6-11.76 1.434.438-3.6 11.762zM-3.216 302.602l.15-.478 1.43.445-.147.477zM-3.624 303.917l.146-.48 1.435.44-.146.478z"/></g><g><path fill="#0A96FF" d="M-21.606 371.72l-.018-17.5 3.6-.005.018 17.5z"/><path fill="#403D3C" d="M-20.664 367.533l-.012-12.3h1.5l.012 12.3zM-20.7 368.5h1.5v.5h-1.5zM-20.7 369.8h1.5v.5h-1.5z"/><path fill="#0A96FF" d="M-25.597 371.62l-.02-17.5 3.6-.005.02 17.5z"/><path fill="#403D3C" d="M-24.654 367.533l-.012-12.3h1.5l.012 12.3zM-24.6 368.5h1.5v.5h-1.5zM-24.6 369.8h1.5v.5h-1.5z"/><path fill="#0A96FF" d="M-29.488 371.72l-.02-17.5 3.6-.005.02 17.5z"/><path fill="#403D3C" d="M-28.547 367.533l-.012-12.3h1.5l.013 12.3zM-28.6 368.5h1.5v.5h-1.5zM-28.6 369.8h1.5v.5h-1.5z"/><g><path fill="#0A96FF" d="M-33.503 371.62l-.017-17.5 3.6-.004.017 17.5z"/><path fill="#403D3C" d="M-32.558 367.533l-.01-12.3h1.5l.01 12.3zM-32.5 368.5h1.5v.5h-1.5zM-32.5 369.8h1.5v.5h-1.5z"/></g><g><path fill="#0A96FF" d="M-37.41 371.72l-.02-17.5 3.6-.005.02 17.5z"/><path fill="#403D3C" d="M-36.47 367.533l-.012-12.3 1.5-.002.012 12.3zM-36.5 368.5h1.5v.5h-1.5zM-36.5 369.8h1.5v.5h-1.5z"/></g><g><path fill="#0A96FF" d="M-41.308 371.72l-.015-17.5 3.6-.004.015 17.5z"/><path fill="#403D3C" d="M-40.358 367.533l-.01-12.3 1.5-.002.01 12.3zM-40.4 368.5h1.5v.5h-1.5zM-40.4 369.8h1.5v.5h-1.5z"/></g><g><path fill="#0A96FF" d="M-45.313 371.72l-.018-17.5 3.6-.004.017 17.5z"/><path fill="#403D3C" d="M-44.272 367.533l-.012-12.3 1.5-.002.012 12.3zM-44.3 368.5h1.5v.5h-1.5zM-44.3 369.8h1.5v.5h-1.5z"/></g><g><path fill="#0A96FF" d="M-49.246 371.745l-.017-17.5 3.6-.003.017 17.5z"/><path fill="#403D3C" d="M-48.2 367.56l-.012-12.3 1.5-.002.01 12.3zM-48.2 368.5h1.5v.5h-1.5zM-48.2 369.8h1.5v.5h-1.5z"/></g><g><path fill="#0A96FF" d="M-53.096 371.645l-.017-17.5 3.6-.003.017 17.5z"/><path fill="#403D3C" d="M-52.05 367.56l-.012-12.3 1.5-.002.01 12.3zM-52.1 368.5h1.5v.5h-1.5zM-52.1 369.8h1.5v.5h-1.5z"/></g></g><g><ellipse fill="#34B57B" cx="8.4" cy="262.8" rx="6.8" ry="7.2"/><path fill="#D2B274" d="M17.2 266c0 .2-.2.4-.5.4H.1c-.2 0-.4-.2-.4-.4v-2.3c0-.2.2-.5.4-.5h16.7c.2 0 .5.2.5.5v2.3h-.1z"/><path fill="#F2DBAC" d="M14.5 275.2H2.3l-1.1-8.7h14.5"/><path fill="#D1BD95" d="M1.2 266.5l14.1 2.8.4-2.8"/><path fill="#FFF" d="M7.9 256.5c-.4.4-.8.7-1.2 1.1-.2.1.1.6.3.4.4-.4.8-.7 1.2-1.1.2-.1-.1-.6-.3-.4zM10.9 256.5c-.4.4-.8.7-1.2 1.1-.2.1.1.6.3.4.4-.4.8-.7 1.2-1.1.2-.1-.1-.6-.3-.4zM5.2 258.8c-.4.4-.8.7-1.2 1.1-.2.1.1.6.3.4.4-.4.8-.7 1.2-1.1.2-.1-.1-.6-.3-.4zM4 261.1c-.4.4-.8.7-1.2 1.1-.2.1.1.6.3.4.4-.4.8-.7 1.2-1.1.2-.1-.1-.6-.3-.4zM7.1 261.1c-.4.4-.8.7-1.2 1.1-.2.1.1.6.3.4.4-.4.8-.7 1.2-1.1.2-.1-.1-.6-.3-.4zM10.3 261.1c-.4.4-.8.7-1.2 1.1-.2.1.1.6.3.4.4-.4.8-.7 1.2-1.1.2-.1-.1-.6-.3-.4zM13.4 261.1c-.4.4-.8.7-1.2 1.1-.2.1.1.6.3.4.4-.4.8-.7 1.2-1.1.2-.1-.1-.6-.3-.4zM8.6 258.8c-.4.4-.8.7-1.2 1.1-.2.1.1.6.3.4.4-.4.8-.7 1.2-1.1.2-.1-.1-.6-.3-.4zM11.9 258.8c-.4.4-.8.7-1.2 1.1-.2.1.1.6.3.4.4-.4.8-.7 1.2-1.1.2-.1-.1-.6-.3-.4z"/></g><g><path fill="#283950" d="M-21 270.6c-8.6 0-15.7-6.8-15.7-15.3 0-4.1 1.6-7.9 4.6-10.8l1.2 1.2c-2.6 2.6-4.1 6-4.1 9.6 0 7.5 6.3 13.6 14 13.6 3.6 0 7.1-1.4 9.7-3.8l1.1 1.2c-2.9 2.8-6.7 4.3-10.8 4.3z"/><path fill="#283950" d="M-22.1 269.8h2.3v4.1h-2.3z"/><path fill="#283950" d="M-21 272s-9.2.4-11.7 3.1h23.4C-11.8 272.4-21 272-21 272zM-7.9 267.2c-.1 0-.3 0-.4.1l-24.6-24.6c0-.1.1-.2.1-.4 0-.6-.5-1.2-1.2-1.2-.6 0-1.2.5-1.2 1.2 0 .6.5 1.2 1.2 1.2.1 0 .3 0 .4-.1L-9 268c0 .1-.1.2-.1.4 0 .6.5 1.2 1.2 1.2.6 0 1.2-.5 1.2-1.2-.1-.7-.6-1.2-1.2-1.2z"/><g><path fill="#253F54" d="M-27 248.5v.3l3.9 3.9c-.3-2 .1-6.2 2.1-6.8 1-1.1 1.5 1.3 3.3.5.8-.6 1.5-1 2.2-1.2-1.6-.9-3.5-1.4-5.5-1.4-.6 0-1.2.1-1.7.2.1.1.2.3.3.5.2.9-.4 1.4-1.1 2.1-.9.9-2.3 1.5-2.3 0 0-.4-1.7.1-1-1 0-.1.1-.2.2-.3-.8.5-1.6 1-2.3 1.7l.6.6c.6 0 1.2.4 1.3.9z"/><path fill="#2F516C" d="M-27.7 264.3c-.3-.1-.5-.1-.8-.2 1.5 1.3 3.2 2.2 5.2 2.6l-.9-1.2c-.7-.9-2.4-.9-3.5-1.2z"/><path fill="#253F54" d="M-9.4 255c-.3-.4-.7-.7-1.3-.8-.1.5-.1 1-.5 1.4-1.3-.2-2.3-.8-2.9-2-.5.7-.9 1.5-1.3 2.2l.3.3c0 .6-.1 1.1-.3 1.6.1 0 .3-.1.4-.1h.1c0 .3-.4.8-.8.5-.1.2-.3.5-.5.7.4.6.8 1.2 1 1.8l2.6 2.6c1.9-2.1 3.1-4.8 3.1-7.9.1-.1.1-.2.1-.3zm-5 1.1c0-.2.2-.3.4-.4l-.1.1c.1-.2.3-.3.6-.2-.1.4-.6.6-.9.5zM-20.6 252c-.8-.9-1.8-.7-1.2 0 .7.9 3.6 1.2 3.6.3-.1-.9-1.4-.6-2.4-.3z"/><path fill="#2F516C" d="M-14.9 261.2c-.6.9-1 0-1.4-.2 1.5 1.2-.9 4.9-1.7 4.8-.3-.2-.8-2.8-1.1-3.5-.1-.6-1.1-3.7-1.4-4-1.3-.1-5.8-2.2-2.9-4.7.1-.1.3-.1.4-.1-.1-.2-.1-.5-.2-.8l-3.8-3.9c-.1.3-.5.4-.6.7-.1.2.1.6.1.9s-.1.6-.2.9c-.1.4.1.9 0 1.3-.3 1.2-1.4.7-1.9 0-.4-.6-.5-1-1.3-.7-.6.2-.8.4-1.2 0-.2.7-.4 1.4-.4 2.1.6-.2 1.3-.2 1.7-.2 0 .7-.7 1-.9 1.7-.1.5-.1 1.5.6 1.3.9-.2-.1-1.5 1-1.8.7-.2 2.4.7 2.2 1.4-.2.7-.6.6-.3 1.4.1.2.3.3.3.5 0 .3-.2.3-.2.6-.1.5.1.4.2.9.1.7-.3.4-.9.8-1.4.9.9 1.1 1.5 1.1.9 0 1.8-.3 2.7-.3.8-.1 2.8 0 3.3.8.4.6-.2 1.3-.1 2 0 .5.4.9.6 1.3.3.6.1.6.2 1.2v.2c3.1-.1 6-1.5 8-3.6l-2.6-2.6c.1.1.2.3.3.5zm.2 2.7c-.2.5-.4.6-.6.6-.1-.1-.1-.5 0-1s.4-.8.5-.8c.2.1.2.7.1 1.2z"/><path fill="#198FD8" d="M-25.8 246.5c-.1 1.5 1.4.9 2.3 0 .7-.7 1.3-1.2 1.1-2.1 0-.2-.1-.3-.3-.5-1.4.2-2.7.7-3.9 1.3-.1.1-.1.2-.2.3-.7 1.1 1 .6 1 1z"/><path fill="#0A96FF" d="M-22.9 253.5c-.1 0-.3.1-.4.1-2.9 2.5 1.6 4.7 2.9 4.7.3.3 1.3 3.4 1.4 4 .3.7.8 3.3 1.1 3.5.8.1 3.2-3.7 1.7-4.8.4.2.8 1.1 1.4.2-.1-.2-.2-.4-.2-.6l-8-7.9c-.1.3 0 .6.1.8zM-15.3 263.5c-.2.5-.2.9 0 1 .1.1.4-.1.6-.6.1-.5.1-1.1 0-1.1-.2-.1-.4.2-.6.7z"/><path fill="#198FD8" d="M-15.7 258.1c.4.2.7-.2.8-.5h-.1c-.1 0-.2 0-.4.1-.1.1-.2.2-.3.4z"/><path fill="#198FD8" d="M-15.5 245.2c-.7.2-1.4.6-2.2 1.2-1.8.8-2.3-1.6-3.3-.5-2 .5-2.4 4.7-2.1 6.8l8 7.9c-.3-.7-.6-1.3-1-1.8.2-.2.3-.5.5-.7.1-.1.2-.3.3-.4.2-.5.3-1 .3-1.6-.1-.1-.3-.2-.3-.3.4-.7.9-1.5 1.3-2.2.6 1.2 1.6 1.9 2.9 2 .3-.4.4-.9.5-1.4.6.1 1 .4 1.3.8-.3-4.3-2.7-7.9-6.2-9.8zm-6.3 6.7c-.5-.7.5-.9 1.2 0 .9-.3 2.3-.6 2.3.3.1.9-2.8.6-3.5-.3z"/><path fill="#198FD8" d="M-14.2 255.8c-.1 0-.3.1-.3.3.4.1.9 0 .9-.5-.2 0-.5 0-.6.2z"/><path fill="#0A96FF" d="M-27.6 249.5c.1-.3.5-.4.6-.7l-1.3-1.3-.6-.6c-.3.3-.5.6-.8.9-1 1.2-1.8 2.6-2.3 4.1.4.4.6.2 1.2 0 .8-.3.9.2 1.3.7.5.7 1.6 1.2 1.9 0 .1-.4-.1-.9 0-1.3 0-.3.2-.6.2-.9-.1-.2-.3-.6-.2-.9z"/><path fill="#198FD8" d="M-28.3 247.5l1.3 1.3c0-.1.1-.2 0-.3-.1-.5-.7-.9-1.3-1z"/><path fill="#0A96FF" d="M-20.8 265.5c-.3-.5-.6-.8-.6-1.3 0-.6.5-1.3.1-2-.5-.8-2.5-.8-3.3-.8-.9.1-1.8.3-2.7.3-.7 0-3-.2-1.5-1.1.6-.4 1-.1.9-.8-.1-.5-.3-.4-.2-.9 0-.3.2-.3.2-.6 0-.2-.2-.3-.3-.5-.3-.8.2-.7.3-1.4.2-.7-1.4-1.5-2.2-1.4-1.1.2 0 1.5-1 1.8-.8.2-.7-.8-.6-1.3.1-.7.8-1 .9-1.7-.4-.1-1.1 0-1.7.2 0 .4-.1.8-.1 1.3 0 3.5 1.6 6.7 4.1 8.8.3.1.5.1.8.2 1.1.3 2.7.3 3.5 1.2l.9 1.2c.7.1 1.5.2 2.2.2h.5v-.2c0-.7.2-.7-.2-1.2z"/></g></g><ellipse fill="#B4B4B5" cx="88.4" cy="333.7" rx="18.8" ry="3.7"/><g><path fill="#CCC" d="M71.8 323.9s-3.1 1.1-5.6.7c-2.5-.3-7.7-3.1-8.2-7.9-.5-4.8 2.5-7.1 2.6-10.1.1-2.9-1.3-5.2-4.7-3.4-3.4 1.7-6 7.6-5.3 12.9.7 5.2 5.3 12.2 11.2 12.7s11.4-2.4 12.9-4c1.7-1.7.3-2.1-2.9-.9z"/><g fill="#999"><path d="M66.2 324.6c-.7-.1-1.5-.4-2.4-.8-.6.8-.6 3.4-.7 4.9 1.2 0 2.4-.1 3.5-.3-.2-.9-.2-2.8-.2-3.8-.1.1-.1.1-.2 0zM58.7 322.6c.5-.9.8-1.4 1.1-1.8-.9-1.1-1.6-2.4-1.8-3.8-.1-.1-.3-.1-.4-.1-1.5-.3-4.6.9-6.3 2 1.1 3 3.2 6.2 5.9 8.1-.1-1.3.8-3.1 1.5-4.4zM56.6 311c1.4.2 1.9.5 2.3.5.5-1.2 1.2-2.3 1.5-3.4-.5-1-5.8-2.1-7.2-2.3-1.1 1.6-1.9 3.6-2.4 5.7 1.3-.8 3.9-.7 5.8-.5z"/></g></g><path fill="#CCC" d="M79.4 297s-4.2 7.4-5.6 14c-1.4 6.6-1.1 7.8-1.4 7.2-.3-.6-2.8-1.6-2.9 2.4-.1 4 .8 11.4 1.2 12.5.4 1.1 7.9 1.7 9.8.6 1.8-1.1 2.3-1.9 5.4-1.1 3.1.9 7.8.5 8.7-.1.9-.6 4.9-1.1 6.2-.5 1.3.5 5.8-.3 6.2-1.1.4-.8.3-4.7 0-9s-2.8-7-3.7-7-.6-6.2-3.3-12c-2.9-6.2-4.8-7.9-4.8-7.9l-15.8 2z"/><path fill="#999" d="M69.8 331s.1-1.9 2.6-1.5c1.8.3 5 2.7 5.3 2 1.3-2.4-.4-13.7.4-14.4.7-.7 5.1-1.1 5.8 1 .7 2.1.4 11.7 1.8 12.8 1.4 1.1 6.7 2.6 6.9 0 .2-2.7-.2-10 1-11.7 1.2-1.7 5.7-7 5.6-2.2-.1 4.8-.7 11.5.1 12.2.8.7 4.1-.3 5.2-.5 1.1-.2 2.5 0 2.6-1s.5 1.7.1 2.7-6.7 2-7.6 1.6c-.9-.4-4.2-.1-5.6.5-1.4.6-6.6.9-8.3.1-1.3-.7-5.2.3-6.6.9-1.4.6-1.8.4-2.6.1-.6-.3-7.7-.8-6.7-2.6z"/><path fill="#CCC" d="M68.3 334s-.2-3 2.1-3.8c2.4-.8 5.5.9 6.3 2.1.9 1.3.8 1.9-1 2.3-1.6.4-7.3 0-7.4-.6zM99.7 333.1s-.4-2.9 1.5-3.5c1.9-.6 5.6-.8 6.8.6s.9 3.1-.3 3.3c-1.2.2-7.4.7-8-.4z"/><path fill="#999" d="M83.4 321.2s1.3-3.9 4.3-4.3 5.3 1 6.4 4.7c1.2 3.8.6 10.4-.4 11.1-1.1.6-3.8.5-7.1-.2-3.3-.8-4.4-2.3-4.4-2.3s-2.5-2.9 1.2-9z"/><path fill="#B3B3B3" d="M97 297.7s1 1.7 1.5 2.9c.5 1.1-2.1.9-3.9.6-1.9-.3-11.8-2.1-15.2 1.1-3.4 3.2-4.4 6.2-4.7 7.3-.3 1.1 0-1.4 1.9-6.2 1.9-4.7 2.6-6.2 2.8-6.4.2-.1 16.9-.7 17.6.7z"/><path fill="#CCC" d="M78 319.4s.6 10.5.6 13.2c0 2.7-.9 3.8.6 4.3s4.3.6 5-1c.8-1.6.3-3.2.1-5.5-.2-2.3.1-10.6-.2-12.1-.2-1.5-7.3-7.3-6.1 1.1zM93.2 319.3s-.2 7.6-.3 11.2c-.1 3.5-.6 4.9 0 5.6.5.8 4.5 1.1 5.6 0 1.1-1.2.4-2.9.2-6.2-.2-3.3 0-9.5.3-11.6s.1-4.3-.5-4.2c-.7 0-3.4 1-5.3 5.2z"/><g fill="#999"><path d="M95.6 303.7c-1 .4-.8 1.1 1.9 1.2 1.6.1 2.6-.2 3.3-.1-.2-.6-.5-1.3-.8-1.9s-.5-1.1-.8-1.6c0 0-2.6 2-3.6 2.4zM100.6 311.7h1.9c-.1-.9-.3-1.8-.5-2.9-1.1.6-3.6 1.9-4.2 2-.7.2-.4.8 2.8.9zM76.1 305.6c1.5.5 4.6.4 5.3 0 .7-.4.3-.7-1.3-1.3-1.3-.5-2.6-1.6-3.2-2.1-.5 1-.9 2.2-1.4 3.4h.6zM75.6 312.3c1.8-.2 3.5-.8 2.5-1.2-.9-.4-2.1-1.1-3.8-2-.2.6-.3 1.2-.5 1.8l-.3 1.5c.7.1 1.4 0 2.1-.1z"/></g><g><path fill="#FFF2D4" d="M106.8 306.4c-.1.1-.2.1-.4.2.1-.5.2-1.4 0-1.3-1.4.8-2.9 1.5-4.4 2.2-1.6.7-3 1.3-4.5 2.2-1.2.7-6 3.7-7.2 4.6-.2.1-.4.1-.6.1-.5 0-8.2-3.6-12.9-7.6-.7-.6-3-2.5-3.3-2.3-.1 0 0 1.4 0 1.7-.1-.1-.2-.2-.4-.2-.5-.4-1.1-.7-1.7-1-.2-.1.7 2.9.7 2.9s-1.4-1.4-3.6-1.7c-.1 0 0 .8.1 1.8.5 0 1.3.2 1.6.3 1.2.3 6.6 1.9 8.9 2.9h.1c1.1.4 5.3 1.9 8.1 2.7 1.2.4 2.1.6 2.3.6.3 0 .7-.1 1.1-.2 1.8-.8 2.8-1.1 3.7-1.5 1.3-.6 2.8-1.2 4.1-1.8 1.3-.6 2.8-1.1 4.1-1.7 1.1-.5 2.7-.9 4-1.5.4-.2.9-.4 1.3-.5 0-.5 0-1.1-.1-1.5.3 0-.2.2-1 .6z"/><path fill="#4F4287" d="M91.8 338.5c.1 0 .1 0 0 0 .1 0 .1 0 0 0z"/><path fill="#0A8CDD" d="M91.4 323.4c0-1-.2-5.3-.2-6.3 0-.9-.2-2.9-.2-2.9-.4.1-.8.2-1.1.2-.2 0-1.1-.2-2.3-.6.4.5.4 5.5.4 8.2-.1 1.6 0 3.5.1 5.1.1 2.2 0 4 .1 6.2.1 1.8-.1 3.6.4 5.3-1.7-.4-3.7-1.1-5.6-1.7 2.7.9 5.8 2 7.5 2 .3 0 .7-.1 1.2-.3-.2-2.2-.1-3.8-.3-5.6-.1-2.3.1-5.9 0-9.6z"/><path fill="#4F4287" d="M92.4 338.3c.1 0 .1 0 .2-.1-.1.1-.2.1-.2.1zM91.7 338.5h0zM91.9 338.5zM83 336.8c-.1 0-.2-.1-.3-.1.1.1.2.1.3.1zM92.2 338.4s.1 0 .1-.1c0 .1-.1.1-.1.1zM92.3 338.4c0-.1 0-.1 0 0 0-.1 0-.1 0 0zM92 338.5h.1c0-.1-.1 0-.1 0zM92.1 338.4zM100.5 335c-2.2 1-5.1 2.2-7.3 3.1 2.2-.9 5.1-2.2 7.3-3.1zM93.2 338c-.1 0-.2.1-.3.1.1 0 .2 0 .3-.1zM101.5 334.5c-.1 0-.2.1-.2.1.1 0 .2-.1.2-.1zM101.2 334.6c-.2.1-.5.2-.7.3.2-.1.5-.2.7-.3zM92.9 338.2c-.1 0-.2.1-.3.1.1-.1.2-.1.3-.1zM101.9 334.4c-.1 0-.1.1-.2.1 0-.1.1-.1.2-.1zM102.5 334.1c-.1 0-.2.1-.3.1.2 0 .3-.1.3-.1zM81.5 336.3s-.1 0 0 0c-.1 0 0 0 0 0zM102.2 334.2c-.1 0-.1.1-.2.1 0 0 .1 0 .2-.1zM81.9 336.5zM82.4 336.6h-.1.1zM79.5 311.1h-.1.1z"/><path fill="#0995FF" d="M88.1 327c0-1.6-.2-3.5-.1-5.1 0-2.7 0-7.6-.4-8.2-2.7-.8-7-2.3-8.1-2.7h-.1c-2.3-1-7.7-2.5-8.9-2.9-.4-.1-1.1-.3-1.6-.3-.3 0-.5 0-.5.1 0 1.7.4 4.2.4 5.5.1 3.6.4 6 .8 9.1.4 3.2.6 5.3 1 9.2.1.7 7.4 3.4 10.5 4.3.1 0 .2.1.4.1h.1c.1 0 .2.1.4.1.1 0 .2.1.4.1h.1c.1 0 .2.1.3.1 1.9.6 4.1 1.4 5.9 1.8-.5-1.7-.3-3.6-.4-5.3-.3-1.8-.2-3.7-.2-5.9zM109.3 324.4c-.4-5.8-.2-7.7-.3-12.4 0-.7.2-3.4.1-4.8 0-.2-.5-.2-1 0-.5.1-1 .3-1.3.5-1.3.6-2.9 1-4 1.5-1.3.6-2.8 1-4.1 1.7-1.3.6-2.8 1.2-4.1 1.8-.9.4-1.9.8-3.7 1.5 0 0 .2 2 .2 2.9 0 1 .2 5.3.2 6.3 0 3.7-.1 7.3 0 9.5.1 1.8.1 3.4.3 5.6.3-.1.5-.2.8-.3.1 0 .2-.1.3-.1.1 0 .2-.1.3-.1 2.2-.8 5.1-2.1 7.3-3.1.3-.1.5-.2.7-.3h.1c.1 0 .2-.1.2-.1h.1c.1 0 .1-.1.2-.1h.1c.1 0 .1-.1.2-.1h.1c.1 0 .2-.1.3-.1 2-.8 3.6-1.6 5.8-2.3 1.2-.4 1.1-.5 1-1.6.2-1.5.3-4.6.2-5.9z"/></g><g><linearGradient id="n" gradientUnits="userSpaceOnUse" x1="100.864" y1="181.056" x2="100.864" y2="129.817" gradientTransform="matrix(1 0 0 -1 0 477.838)"><stop offset=".258" stop-color="#F5F5F5"/><stop offset=".489" stop-color="#EBEBEA"/><stop offset=".889" stop-color="#CFCFCE"/><stop offset="1" stop-color="#C6C6C5"/></linearGradient><path fill="url(#n)" d="M98.9 309.8c.6.3 1.5 0 1.8-.8.1-.4-.1-.7-.2-.8-.6-.5-1.3.5-1.7.5-.2 0-.5-.3-.5-.5.2-3.5 4.4-2.4 5.3.4.2.8 0 2.3-1.1 3.2-.5.4-1.9 1.2-2.4 1.7-1.1.9-1.3 3 .2 4.3.6.4.7-.3.5-.5-1.8-2 .2-3.9.8-4.3.6-.3 1.1-.8 1.4-1.2 1.1-1.3 1.2-3.3.3-4.7-1-1.6-2.9-1.9-4.5-1-1.3.8-1.5 3 .1 3.7z"/><linearGradient id="o" gradientUnits="userSpaceOnUse" x1="104.429" y1="181.056" x2="104.429" y2="129.817" gradientTransform="matrix(1 0 0 -1 0 477.838)"><stop offset=".258" stop-color="#F5F5F5"/><stop offset=".489" stop-color="#EBEBEA"/><stop offset=".889" stop-color="#CFCFCE"/><stop offset="1" stop-color="#C6C6C5"/></linearGradient><path fill="url(#o)" d="M106.5 313.8c-.6-.6-1.3-.9-2-.9-.6 0-1.2.2-1.7.7-.7.6-1.1 1.6-1.1 2.5 0 .4.1.9.3 1.3s.5.8.9 1.2c.2.2.7.8.7 1.4 0 .4-.2.9-.9 1.3-.1.1-.2.2-.2.4 0 .1 0 .2.1.2.1.1.1.1.3.1h.2c.9-.4 1.1-1.2 1.1-1.9 0-.5-.1-.9-.3-1.2-.3-.5-1-1.1-1.3-1.6-.3-.4-.4-.9-.4-1.4s.1-.9.3-1.1c.5-.8 1.5-1.3 2.3-1.3.9 0 1.6.5 1.6 1.5 0 .2 0 .4-.1.6-.1.2-.2.2-.3.2 0 0-.1 0-.1-.1-.2-.2-.4-.6-.9-.6h-.2c-.1 0-.2.1-.3.2s-.1.3-.1.4c.1.6.5 1.1 1.1 1.1h.3c.9-.1 1.3-.9 1.3-1.7-.2-.5-.3-1-.6-1.3zm-.9 2.8z"/><linearGradient id="p" gradientUnits="userSpaceOnUse" x1="107.821" y1="149.523" x2="110.979" y2="149.523" gradientTransform="matrix(1 0 0 -1 0 477.838)"><stop offset=".258" stop-color="#F5F5F5"/><stop offset=".489" stop-color="#EBEBEA"/><stop offset=".889" stop-color="#CFCFCE"/><stop offset="1" stop-color="#C6C6C5"/></linearGradient><path fill="url(#p)" d="M108.4 325.4l-1.4.1v1.7h1.5c.6 0 1.1.6 1.1.9v.1c0 1-1 1.3-1.6 1.3h-2.1v1.8h1.5c2.6 0 4-1.4 4-3.3v-.1c0-1.6-1.1-2.6-3-2.5z"/><linearGradient id="q" gradientUnits="userSpaceOnUse" x1="108.927" y1="151.771" x2="110.96" y2="150.355" gradientTransform="matrix(1 0 0 -1 0 477.838)"><stop offset="0" stop-color="#FFF"/><stop offset="1" stop-color="#E3E3E2"/></linearGradient><path fill="url(#q)" d="M108.2 326.6s2.4-.6 3.1 1.7c0-1.5-1-3-3.3-2.7.1.3.2 1 .2 1z"/><linearGradient id="r" gradientUnits="userSpaceOnUse" x1="108.412" y1="148.958" x2="108.467" y2="145.582" gradientTransform="matrix(1 0 0 -1 0 477.838)"><stop offset="0" stop-color="#FFF"/><stop offset="1" stop-color="#F5F5F5"/></linearGradient><path fill="url(#r)" d="M107.1 329.8s2.3.2 2.7-1.4c.1.9-.1 2.5-2.8 2.5-.1-.4.1-1.1.1-1.1z"/><linearGradient id="s" gradientUnits="userSpaceOnUse" x1="106.881" y1="153.37" x2="95.867" y2="153.37" gradientTransform="matrix(1 0 0 -1 0 477.838)"><stop offset="0" stop-color="#C6C6C5"/><stop offset=".319" stop-color="#ECECEC"/><stop offset=".676" stop-color="#ECECEC"/><stop offset="1" stop-color="#CBCBCB"/></linearGradient><ellipse fill="url(#s)" cx="102.2" cy="324.5" rx="6.2" ry="2"/><radialGradient id="t" cx="99.544" cy="215.528" r="8.909" gradientTransform="matrix(1 0 0 -1.3426 0 611.62)" gradientUnits="userSpaceOnUse"><stop offset="0" stop-color="#843D14"/><stop offset=".879" stop-color="#422011"/></radialGradient><path fill="url(#t)" d="M102.2 327.4c2.8 0 6-1 6-2s-3.1-2-6-2c-2.8 0-6 1-6 2 .1 1 3.2 2 6 2z"/><radialGradient id="u" cx="124.65" cy="178.471" r="5.607" gradientTransform="matrix(.9623 0 0 -1.2288 -19.466 545.54)" gradientUnits="userSpaceOnUse"><stop offset="0" stop-color="#843D14"/><stop offset=".879" stop-color="#AC8662"/></radialGradient><path fill="url(#u)" d="M99.9 325.1c0-.5.7-1 1.8-1.3-1.9 0-4.6.7-4.6 1.5s2.2 1.7 4.9 1.7h1.2c-1.9-.4-3.3-1.2-3.3-1.9z"/><linearGradient id="v" gradientUnits="userSpaceOnUse" x1="93.253" y1="164.456" x2="107.144" y2="138.572" gradientTransform="matrix(1 0 0 -1 0 477.838)"><stop offset=".258" stop-color="#F5F5F5"/><stop offset=".489" stop-color="#EBEBEA"/><stop offset=".889" stop-color="#CFCFCE"/><stop offset="1" stop-color="#C6C6C5"/></linearGradient><path fill="url(#v)" d="M108.4 324.5c0 1.1-2.8 2-6.2 2-3.2 0-5.9-.8-6.1-1.8v10.9c0 3.5 12.3 3.7 12.3 0v-11.1z"/><linearGradient id="w" gradientUnits="userSpaceOnUse" x1="-1214.844" y1="143.386" x2="-1216.053" y2="150.789" gradientTransform="rotate(180 -553.697 238.92)"><stop offset="0" stop-color="#F5F5F5"/><stop offset="1" stop-color="#ECECEC"/></linearGradient><path fill="url(#w)" d="M107.8 335.3c0 .8-.6 1.5-1.1 1.9 1.5-.4 1.6-1.6 1.6-2.1V325l-.4.3-.1 10z"/><linearGradient id="x" gradientUnits="userSpaceOnUse" x1="100.211" y1="145.461" x2="97.04" y2="146.886" gradientTransform="matrix(1 0 0 -1 0 477.838)"><stop offset="0" stop-color="#E3E3E2"/><stop offset=".636" stop-color="#EDEDED"/><stop offset="1" stop-color="#F5F5F5"/></linearGradient><path fill="url(#x)" d="M99.1 335.6v-9.3c-1.1-.1-1.9-.5-2.3-.8v9.8s2 2.5 4.8 2.5c-1.7-.5-2.5-1.4-2.5-2.2z"/><path fill="#FFF" d="M102.2 322.5c-3.4 0-6.2.9-6.2 2.1 0 1.3 2.7 2.3 6.2 2.3s6.2-1 6.2-2.3c0-1.2-2.7-2.1-6.2-2.1zm0 4c-3.2 0-5.8-.9-5.8-1.9 0-1.1 2.6-1.9 5.8-1.9s5.8.9 5.8 1.9c.1 1-2.5 1.9-5.8 1.9z"/></g><g><path fill="#B3B3B3" d="M80.5 270.3s-8.5-1.2-9.9 1.8c-1 2.3-1.3 3 1.5 3.5s.5 2.1 2 2.8c1.6.6 7.1-5.9 6.4-8.1z"/><path fill="gray" d="M77.5 272.9s-3.4-1.2-4.4-.6-1.2.7-.1 1.9c1.1 1.2 1.3 1.9 1.6 2.3.3.4 2.6-.9 2.9-3.6z"/><path fill="#B3B3B3" d="M98.1 272.4s8.5-1.2 9.9 1.8c1 2.3 1.3 3-1.5 3.5s-.5 2.1-2 2.8c-1.5.6-7-5.9-6.4-8.1z"/><path fill="gray" d="M101.3 274.6s3.4-1.2 4.4-.6 1.2.7.1 1.9c-1.1 1.2-1.3 1.9-1.6 2.3s-2.6-.9-2.9-3.6z"/><path fill="#CCC" d="M98.1 270.4s-4.2-2.6-9.2-2.7c-5-.1-11.2 1.9-14.6 7.7-4 6.8-1 14.7.1 16.4 1.8 2.7 3.5 4.5 6.6 6.1 3.6 1.9 8.6 2.4 13.7.9 2.2-.7 5.7-3.2 6.9-4.5 1.3-1.4 4-4.6 3.7-10.7-.3-4.9-3.2-10.9-7.2-13.2z"/><path fill="gray" d="M88.4 287.4s1.5-1.1 2.2-.6.8 1.4-.3 2.1c-1.1.7-1.9.9-1.9.9s-3.2-.8-3-1.9c.2-1.1 1.7-1.8 3-.5z"/><circle fill="#4D4D4D" cx="95.1" cy="288.1" r=".3"/><circle fill="#4D4D4D" cx="94.9" cy="289.8" r=".3"/><circle fill="#4D4D4D" cx="96.9" cy="289.2" r=".3"/><circle fill="#4D4D4D" cx="81.7" cy="289.4" r=".3"/><circle fill="#4D4D4D" cx="80.5" cy="291.1" r=".3"/><circle fill="#4D4D4D" cx="79.2" cy="289.1" r=".3"/><circle fill="#4D4D4D" cx="81.4" cy="283.3" r="1.4"/><circle fill="#4D4D4D" cx="95.9" cy="283.3" r="1.4"/><path fill="#4D4D4D" d="M88.1 290s.3 3.1.1 3.4c-.1.3-2.1 1.1-3.2.7-1.1-.4-1.1-1.1-1.4-.9-.3.1.1.9.6 1.1.5.2 1.9.4 2.8.2.8-.3 1.3-.8 1.4-.7.1.1 1.8 1 3.2.9s2-1 2.3-1.2c.3-.2.3-.4-.1-.6-.4-.2-1.3 1.2-2.3 1.2s-2.4-.5-2.6-.9c-.2-.4-.3-2.8-.3-3.3.1-.5-.5-.5-.5.1z"/><path fill="#999" d="M74.2 282.2c1.8-.3 3.4-.9 2.4-1.3-.9-.3-2.2-1-3.9-1.8-.1.6-.3 1.2-.4 1.9-.1.5-.2 1-.2 1.5.8-.1 1.5-.2 2.1-.3zM103.9 286.4c.5.1.9.2 1.2.3 0-.6.1-1.2.1-2-1.3.3-2.1.6-3.1.6-.4.1-.3.5 1.8 1.1zM102.6 290.5c.6.3 1 .6 1.4.8.2-.7.5-1.5.8-2.4-1 0-3.4-.1-4-.2-.6-.2-.6.4 1.8 1.8zM73.4 288.1c1.6-.3 4.2-2 4.6-2.7.4-.7-.1-.7-1.8-.5-1.3.2-3.1-.1-3.8-.2.1 1.1.3 2.4.5 3.6.1-.1.3-.2.5-.2z"/></g></g><g clip-path="url(#b)"><ellipse fill="#283950" cx="529.6" cy="226.3" rx="13.3" ry="13.4"/><path fill="#FFF" d="M529.6 237.2c-6 0-10.8-4.9-10.8-10.9s4.8-10.9 10.8-10.9 10.8 4.9 10.8 10.9-4.8 10.9-10.8 10.9z"/><g fill="#283950"><path d="M530.6 216.9c0 .5-.4 1-1 1-.5 0-1-.4-1-1s.4-1 1-1 1 .5 1 1zM530.6 235.7c0 .5-.4 1-1 1-.5 0-1-.4-1-1 0-.5.4-1 1-1s1 .4 1 1zM538.9 227.3c-.5 0-1-.4-1-1s.4-1 1-1c.5 0 1 .4 1 1 0 .5-.4 1-1 1zM520.3 227.3c-.5 0-1-.4-1-1s.4-1 1-1c.5 0 1 .4 1 1 0 .5-.4 1-1 1z"/><g><path d="M525.6 217.8c.2.3.1.8-.3.9-.3.2-.8.1-.9-.3-.2-.3-.1-.8.3-.9.3-.1.7 0 .9.3zM534.9 234.1c.2.3.1.8-.3.9-.3.2-.8.1-.9-.3-.2-.3-.1-.8.3-.9.3-.2.7-.1.9.3zM521.9 221c.3.2.4.6.3.9-.2.3-.6.4-.9.3-.3-.2-.4-.6-.2-.9 0-.4.5-.5.8-.3zM538 230.4c.3.2.4.6.3.9-.2.3-.6.4-.9.3-.3-.2-.4-.6-.3-.9.2-.4.6-.5.9-.3zM533.7 217.8c-.2.3-.1.8.3.9.3.2.7.1.9-.3.2-.3.1-.8-.3-.9-.3-.1-.7 0-.9.3zM524.4 234.1c-.2.3-.1.8.3.9.3.2.7.1.9-.3.2-.3.1-.8-.3-.9-.3-.2-.7-.1-.9.3zM537.3 221c-.3.2-.4.6-.3.9.2.3.6.4.9.3.3-.2.4-.6.2-.9 0-.4-.4-.5-.8-.3zM521.2 230.4c-.3.2-.4.6-.2.9s.6.4.9.3c.3-.2.4-.6.3-.9-.2-.4-.7-.5-1-.3z"/></g></g><path fill="#002F2F" d="M529.7 226.5l-.2-.3s5.2-3.6 6.7-3.8c.2 0 .3.2.2.3-1 1.1-6.7 3.8-6.7 3.8z"/><path fill="#002F2F" d="M530.5 226.3c0 .5-.4.9-.9.9s-.9-.4-.9-.9.4-.9.9-.9.9.4.9.9z"/><path fill="#6F6F70" d="M527.8 312.8h1.8V374h-1.8z"/><path fill="#9E9E9F" d="M547.4 312.8c-2.4-2.9-9.9-5.1-18.7-5.1-8.8 0-16.3 2.1-18.7 5.1h-.8v2c0 3.9 8.7 7.1 19.5 7.1s19.5-3.2 19.5-7.1v-2h-.8z"/><ellipse fill="#FFF" cx="528.7" cy="312.8" rx="19.5" ry="7.1"/><path fill="#6F6F70" d="M528.7 364.5s-11.9.3-11.9 9.4h23.8c0-9.1-11.9-9.4-11.9-9.4z"/><path fill="#283950" d="M477.5 293.3h-20.9H432.5c-15.9 0-9.2 25.4-9.2 25.4l7.9 15.6 23.8-2.7 23.8 2.7 7.9-15.6c0-.1 6.7-25.4-9.2-25.4z"/><path fill="#888" d="M425.2 366.4l-5.5 7.5h5.5s1.4 0 3.6-3.7c2.3-3.7 3.3-5.7 3.3-5.7l-6.9 1.9zM484.8 366.4l5.5 7.5h-5.5s-1.4 0-3.6-3.7c-2.3-3.7-3.3-5.7-3.3-5.7l6.9 1.9z"/><path fill="#2187C5" d="M414.5 324.4s6.9-10 16.3-6.1c9.1 5.5 4.2 15.3 0 19.2l-16.3-13.1zM495.5 324.4s-6.9-10-16.3-6.1c-9.1 5.5-4.2 15.3 0 19.2l16.3-13.1z"/><path fill="#283950" d="M492.2 321.9c-14 0-13.4 12.4-13.4 12.4l.1 15.3h-47.8l.1-15.3s.6-12.4-13.4-12.4c-12.4 6.2 2.3 19.4 2.3 19.4v25.1h69.8v-25.1s14.7-13.2 2.3-19.4z"/><path fill="#D7D7D9" d="M431.2 337.5l-.1 12h47.8l-.1-12"/><path fill="#FFF" d="M456.5 327.5c-20.7 0-20.2 4.5-25.3 9.7v.4h47.6c0-.1-1.6-10.1-22.3-10.1zM288 340c-10.3 2.5-9.3 10.1-8.9 11.9l-1.1 1.5v-11l1.6-2.2c2-.3 8.1-1.9 7.2-10.9-9.2 2.2-8.3 9-7.9 10.6l-.9 1.3v-9.9l1.1-1.5c1.5-.2 6.1-1.4 5.5-8.3-7 1.7-6.3 6.8-6 8.1l-.6.8v-7.2c.9-.9 3.3-3.9-.3-8-3.6 4.2-1.3 7.1-.3 8v10.6l-.6-.9c.3-1.3 1-6.4-6-8.1-.7 6.9 4 8.1 5.5 8.3l1.1 1.5v9.9l-.9-1.3c.4-1.7 1.3-8.4-7.9-10.6-.9 9 5.2 10.6 7.2 10.9l1.6 2.2v11.2l-1.1-1.6c.4-1.9 1.4-9.4-8.9-11.9-1 10.4 6.2 12 8.2 12.3l1.7 2.3v6.6h.7v-10l1.7-2.3c2-.2 9.3-1.9 8.3-12.3z"/><path fill="#283950" d="M287.2 360.4h-19v1.7h.4l.7 7.8c0 2.3 2.4 4.1 5.3 4.1h6.2c2.9 0 5.3-1.8 5.3-4.1l.7-7.8h.4v-1.7z"/><path fill="#FFF9E8" d="M299.2 276.2h101.3v95.6H299.2z"/><g fill="#C5BB9C"><path d="M302.8 276.8h45.5V306h-45.5zM351.6 276.8h45.5V306h-45.5z"/></g><g fill="#C5BB9C"><path d="M302.8 309.7h45.5v29.2h-45.5zM351.6 309.7h45.5v29.2h-45.5z"/></g><g fill="#C5BB9C"><path d="M302.8 342.6h45.5v29.2h-45.5zM351.6 342.6h45.5v29.2h-45.5z"/></g><path fill="#283950" d="M297.5 275.1h104.9v2.1H297.5z"/><path fill="#FFF9E8" d="M297.5 371.8h104.9v2.1H297.5z"/><path fill="#9C8A78" d="M397.1 284.3h-37.4v21.6h-8.1v-28.7h45.5M348.2 284.3h-37.3v21.6h-8.1v-28.7h45.4M397.1 317h-37.4v21.6h-8.1v-28.7h45.5M348.2 317h-37.3v21.6h-8.1v-28.7h45.4M397 349.9h-37.4v21.6h-8.1v-28.7H397M348.2 349.9h-37.3v21.6h-8.1v-28.7h45.4"/><path fill="#0A96FF" d="M393.49 305.912l-.02-17.5 3.6-.004.02 17.5z"/><path fill="#403D3C" d="M394.53 301.826l-.01-12.3 1.5-.002.01 12.3zM394.5 302.8h1.5v.5h-1.5zM394.5 304.1h1.5v.5h-1.5z"/><path fill="#0A96FF" d="M389.5 306.012l-.02-17.5 3.6-.004.02 17.5z"/><path fill="#403D3C" d="M390.54 301.826l-.01-12.3h1.5l.01 12.3zM390.6 302.8h1.5v.5h-1.5zM390.6 304.1h1.5v.5h-1.5z"/><g><path fill="#0A96FF" d="M385.607 305.912l-.02-17.5 3.6-.004.02 17.5z"/><path fill="#403D3C" d="M386.648 301.826l-.012-12.3 1.5-.002.012 12.3zM386.6 302.8h1.5v.5h-1.5zM386.6 304.1h1.5v.5h-1.5z"/></g><g><path fill="#0A96FF" d="M381.592 306.012l-.017-17.5 3.6-.003.017 17.5z"/><path fill="#403D3C" d="M382.637 301.826l-.01-12.3h1.5l.01 12.3zM382.7 302.8h1.5v.5h-1.5zM382.7 304.1h1.5v.5h-1.5z"/></g><g><path fill="#0A96FF" d="M377.685 305.912l-.02-17.5 3.6-.004.02 17.5z"/><path fill="#403D3C" d="M378.725 301.826l-.01-12.3 1.5-.002.01 12.3zM378.7 302.8h1.5v.5h-1.5zM378.7 304.1h1.5v.5h-1.5z"/></g><g><path fill="#0A96FF" d="M373.787 305.912l-.015-17.5 3.6-.003.015 17.5z"/><path fill="#403D3C" d="M374.838 301.826l-.012-12.3 1.5-.002.012 12.3zM374.8 302.8h1.5v.5h-1.5zM374.8 304.1h1.5v.5h-1.5z"/></g><g><path fill="#0A96FF" d="M369.782 306.012l-.017-17.5 3.6-.003.017 17.5z"/><path fill="#403D3C" d="M370.923 301.726l-.01-12.3 1.5-.002.01 12.3zM370.9 302.8h1.5v.5h-1.5zM370.9 304.1h1.5v.5h-1.5z"/></g><g><path fill="#0A96FF" d="M361.122 304.896l5.12-16.733 3.443 1.053-5.12 16.734z"/><path fill="#403D3C" d="M363.407 301.173l3.6-11.76 1.434.438-3.6 11.763zM363.02 302.634l.15-.477 1.432.444-.15.48zM362.636 303.87l.146-.477 1.435.438-.146.48z"/></g><g><path fill="#0A96FF" d="M344.64 371.766l-.018-17.5 3.6-.004.02 17.5z"/><path fill="#403D3C" d="M345.582 367.48l-.012-12.3 1.5-.002.012 12.3zM345.6 368.5h1.5v.5h-1.5zM345.6 369.8h1.5v.5h-1.5z"/><path fill="#0A96FF" d="M340.65 371.666l-.02-17.5 3.6-.004.02 17.5z"/><path fill="#403D3C" d="M341.592 367.58l-.01-12.3 1.5-.002.01 12.3zM341.7 368.5h1.5v.5h-1.5zM341.7 369.8h1.5v.5h-1.5z"/><path fill="#0A96FF" d="M336.758 371.666l-.02-17.5 3.6-.004.02 17.5z"/><path fill="#403D3C" d="M337.7 367.48l-.013-12.3 1.5-.002.012 12.3zM337.7 368.5h1.5v.5h-1.5zM337.7 369.8h1.5v.5h-1.5z"/><g><path fill="#0A96FF" d="M332.744 371.665l-.018-17.5 3.6-.003.018 17.5z"/><path fill="#403D3C" d="M333.688 367.58l-.01-12.3 1.5-.002.01 12.3zM333.8 368.5h1.5v.5h-1.5zM333.8 369.8h1.5v.5h-1.5z"/></g><g><path fill="#0A96FF" d="M328.836 371.766l-.02-17.5 3.6-.004.02 17.5z"/><path fill="#403D3C" d="M329.776 367.48l-.01-12.3 1.5-.002.01 12.3zM329.8 368.5h1.5v.5h-1.5zM329.8 369.8h1.5v.5h-1.5z"/></g><g><path fill="#0A96FF" d="M324.94 371.765l-.016-17.5 3.6-.003.015 17.5z"/><path fill="#403D3C" d="M325.888 367.48l-.01-12.3 1.5-.002.01 12.3zM325.9 368.5h1.5v.5h-1.5zM325.9 369.8h1.5v.5h-1.5z"/></g><g><path fill="#0A96FF" d="M320.933 371.665l-.017-17.5 3.6-.003.017 17.5z"/><path fill="#403D3C" d="M321.974 367.58l-.01-12.3 1.5-.002.01 12.3zM322 368.5h1.5v.5H322zM322 369.8h1.5v.5H322z"/></g><g><path fill="#0A96FF" d="M317 371.692l-.017-17.5 3.6-.004.017 17.5z"/><path fill="#403D3C" d="M318.046 367.605l-.012-12.3h1.5l.012 12.3zM318.1 368.5h1.5v.5h-1.5zM318.1 369.8h1.5v.5h-1.5z"/></g><g><path fill="#0A96FF" d="M313.15 371.692l-.017-17.5 3.6-.004.017 17.5z"/><path fill="#403D3C" d="M314.196 367.605l-.012-12.3h1.5l.012 12.3zM314.2 368.5h1.5v.5h-1.5zM314.2 369.8h1.5v.5h-1.5z"/></g></g><g><ellipse fill="#34B57B" cx="374.7" cy="262.8" rx="6.8" ry="7.2"/><path fill="#D2B274" d="M383.5 266c0 .2-.2.4-.5.4h-16.6c-.2 0-.4-.2-.4-.4v-2.3c0-.2.2-.5.4-.5h16.7c.2 0 .5.2.5.5v2.3h-.1z"/><path fill="#F2DBAC" d="M380.8 275.2h-12.2l-1.1-8.7H382"/><path fill="#D1BD95" d="M367.5 266.5l14.1 2.8.4-2.8"/><path fill="#FFF" d="M374.2 256.5c-.4.4-.8.7-1.2 1.1-.2.1.1.6.3.4.4-.4.8-.7 1.2-1.1.2-.1-.1-.6-.3-.4zM377.2 256.5c-.4.4-.8.7-1.2 1.1-.2.1.1.6.3.4.4-.4.8-.7 1.2-1.1.2-.1-.1-.6-.3-.4zM371.5 258.8c-.4.4-.8.7-1.2 1.1-.2.1.1.6.3.4.4-.4.8-.7 1.2-1.1.2-.1-.1-.6-.3-.4zM370.3 261.1c-.4.4-.8.7-1.2 1.1-.2.1.1.6.3.4.4-.4.8-.7 1.2-1.1.2-.1-.1-.6-.3-.4zM373.4 261.1c-.4.4-.8.7-1.2 1.1-.2.1.1.6.3.4.4-.4.8-.7 1.2-1.1.2-.1-.1-.6-.3-.4zM376.6 261.1c-.4.4-.8.7-1.2 1.1-.2.1.1.6.3.4.4-.4.8-.7 1.2-1.1.2-.1-.1-.6-.3-.4zM379.7 261.1c-.4.4-.8.7-1.2 1.1-.2.1.1.6.3.4.4-.4.8-.7 1.2-1.1.2-.1-.1-.6-.3-.4zM374.9 258.8c-.4.4-.8.7-1.2 1.1-.2.1.1.6.3.4.4-.4.8-.7 1.2-1.1.2-.1-.1-.6-.3-.4zM378.2 258.8c-.4.4-.8.7-1.2 1.1-.2.1.1.6.3.4.4-.4.8-.7 1.2-1.1.2-.1-.1-.6-.3-.4z"/></g><g><path fill="#283950" d="M345.3 270.6c-8.6 0-15.7-6.8-15.7-15.3 0-4.1 1.6-7.9 4.6-10.8l1.2 1.2c-2.6 2.6-4.1 6-4.1 9.6 0 7.5 6.3 13.6 14 13.6 3.6 0 7.1-1.4 9.7-3.8l1.1 1.2c-2.9 2.8-6.7 4.3-10.8 4.3z"/><path fill="#283950" d="M344.2 269.8h2.3v4.1h-2.3z"/><path fill="#283950" d="M345.3 272s-9.2.4-11.7 3.1H357c-2.5-2.7-11.7-3.1-11.7-3.1zM358.4 267.2c-.1 0-.3 0-.4.1l-24.6-24.6c0-.1.1-.2.1-.4 0-.6-.5-1.2-1.2-1.2-.6 0-1.2.5-1.2 1.2 0 .6.5 1.2 1.2 1.2.1 0 .3 0 .4-.1l24.6 24.6c0 .1-.1.2-.1.4 0 .6.5 1.2 1.2 1.2.6 0 1.2-.5 1.2-1.2-.1-.7-.6-1.2-1.2-1.2z"/><g><path fill="#253F54" d="M339.3 248.5v.3l3.9 3.9c-.3-2 .1-6.2 2.1-6.8 1-1.1 1.5 1.3 3.3.5.8-.6 1.5-1 2.2-1.2-1.6-.9-3.5-1.4-5.5-1.4-.6 0-1.2.1-1.7.2.1.1.2.3.3.5.2.9-.4 1.4-1.1 2.1-.9.9-2.3 1.5-2.3 0 0-.4-1.7.1-1-1 0-.1.1-.2.2-.3-.8.5-1.6 1-2.3 1.7l.6.6c.6 0 1.2.4 1.3.9z"/><path fill="#2F516C" d="M338.6 264.3c-.3-.1-.5-.1-.8-.2 1.5 1.3 3.2 2.2 5.2 2.6l-.9-1.2c-.7-.9-2.4-.9-3.5-1.2z"/><path fill="#253F54" d="M356.9 255c-.3-.4-.7-.7-1.3-.8-.1.5-.1 1-.5 1.4-1.3-.2-2.3-.8-2.9-2-.5.7-.9 1.5-1.3 2.2l.3.3c0 .6-.1 1.1-.3 1.6.1 0 .3-.1.4-.1h.1c0 .3-.4.8-.8.5-.1.2-.3.5-.5.7.4.6.8 1.2 1 1.8l2.6 2.6c1.9-2.1 3.1-4.8 3.1-7.9.1-.1.1-.2.1-.3zm-5 1.1c0-.2.2-.3.4-.4l-.1.1c.1-.2.3-.3.6-.2-.1.4-.6.6-.9.5zM345.7 252c-.8-.9-1.8-.7-1.2 0 .7.9 3.6 1.2 3.6.3-.1-.9-1.4-.6-2.4-.3z"/><path fill="#2F516C" d="M351.4 261.2c-.6.9-1 0-1.4-.2 1.5 1.2-.9 4.9-1.7 4.8-.3-.2-.8-2.8-1.1-3.5-.1-.6-1.1-3.7-1.4-4-1.3-.1-5.8-2.2-2.9-4.7.1-.1.3-.1.4-.1-.1-.2-.1-.5-.2-.8l-3.8-3.9c-.1.3-.5.4-.6.7-.1.2.1.6.1.9s-.1.6-.2.9c-.1.4.1.9 0 1.3-.3 1.2-1.4.7-1.9 0-.4-.6-.5-1-1.3-.7-.6.2-.8.4-1.2 0-.2.7-.4 1.4-.4 2.1.6-.2 1.3-.2 1.7-.2 0 .7-.7 1-.9 1.7-.1.5-.1 1.5.6 1.3.9-.2-.1-1.5 1-1.8.7-.2 2.4.7 2.2 1.4-.2.7-.6.6-.3 1.4.1.2.3.3.3.5 0 .3-.2.3-.2.6-.1.5.1.4.2.9.1.7-.3.4-.9.8-1.4.9.9 1.1 1.5 1.1.9 0 1.8-.3 2.7-.3.8-.1 2.8 0 3.3.8.4.6-.2 1.3-.1 2 0 .5.4.9.6 1.3.3.6.1.6.2 1.2v.2c3.1-.1 6-1.5 8-3.6l-2.6-2.6c.1.1.2.3.3.5zm.2 2.7c-.2.5-.4.6-.6.6-.1-.1-.1-.5 0-1s.4-.8.5-.8c.2.1.2.7.1 1.2z"/><path fill="#198FD8" d="M340.5 246.5c-.1 1.5 1.4.9 2.3 0 .7-.7 1.3-1.2 1.1-2.1 0-.2-.1-.3-.3-.5-1.4.2-2.7.7-3.9 1.3-.1.1-.1.2-.2.3-.7 1.1 1 .6 1 1z"/><path fill="#0A96FF" d="M343.4 253.5c-.1 0-.3.1-.4.1-2.9 2.5 1.6 4.7 2.9 4.7.3.3 1.3 3.4 1.4 4 .3.7.8 3.3 1.1 3.5.8.1 3.2-3.7 1.7-4.8.4.2.8 1.1 1.4.2-.1-.2-.2-.4-.2-.6l-8-7.9c-.1.3 0 .6.1.8zM351 263.5c-.2.5-.2.9 0 1 .1.1.4-.1.6-.6.1-.5.1-1.1 0-1.1-.2-.1-.4.2-.6.7z"/><path fill="#198FD8" d="M350.6 258.1c.4.2.7-.2.8-.5h-.1c-.1 0-.2 0-.4.1-.1.1-.2.2-.3.4z"/><path fill="#198FD8" d="M350.8 245.2c-.7.2-1.4.6-2.2 1.2-1.8.8-2.3-1.6-3.3-.5-2 .5-2.4 4.7-2.1 6.8l8 7.9c-.3-.7-.6-1.3-1-1.8.2-.2.3-.5.5-.7.1-.1.2-.3.3-.4.2-.5.3-1 .3-1.6-.1-.1-.3-.2-.3-.3.4-.7.9-1.5 1.3-2.2.6 1.2 1.6 1.9 2.9 2 .3-.4.4-.9.5-1.4.6.1 1 .4 1.3.8-.3-4.3-2.7-7.9-6.2-9.8zm-6.3 6.7c-.5-.7.5-.9 1.2 0 .9-.3 2.3-.6 2.3.3.1.9-2.8.6-3.5-.3z"/><path fill="#198FD8" d="M352.1 255.8c-.1 0-.3.1-.3.3.4.1.9 0 .9-.5-.2 0-.5 0-.6.2z"/><path fill="#0A96FF" d="M338.7 249.5c.1-.3.5-.4.6-.7l-1.3-1.3-.6-.6c-.3.3-.5.6-.8.9-1 1.2-1.8 2.6-2.3 4.1.4.4.6.2 1.2 0 .8-.3.9.2 1.3.7.5.7 1.6 1.2 1.9 0 .1-.4-.1-.9 0-1.3 0-.3.2-.6.2-.9-.1-.2-.3-.6-.2-.9z"/><path fill="#198FD8" d="M338 247.5l1.3 1.3c0-.1.1-.2 0-.3-.1-.5-.7-.9-1.3-1z"/><path fill="#0A96FF" d="M345.5 265.5c-.3-.5-.6-.8-.6-1.3 0-.6.5-1.3.1-2-.5-.8-2.5-.8-3.3-.8-.9.1-1.8.3-2.7.3-.7 0-3-.2-1.5-1.1.6-.4 1-.1.9-.8-.1-.5-.3-.4-.2-.9 0-.3.2-.3.2-.6 0-.2-.2-.3-.3-.5-.3-.8.2-.7.3-1.4.2-.7-1.4-1.5-2.2-1.4-1.1.2 0 1.5-1 1.8-.8.2-.7-.8-.6-1.3.1-.7.8-1 .9-1.7-.4-.1-1.1 0-1.7.2 0 .4-.1.8-.1 1.3 0 3.5 1.6 6.7 4.1 8.8.3.1.5.1.8.2 1.1.3 2.7.3 3.5 1.2l.9 1.2c.7.1 1.5.2 2.2.2h.5v-.2c0-.7.2-.7-.2-1.2z"/></g></g><ellipse fill="#B4B4B5" cx="454.7" cy="333.7" rx="18.8" ry="3.7"/><g><path fill="#CCC" d="M438.1 323.9s-3.1 1.1-5.6.7c-2.5-.3-7.7-3.1-8.2-7.9-.5-4.8 2.5-7.1 2.6-10.1.1-2.9-1.3-5.2-4.7-3.4-3.4 1.7-6 7.6-5.3 12.9.7 5.2 5.3 12.2 11.2 12.7s11.4-2.4 12.9-4c1.7-1.7.3-2.1-2.9-.9z"/><g fill="#999"><path d="M432.5 324.6c-.7-.1-1.5-.4-2.4-.8-.6.8-.6 3.4-.7 4.9 1.2 0 2.4-.1 3.5-.3-.2-.9-.2-2.8-.2-3.8-.1.1-.1.1-.2 0zM425 322.6c.5-.9.8-1.4 1.1-1.8-.9-1.1-1.6-2.4-1.8-3.8-.1-.1-.3-.1-.4-.1-1.5-.3-4.6.9-6.3 2 1.1 3 3.2 6.2 5.9 8.1-.1-1.3.8-3.1 1.5-4.4zM422.9 311c1.4.2 1.9.5 2.3.5.5-1.2 1.2-2.3 1.5-3.4-.5-1-5.8-2.1-7.2-2.3-1.1 1.6-1.9 3.6-2.4 5.7 1.3-.8 3.9-.7 5.8-.5z"/></g></g><path fill="#CCC" d="M445.7 297s-4.2 7.4-5.6 14c-1.4 6.6-1.1 7.8-1.4 7.2s-2.8-1.6-2.9 2.4.8 11.4 1.2 12.5c.4 1.1 7.9 1.7 9.8.6 1.8-1.1 2.3-1.9 5.4-1.1 3.1.9 7.8.5 8.7-.1.9-.6 4.9-1.1 6.2-.5 1.3.5 5.8-.3 6.2-1.1.4-.8.3-4.7 0-9s-2.8-7-3.7-7-.6-6.2-3.3-12c-2.9-6.2-4.8-7.9-4.8-7.9l-15.8 2z"/><path fill="#999" d="M436.1 331s.1-1.9 2.6-1.5c1.8.3 5 2.7 5.3 2 1.3-2.4-.4-13.7.4-14.4.7-.7 5.1-1.1 5.8 1 .7 2.1.4 11.7 1.8 12.8s6.7 2.6 6.9 0c.2-2.7-.2-10 1-11.7 1.2-1.7 5.7-7 5.6-2.2-.1 4.8-.7 11.5.1 12.2.8.7 4.1-.3 5.2-.5 1.1-.2 2.5 0 2.6-1s.5 1.7.1 2.7-6.7 2-7.6 1.6c-.9-.4-4.2-.1-5.6.5-1.4.6-6.6.9-8.3.1-1.3-.7-5.2.3-6.6.9-1.4.6-1.8.4-2.6.1-.6-.3-7.7-.8-6.7-2.6z"/><path fill="#CCC" d="M434.6 334s-.2-3 2.1-3.8c2.4-.8 5.5.9 6.3 2.1.9 1.3.8 1.9-1 2.3-1.6.4-7.3 0-7.4-.6zM466 333.1s-.4-2.9 1.5-3.5c1.9-.6 5.6-.8 6.8.6 1.2 1.4.9 3.1-.3 3.3-1.2.2-7.4.7-8-.4z"/><path fill="#999" d="M449.7 321.2s1.3-3.9 4.3-4.3 5.3 1 6.4 4.7c1.2 3.8.6 10.4-.4 11.1-1.1.6-3.8.5-7.1-.2-3.3-.8-4.4-2.3-4.4-2.3s-2.5-2.9 1.2-9z"/><path fill="#B3B3B3" d="M463.3 297.7s1 1.7 1.5 2.9c.5 1.1-2.1.9-3.9.6-1.9-.3-11.8-2.1-15.2 1.1-3.4 3.2-4.4 6.2-4.7 7.3-.3 1.1 0-1.4 1.9-6.2 1.9-4.7 2.6-6.2 2.8-6.4.2-.1 16.9-.7 17.6.7z"/><path fill="#CCC" d="M444.3 319.4s.6 10.5.6 13.2c0 2.7-.9 3.8.6 4.3s4.3.6 5-1c.8-1.6.3-3.2.1-5.5-.2-2.3.1-10.6-.2-12.1-.2-1.5-7.3-7.3-6.1 1.1zM459.5 319.3s-.2 7.6-.3 11.2c-.1 3.5-.6 4.9 0 5.6.5.8 4.5 1.1 5.6 0 1.1-1.2.4-2.9.2-6.2-.2-3.3 0-9.5.3-11.6.3-2.1.1-4.3-.5-4.2-.7 0-3.4 1-5.3 5.2z"/><g fill="#999"><path d="M461.9 303.7c-1 .4-.8 1.1 1.9 1.2 1.6.1 2.6-.2 3.3-.1-.2-.6-.5-1.3-.8-1.9-.3-.6-.5-1.1-.8-1.6 0 0-2.6 2-3.6 2.4zM466.9 311.7h1.9c-.1-.9-.3-1.8-.5-2.9-1.1.6-3.6 1.9-4.2 2-.7.2-.4.8 2.8.9zM442.4 305.6c1.5.5 4.6.4 5.3 0 .7-.4.3-.7-1.3-1.3-1.3-.5-2.6-1.6-3.2-2.1-.5 1-.9 2.2-1.4 3.4h.6zM441.9 312.3c1.8-.2 3.5-.8 2.5-1.2-.9-.4-2.1-1.1-3.8-2-.2.6-.3 1.2-.5 1.8l-.3 1.5c.7.1 1.4 0 2.1-.1z"/></g><g><path fill="#FFF2D4" d="M473.1 306.4c-.1.1-.2.1-.4.2.1-.5.2-1.4 0-1.3-1.4.8-2.9 1.5-4.4 2.2-1.6.7-3 1.3-4.5 2.2-1.2.7-6 3.7-7.2 4.6-.2.1-.4.1-.6.1-.5 0-8.2-3.6-12.9-7.6-.7-.6-3-2.5-3.3-2.3-.1 0 0 1.4 0 1.7-.1-.1-.2-.2-.4-.2-.5-.4-1.1-.7-1.7-1-.2-.1.7 2.9.7 2.9s-1.4-1.4-3.6-1.7c-.1 0 0 .8.1 1.8.5 0 1.3.2 1.6.3 1.2.3 6.6 1.9 8.9 2.9h.1c1.1.4 5.3 1.9 8.1 2.7 1.2.4 2.1.6 2.3.6.3 0 .7-.1 1.1-.2 1.8-.8 2.8-1.1 3.7-1.5 1.3-.6 2.8-1.2 4.1-1.8 1.3-.6 2.8-1.1 4.1-1.7 1.1-.5 2.7-.9 4-1.5.4-.2.9-.4 1.3-.5 0-.5 0-1.1-.1-1.5.3 0-.2.2-1 .6z"/><path fill="#4F4287" d="M458.1 338.5c.1 0 .1 0 0 0 .1 0 .1 0 0 0z"/><path fill="#0A8CDD" d="M457.7 323.4c0-1-.2-5.3-.2-6.3 0-.9-.2-2.9-.2-2.9-.4.1-.8.2-1.1.2-.2 0-1.1-.2-2.3-.6.4.5.4 5.5.4 8.2-.1 1.6 0 3.5.1 5.1.1 2.2 0 4 .1 6.2.1 1.8-.1 3.6.4 5.3-1.7-.4-3.7-1.1-5.6-1.7 2.7.9 5.8 2 7.5 2 .3 0 .7-.1 1.2-.3-.2-2.2-.1-3.8-.3-5.6-.1-2.3.1-5.9 0-9.6z"/><path fill="#4F4287" d="M458.7 338.3c.1 0 .1 0 .2-.1-.1.1-.2.1-.2.1zM458 338.5h0zM458.2 338.5zM449.3 336.8c-.1 0-.2-.1-.3-.1.1.1.2.1.3.1zM458.5 338.4s.1 0 .1-.1c0 .1-.1.1-.1.1zM458.6 338.4c0-.1 0-.1 0 0 0-.1 0-.1 0 0zM458.3 338.5h.1c0-.1-.1 0-.1 0zM458.4 338.4zM466.8 335c-2.2 1-5.1 2.2-7.3 3.1 2.2-.9 5.1-2.2 7.3-3.1zM459.5 338c-.1 0-.2.1-.3.1.1 0 .2 0 .3-.1zM467.8 334.5c-.1 0-.2.1-.2.1.1 0 .2-.1.2-.1zM467.5 334.6c-.2.1-.5.2-.7.3.2-.1.5-.2.7-.3zM459.2 338.2c-.1 0-.2.1-.3.1.1-.1.2-.1.3-.1zM468.2 334.4c-.1 0-.1.1-.2.1 0-.1.1-.1.2-.1zM468.8 334.1c-.1 0-.2.1-.3.1.2 0 .3-.1.3-.1zM447.8 336.3s-.1 0 0 0c-.1 0 0 0 0 0zM468.5 334.2c-.1 0-.1.1-.2.1 0 0 .1 0 .2-.1zM448.2 336.5zM448.7 336.6h-.1.1zM445.8 311.1h-.1.1z"/><path fill="#0995FF" d="M454.4 327c0-1.6-.2-3.5-.1-5.1 0-2.7 0-7.6-.4-8.2-2.7-.8-7-2.3-8.1-2.7h-.1c-2.3-1-7.7-2.5-8.9-2.9-.4-.1-1.1-.3-1.6-.3-.3 0-.5 0-.5.1 0 1.7.4 4.2.4 5.5.1 3.6.4 6 .8 9.1.4 3.2.6 5.3 1 9.2.1.7 7.4 3.4 10.5 4.3.1 0 .2.1.4.1h.1c.1 0 .2.1.4.1.1 0 .2.1.4.1h.1c.1 0 .2.1.3.1 1.9.6 4.1 1.4 5.9 1.8-.5-1.7-.3-3.6-.4-5.3-.3-1.8-.2-3.7-.2-5.9zM475.6 324.4c-.4-5.8-.2-7.7-.3-12.4 0-.7.2-3.4.1-4.8 0-.2-.5-.2-1 0-.5.1-1 .3-1.3.5-1.3.6-2.9 1-4 1.5-1.3.6-2.8 1-4.1 1.7-1.3.6-2.8 1.2-4.1 1.8-.9.4-1.9.8-3.7 1.5 0 0 .2 2 .2 2.9 0 1 .2 5.3.2 6.3 0 3.7-.1 7.3 0 9.5.1 1.8.1 3.4.3 5.6.3-.1.5-.2.8-.3.1 0 .2-.1.3-.1.1 0 .2-.1.3-.1 2.2-.8 5.1-2.1 7.3-3.1.3-.1.5-.2.7-.3h.1c.1 0 .2-.1.2-.1h.1c.1 0 .1-.1.2-.1h.1c.1 0 .1-.1.2-.1h.1c.1 0 .2-.1.3-.1 2-.8 3.6-1.6 5.8-2.3 1.2-.4 1.1-.5 1-1.6.2-1.5.3-4.6.2-5.9z"/></g><g><linearGradient id="y" gradientUnits="userSpaceOnUse" x1="467.111" y1="181.056" x2="467.111" y2="129.817" gradientTransform="matrix(1 0 0 -1 0 477.838)"><stop offset=".258" stop-color="#F5F5F5"/><stop offset=".489" stop-color="#EBEBEA"/><stop offset=".889" stop-color="#CFCFCE"/><stop offset="1" stop-color="#C6C6C5"/></linearGradient><path fill="url(#y)" d="M465.2 309.8c.6.3 1.5 0 1.8-.8.1-.4-.1-.7-.2-.8-.6-.5-1.3.5-1.7.5-.2 0-.5-.3-.5-.5.2-3.5 4.4-2.4 5.3.4.2.8 0 2.3-1.1 3.2-.5.4-1.9 1.2-2.4 1.7-1.1.9-1.3 3 .2 4.3.6.4.7-.3.5-.5-1.8-2 .2-3.9.8-4.3.6-.3 1.1-.8 1.4-1.2 1.1-1.3 1.2-3.3.3-4.7-1-1.6-2.9-1.9-4.5-1-1.3.8-1.5 3 .1 3.7z"/><linearGradient id="z" gradientUnits="userSpaceOnUse" x1="470.676" y1="181.056" x2="470.676" y2="129.817" gradientTransform="matrix(1 0 0 -1 0 477.838)"><stop offset=".258" stop-color="#F5F5F5"/><stop offset=".489" stop-color="#EBEBEA"/><stop offset=".889" stop-color="#CFCFCE"/><stop offset="1" stop-color="#C6C6C5"/></linearGradient><path fill="url(#z)" d="M472.8 313.8c-.6-.6-1.3-.9-2-.9-.6 0-1.2.2-1.7.7-.7.6-1.1 1.6-1.1 2.5 0 .4.1.9.3 1.3.2.4.5.8.9 1.2.2.2.7.8.7 1.4 0 .4-.2.9-.9 1.3-.1.1-.2.2-.2.4 0 .1 0 .2.1.2.1.1.1.1.3.1h.2c.9-.4 1.1-1.2 1.1-1.9 0-.5-.1-.9-.3-1.2-.3-.5-1-1.1-1.3-1.6-.3-.4-.4-.9-.4-1.4s.1-.9.3-1.1c.5-.8 1.5-1.3 2.3-1.3.9 0 1.6.5 1.6 1.5 0 .2 0 .4-.1.6-.1.2-.2.2-.3.2 0 0-.1 0-.1-.1-.2-.2-.4-.6-.9-.6h-.2c-.1 0-.2.1-.3.2s-.1.3-.1.4c.1.6.5 1.1 1.1 1.1h.3c.9-.1 1.3-.9 1.3-1.7-.2-.5-.3-1-.6-1.3zm-.9 2.8z"/><linearGradient id="A" gradientUnits="userSpaceOnUse" x1="474.067" y1="149.523" x2="477.226" y2="149.523" gradientTransform="matrix(1 0 0 -1 0 477.838)"><stop offset=".258" stop-color="#F5F5F5"/><stop offset=".489" stop-color="#EBEBEA"/><stop offset=".889" stop-color="#CFCFCE"/><stop offset="1" stop-color="#C6C6C5"/></linearGradient><path fill="url(#A)" d="M474.7 325.4l-1.4.1v1.7h1.5c.6 0 1.1.6 1.1.9v.1c0 1-1 1.3-1.6 1.3h-2.1v1.8h1.5c2.6 0 4-1.4 4-3.3v-.1c0-1.6-1.1-2.6-3-2.5z"/><linearGradient id="B" gradientUnits="userSpaceOnUse" x1="475.174" y1="151.771" x2="477.207" y2="150.355" gradientTransform="matrix(1 0 0 -1 0 477.838)"><stop offset="0" stop-color="#FFF"/><stop offset="1" stop-color="#E3E3E2"/></linearGradient><path fill="url(#B)" d="M474.5 326.6s2.4-.6 3.1 1.7c0-1.5-1-3-3.3-2.7.1.3.2 1 .2 1z"/><linearGradient id="C" gradientUnits="userSpaceOnUse" x1="474.659" y1="148.958" x2="474.713" y2="145.582" gradientTransform="matrix(1 0 0 -1 0 477.838)"><stop offset="0" stop-color="#FFF"/><stop offset="1" stop-color="#F5F5F5"/></linearGradient><path fill="url(#C)" d="M473.4 329.8s2.3.2 2.7-1.4c.1.9-.1 2.5-2.8 2.5-.1-.4.1-1.1.1-1.1z"/><linearGradient id="D" gradientUnits="userSpaceOnUse" x1="473.127" y1="153.37" x2="462.113" y2="153.37" gradientTransform="matrix(1 0 0 -1 0 477.838)"><stop offset="0" stop-color="#C6C6C5"/><stop offset=".319" stop-color="#ECECEC"/><stop offset=".676" stop-color="#ECECEC"/><stop offset="1" stop-color="#CBCBCB"/></linearGradient><ellipse fill="url(#D)" cx="468.5" cy="324.5" rx="6.2" ry="2"/><radialGradient id="E" cx="465.79" cy="215.528" r="8.909" gradientTransform="matrix(1 0 0 -1.3426 0 611.62)" gradientUnits="userSpaceOnUse"><stop offset="0" stop-color="#843D14"/><stop offset=".879" stop-color="#422011"/></radialGradient><path fill="url(#E)" d="M468.5 327.4c2.8 0 6-1 6-2s-3.1-2-6-2c-2.8 0-6 1-6 2 .1 1 3.2 2 6 2z"/><radialGradient id="F" cx="505.245" cy="178.471" r="5.607" gradientTransform="matrix(.9623 0 0 -1.2288 -19.466 545.54)" gradientUnits="userSpaceOnUse"><stop offset="0" stop-color="#843D14"/><stop offset=".879" stop-color="#AC8662"/></radialGradient><path fill="url(#F)" d="M466.2 325.1c0-.5.7-1 1.8-1.3-1.9 0-4.6.7-4.6 1.5s2.2 1.7 4.9 1.7h1.2c-1.9-.4-3.3-1.2-3.3-1.9z"/><linearGradient id="G" gradientUnits="userSpaceOnUse" x1="459.5" y1="164.456" x2="473.391" y2="138.572" gradientTransform="matrix(1 0 0 -1 0 477.838)"><stop offset=".258" stop-color="#F5F5F5"/><stop offset=".489" stop-color="#EBEBEA"/><stop offset=".889" stop-color="#CFCFCE"/><stop offset="1" stop-color="#C6C6C5"/></linearGradient><path fill="url(#G)" d="M474.7 324.5c0 1.1-2.8 2-6.2 2-3.2 0-5.9-.8-6.1-1.8v10.9c0 3.5 12.3 3.7 12.3 0v-11.1z"/><linearGradient id="H" gradientUnits="userSpaceOnUse" x1="-1581.091" y1="143.386" x2="-1582.299" y2="150.789" gradientTransform="rotate(180 -553.697 238.92)"><stop offset="0" stop-color="#F5F5F5"/><stop offset="1" stop-color="#ECECEC"/></linearGradient><path fill="url(#H)" d="M474.1 335.3c0 .8-.6 1.5-1.1 1.9 1.5-.4 1.6-1.6 1.6-2.1V325l-.4.3-.1 10z"/><linearGradient id="I" gradientUnits="userSpaceOnUse" x1="466.457" y1="145.461" x2="463.286" y2="146.886" gradientTransform="matrix(1 0 0 -1 0 477.838)"><stop offset="0" stop-color="#E3E3E2"/><stop offset=".636" stop-color="#EDEDED"/><stop offset="1" stop-color="#F5F5F5"/></linearGradient><path fill="url(#I)" d="M465.4 335.6v-9.3c-1.1-.1-1.9-.5-2.3-.8v9.8s2 2.5 4.8 2.5c-1.7-.5-2.5-1.4-2.5-2.2z"/><path fill="#FFF" d="M468.5 322.5c-3.4 0-6.2.9-6.2 2.1 0 1.3 2.7 2.3 6.2 2.3s6.2-1 6.2-2.3c0-1.2-2.7-2.1-6.2-2.1zm0 4c-3.2 0-5.8-.9-5.8-1.9 0-1.1 2.6-1.9 5.8-1.9 3.2 0 5.8.9 5.8 1.9.1 1-2.5 1.9-5.8 1.9z"/></g><g><path fill="#B3B3B3" d="M446.8 270.3s-8.5-1.2-9.9 1.8c-1 2.3-1.3 3 1.5 3.5s.5 2.1 2 2.8c1.6.6 7.1-5.9 6.4-8.1z"/><path fill="gray" d="M443.8 272.9s-3.4-1.2-4.4-.6-1.2.7-.1 1.9c1.1 1.2 1.3 1.9 1.6 2.3s2.6-.9 2.9-3.6z"/><path fill="#B3B3B3" d="M464.4 272.4s8.5-1.2 9.9 1.8c1 2.3 1.3 3-1.5 3.5s-.5 2.1-2 2.8c-1.5.6-7-5.9-6.4-8.1z"/><path fill="gray" d="M467.6 274.6s3.4-1.2 4.4-.6 1.2.7.1 1.9c-1.1 1.2-1.3 1.9-1.6 2.3-.3.4-2.6-.9-2.9-3.6z"/><path fill="#CCC" d="M464.4 270.4s-4.2-2.6-9.2-2.7c-5-.1-11.2 1.9-14.6 7.7-4 6.8-1 14.7.1 16.4 1.8 2.7 3.5 4.5 6.6 6.1 3.6 1.9 8.6 2.4 13.7.9 2.2-.7 5.7-3.2 6.9-4.5 1.3-1.4 4-4.6 3.7-10.7-.3-4.9-3.2-10.9-7.2-13.2z"/><path fill="gray" d="M454.7 287.4s1.5-1.1 2.2-.6c.7.5.8 1.4-.3 2.1-1.1.7-1.9.9-1.9.9s-3.2-.8-3-1.9c.2-1.1 1.7-1.8 3-.5z"/><circle fill="#4D4D4D" cx="461.4" cy="288.1" r=".3"/><circle fill="#4D4D4D" cx="461.2" cy="289.8" r=".3"/><circle fill="#4D4D4D" cx="463.2" cy="289.2" r=".3"/><circle fill="#4D4D4D" cx="448" cy="289.4" r=".3"/><circle fill="#4D4D4D" cx="446.8" cy="291.1" r=".3"/><circle fill="#4D4D4D" cx="445.5" cy="289.1" r=".3"/><circle fill="#4D4D4D" cx="447.7" cy="283.3" r="1.4"/><circle fill="#4D4D4D" cx="462.2" cy="283.3" r="1.4"/><path fill="#4D4D4D" d="M454.4 290s.3 3.1.1 3.4c-.1.3-2.1 1.1-3.2.7-1.1-.4-1.1-1.1-1.4-.9-.3.1.1.9.6 1.1.5.2 1.9.4 2.8.2.8-.3 1.3-.8 1.4-.7.1.1 1.8 1 3.2.9s2-1 2.3-1.2c.3-.2.3-.4-.1-.6-.4-.2-1.3 1.2-2.3 1.2s-2.4-.5-2.6-.9-.3-2.8-.3-3.3c.1-.5-.5-.5-.5.1z"/><path fill="#999" d="M440.5 282.2c1.8-.3 3.4-.9 2.4-1.3-.9-.3-2.2-1-3.9-1.8-.1.6-.3 1.2-.4 1.9-.1.5-.2 1-.2 1.5.8-.1 1.5-.2 2.1-.3zM470.2 286.4c.5.1.9.2 1.2.3 0-.6.1-1.2.1-2-1.3.3-2.1.6-3.1.6-.4.1-.3.5 1.8 1.1zM468.9 290.5c.6.3 1 .6 1.4.8.2-.7.5-1.5.8-2.4-1 0-3.4-.1-4-.2-.6-.2-.6.4 1.8 1.8zM439.7 288.1c1.6-.3 4.2-2 4.6-2.7.4-.7-.1-.7-1.8-.5-1.3.2-3.1-.1-3.8-.2.1 1.1.3 2.4.5 3.6.1-.1.3-.2.5-.2z"/></g></g></svg>