<svg xmlns="http://www.w3.org/2000/svg" xmlns:xlink="http://www.w3.org/1999/xlink" viewBox="0 0 372 411.6"><defs><path id="a" d="M0 0h372v411.6H0z"/></defs><clipPath id="b"><use xlink:href="#a" overflow="visible"/></clipPath><g clip-path="url(#b)"><path opacity=".4" fill="#B4B4B5" d="M228 98.3H77.3V117h.9v65.3h12.4V117H228"/><path fill="#9CD0EB" d="M181.6 97h-16.3l1.9-6.3h12.5"/><path fill="#FFF" d="M163.4 97h20.1v1.7h-20.1z"/><path fill="#2D333B" d="M199.8 50.7h-52.6c-1.4 0-2.5 1.1-2.5 2.5V87h57.6V53.2c-.1-1.4-1.2-2.5-2.5-2.5z"/><path fill="#FFF" d="M199.8 86.9h-55.1v3.3c0 1.4 1.1 2.5 2.5 2.5h52.6c1.4 0 2.5-1.1 2.5-2.5v-3.3h-2.5z"/><path fill="#283950" d="M200 84.4V52.7l-53 31.7"/><path fill="#506F8C" d="M147 84.4l53-31.7h-53"/><path fill="#FCFFFF" d="M181.2 40.4h-23.7v44h31.9V48.2"/><path fill="#283950" d="M181.2 48.2h8.2l-8.2-7.8"/><path fill="#9CD0EB" d="M189.4 48.2h-8.2l8.2 7.9"/><path fill="#283950" d="M163.6 50.7h9.8v.8h-9.8z"/><path fill="#9CD0EB" d="M163.6 54.7h20.7v.5h-20.7zM163.6 57.3h20.7v.5h-20.7zM163.6 59.8h20.7v.5h-20.7zM163.6 62.3h20.7v.5h-20.7zM163.6 64.9h20.7v.5h-20.7zM163.6 67.4h20.7v.5h-20.7zM163.6 70h20.7v.5h-20.7z"/><path fill="#283950" d="M226.2 86.2l3.8-.7-4.2-23.1-3.9.7"/><path fill="#716E60" d="M221.877 63.03l-.146-.788 3.737-.693.146.786z"/><path fill="#48607A" d="M225 58.7c-.1-.3-.3-.5-.6-.5l-2.7.5c-.3.1-.5.3-.4.7l.5 2.9 3.8-.7-.6-2.9z"/><path fill="#FFFED1" d="M230 85.5l-3.8.7 1.6 2.2 1.4-.3"/><path fill="#262120" d="M229.2 88.1l-1.4.3 1 1.2"/><path fill="none" d="M245.527 89.462l-4.5-.075.146-8.8 4.5.076z"/><path fill="#B4B4B5" d="M241.2 78.4l.1-3.2-6.3-.1c-5 2.2-11.7 6.6-13.4 14.9l-.1 8.7 19.5.3.1-7.2 7.2.1.2-13.3-7.3-.2zm4.4 11.1l-4.5-.1.1-8.8 4.5.1-.1 8.8z"/><path fill="#DED9C8" d="M235.6 75.1l-13.9.2-.1 15.3c1.6-8.2 9-13.2 14-15.5z"/><g><path fill="#585959" d="M101.4 91.3h3v5.2h-3zM94.9 63.1l-.6-.8 22.1-15.8.6.8M118.022 47.793l.524.732L96.494 64.28l-.523-.734z"/><path fill="#585959" d="M106.388 54.223l1.208 1.467-.694.572-1.21-1.466zM104.16 89.714l-.863.26-7.82-25.948.863-.26zM93.8 64.9l1-.3 7.7 26-.9.3"/><path fill="#585959" d="M100.112 77.47l-1.778.67-.318-.842 1.778-.67z"/><path fill="#303030" d="M124.3 42c.6 1.1.6 2.3 0 2.6s-1.6-.3-2.2-1.4c-.6-1.1-.6-2.3 0-2.6.6-.2 1.5.4 2.2 1.4z"/><path fill="#303030" d="M130.4 47.2l-5.9 3.9-4.4-6.8 5.9-3.8"/><path fill="#283950" d="M142.1 50.4l-19.4 12.4c-3.7-5.8-2.4-13.3 3-16.7 5.3-3.4 12.7-1.6 16.4 4.3z"/><path fill="#585959" d="M117 44.7h6.2v3H117z"/><path fill="#303030" d="M92.2 95.2h21.5v4.3H92.2zM119.8 46.9c0 1-.8 1.9-1.9 1.9s-1.9-.8-1.9-1.9.8-1.9 1.9-1.9 1.9.9 1.9 1.9z"/><path fill="#585959" d="M119.1 46.9c0 .6-.5 1.1-1.2 1.1-.6 0-1.2-.5-1.2-1.1s.5-1.2 1.2-1.2c.6.1 1.2.6 1.2 1.2z"/><path fill="#303030" d="M96.8 63.9c0 1-.8 1.9-1.9 1.9S93 65 93 63.9c0-1 .8-1.9 1.9-1.9s1.9.8 1.9 1.9z"/><path fill="#585959" d="M96.2 63.9c0 .6-.5 1.2-1.2 1.2-.6 0-1.2-.5-1.2-1.2 0-.6.5-1.2 1.2-1.2s1.2.4 1.2 1.2z"/><path fill="#303030" d="M104.8 90.8c0 1-.8 1.9-1.9 1.9-1 0-1.9-.8-1.9-1.9s.8-1.9 1.9-1.9c1.1 0 1.9.8 1.9 1.9z"/><path fill="#585959" d="M104.1 90.8c0 .6-.5 1.2-1.1 1.2s-1.2-.5-1.2-1.2c0-.6.5-1.2 1.2-1.2.6-.1 1.1.4 1.1 1.2z"/></g><path fill="#283950" d="M77.3 98.3v84h5.8v-78.2h140.7v78.2h54.4V98.3"/><g><path fill="#FFF" d="M227.9 123.7h46.3l-46.3-20.4"/><path fill="#F5F1E6" d="M227.9 103.3l46.3 20.4v-20.4"/><path fill="#283950" d="M246.9 107.5h8.2v1.4h-8.2z"/></g><g><path fill="#FFF" d="M227.9 150.5h46.3L227.9 130"/><path fill="#F5F1E6" d="M227.9 130l46.3 20.5V130"/><path fill="#283950" d="M246.9 134.2h8.2v1.4h-8.2z"/></g><g><path fill="#FFF" d="M227.9 177.2h46.3l-46.3-20.4"/><path fill="#F5F1E6" d="M227.9 156.8l46.3 20.4v-20.4"/><path fill="#283950" d="M246.9 161h8.2v1.4h-8.2z"/></g><path fill="#283950" d="M216.3 107.5h-10.6v4.7c0 .8-.7 1.5-1.7 1.5h-1.9c-.9 0-1.7-.6-1.7-1.5v-4.7h-96v4.7c0 .8-.7 1.5-1.7 1.5H101c-.9 0-1.7-.6-1.7-1.5v-4.7H88.8c-.7 0-1.5.5-1.5 1.2v21.9c0 .7.6 1.2 1.5 1.2h127.4c.7 0 1.5-.6 1.5-1.2v-21.9c-.1-.7-.7-1.2-1.4-1.2z"/><g><path fill="#24ACFF" d="M116.7 140.3s0 8.3 4.6 11.3l.4 3.3s-6.3-.4-7.5-14.3c0 0 1.1-2.6 2.5-.3z"/><path fill="#3EB6FF" d="M122.1 129.8s-6.4 5.5-7.9 7.3-.8 2.8 0 3.4c.8.6 2 .3 4.8-1.9 2.4-2 3.7-2.3 3.7-2.3l-.6-6.5z"/><path fill="#56B4D1" d="M136.3 105.5h11.9c5.1 0 8.4 1 10.5 2.2 0-.1 0-.2-.1-.3-1.2-7.7-9-7.4-9-7.4h-16.9s-7.7-.3-9 7.4c-.1.4-.1.8-.2 1.2 5.6-3.3 12.8-3.1 12.8-3.1z"/><path fill="#0995FF" d="M148.3 105.5h-11.9s-7.2-.2-12.8 3.1c-1.4 8-4.2 22-2.8 28.5 1.5 6.8 3.7 8.8 8.8 8.8H153s7.4-2.1 8.8-8.8c1.4-6.6-1.7-21.5-2.9-29.3-2.2-1.2-5.5-2.3-10.6-2.3z"/><path fill="#3EB6FF" d="M137.8 172.7h6.8v8.2h-6.8z"/><path fill="#017CA4" d="M144.5 172.7c0 .5-1.6.9-3.4.9-1.9 0-3.4-.4-3.4-.9s1.6-.9 3.4-.9c1.9 0 3.4.4 3.4.9z"/><path fill="#128FDB" d="M138.5 169.8v2c0 .5 1.2.9 2.7.9 1.5 0 2.7-.4 2.7-.9v-2h-5.4z"/><ellipse fill="#017CA4" cx="141.2" cy="169.8" rx="2.7" ry=".9"/><path fill="#24ACFF" d="M167.5 140.3s0 8.3-4.6 11.3l-.4 3.3s6.3-.4 7.5-14.3c0 0-1.2-2.6-2.5-.3z"/><path fill="#3EB6FF" d="M162.1 129.8s6.4 5.5 7.9 7.3c1.5 1.8.8 2.8 0 3.4-.8.6-2 .3-4.8-1.9-2.4-2-3.7-2.3-3.7-2.3l.6-6.5z"/><path fill="#128FDB" d="M159.6 144h-35.2s-3.6 2.2-3.9 5.5c4.3 1.5 11.6 3.1 22.5 3.1 11.3 0 17.5-1.9 20.6-3.3-.4-3.3-4-5.3-4-5.3z"/><path fill="#0995FF" d="M120.5 149.5c0 .1-.1.3-.1.4 0 3.6.6 6.1 4.8 7.3 4.1 1.1 8.5 2.2 16.8 2.2s12.8-1.1 16.8-2.2c4.1-1.1 4.8-3.6 4.8-7.3 0-.2-.1-.4-.1-.6-3.1 1.5-9.2 3.3-20.6 3.3-10.8 0-18.1-1.8-22.4-3.1z"/><path fill="#3EB6FF" d="M139.3 159.3v10.3s1.2 1.2 3.6 0v-10.3c.2 0-.4-4.4-3.6 0zM163.6 186.1c1.6.7 2.9 1.2 3.9 1.8.5-1.9-2.3-3.4-9.8-5.9-8.8-3.1-16.7-1.9-16.7-1.9s-7.9-1.1-16.7 1.9c-7.6 2.6-10.4 4.2-9.7 6.1 7.6-4.2 14.6-5.6 26.5-5.6 14.4-.1 17 1.2 22.5 3.6z"/><path fill="#128FDB" d="M163.6 186.1c-5.5-2.4-8.2-3.6-22.4-3.6-11.8 0-18.9 1.5-26.5 5.6.1.3.3.6.6 1 2 2.5 4.5-.5 8.7-2 2.5-.9 9.3-3.5 15.3-1.1h3.7c5.9-2.4 12.8.3 15.3 1.1 4.3 1.6 6.8 4.5 8.7 2 .3-.4.5-.7.6-1.1-1.1-.6-2.3-1.2-4-1.9z"/><path fill="#3EB6FF" d="M139 188.1s-1.4 5.9 0 6.6c1.4.7 4.1 1.2 4.1-1 0-3.6.2-12.3-1.8-12.3-1.3 0-2.2 6.1-2.3 6.7z"/><path fill="#595858" d="M169 187.4c-.4-.2-.8-.3-1.2-.3-1.9 0-3.3 1.5-3.3 3.3 0 1.9 1.5 3.3 3.3 3.3.4 0 .9-.1 1.2-.2v-6.1z"/><circle fill="#888" cx="169" cy="191.2" r="2.8"/><circle fill="#595858" cx="169" cy="191.2" r="2.2"/><path fill="#595858" d="M112.5 187.4c.4-.2.8-.3 1.2-.3 1.9 0 3.3 1.5 3.3 3.3 0 1.9-1.5 3.3-3.3 3.3-.4 0-.9-.1-1.2-.2v-6.1z"/><circle fill="#888" cx="112.5" cy="191.2" r="2.8"/><circle fill="#595858" cx="112.5" cy="191.2" r="2.2"/><path fill="#595858" d="M138.5 194.3c.4-.2.8-.2 1.2-.2 1.9 0 3.3 1.5 3.3 3.3 0 1.9-1.5 3.3-3.3 3.3-.4 0-.9-.1-1.2-.2v-6.2z"/><path fill="#888" d="M135.7 198.1c0 1.6 1.2 2.8 2.8 2.8 1.6 0 2.8-1.2 2.8-2.8 0-1.6-1.2-2.8-2.8-2.8-1.6 0-2.8 1.2-2.8 2.8z"/><circle fill="#595858" cx="138.5" cy="198.1" r="2.2"/></g><g><ellipse fill="#283950" cx="317.4" cy="42.2" rx="19.2" ry="19.4"/><path fill="#FFF" d="M317.4 57.8c-8.6 0-15.7-7.1-15.7-15.8s7.1-15.8 15.7-15.8 15.7 7.1 15.7 15.8-7.1 15.8-15.7 15.8z"/><g fill="#283950"><path d="M318.8 28.5c0 .8-.6 1.5-1.5 1.5-.8 0-1.5-.6-1.5-1.5 0-.8.6-1.5 1.5-1.5.9.1 1.5.7 1.5 1.5zM318.8 55.8c0 .8-.6 1.5-1.5 1.5-.8 0-1.5-.6-1.5-1.5s.6-1.5 1.5-1.5 1.5.6 1.5 1.5zM330.9 43.6c-.8 0-1.5-.6-1.5-1.5s.6-1.5 1.5-1.5c.8 0 1.5.6 1.5 1.5-.1.8-.7 1.5-1.5 1.5zM303.9 43.6c-.8 0-1.5-.6-1.5-1.5s.6-1.5 1.5-1.5c.8 0 1.5.6 1.5 1.5-.1.8-.7 1.5-1.5 1.5z"/><g><path d="M311.6 29.8c.3.5.1 1.1-.4 1.4-.5.3-1 .1-1.4-.4-.3-.5-.1-1.1.4-1.4.4-.2 1.1 0 1.4.4zM325 53.4c.3.5.1 1.1-.4 1.4-.5.3-1.1.1-1.4-.4-.3-.5-.1-1.1.4-1.4s1.2 0 1.4.4zM306.2 34.5c.5.3.6.9.4 1.4-.3.5-.9.6-1.4.4-.5-.3-.6-.9-.3-1.4.2-.5.8-.7 1.3-.4zM329.5 48.1c.5.3.6.9.4 1.4-.3.5-.9.6-1.4.4-.5-.3-.6-.9-.4-1.4.4-.5 1-.7 1.4-.4zM323.3 29.8c-.3.5-.1 1.1.4 1.4.5.3 1 .1 1.4-.4.3-.5.1-1.1-.4-1.4s-1.2 0-1.4.4zM309.8 53.4c-.3.5-.1 1.1.4 1.4.5.3 1 .1 1.4-.4.3-.5.1-1.1-.4-1.4s-1.1 0-1.4.4zM328.6 34.5c-.5.3-.6.9-.4 1.4.3.5.9.6 1.4.4.5-.3.6-.9.3-1.4-.3-.5-.9-.7-1.3-.4zM305.2 48.1c-.5.3-.6.9-.4 1.4.3.5.9.6 1.4.4.5-.3.6-.9.3-1.4-.2-.5-.9-.7-1.3-.4z"/></g></g><path fill="#002F2F" d="M317.5 42.4l-.2-.4s7.6-5.2 9.7-5.5c.2 0 .4.2.2.4-1.4 1.6-9.7 5.5-9.7 5.5z"/><path fill="#002F2F" d="M318.6 42.2c0 .7-.6 1.2-1.2 1.2-.7 0-1.2-.6-1.2-1.2 0-.7.6-1.2 1.2-1.2.7-.2 1.2.4 1.2 1.2z"/></g><ellipse fill="#0B87D3" cx="142" cy="147.3" rx="20.2" ry="3.9"/><g><path fill="#CCC" d="M124.2 136.8s-3.3 1.1-6 .8c-2.6-.3-8.3-3.3-8.8-8.5s2.7-7.7 2.8-10.8c.1-3.1-1.5-5.5-5-3.7-3.6 1.9-6.4 8.2-5.7 13.8.7 5.6 5.7 13.1 12.1 13.6 6.3.5 12.3-2.6 13.9-4.3 1.6-1.8.1-2.3-3.3-.9z"/><g fill="#999"><path d="M118.2 137.5c-.7-.1-1.7-.4-2.6-.8-.6.8-.6 3.6-.7 5.3 1.4 0 2.6-.1 3.7-.3-.3-1-.2-3-.2-4.1-.1 0-.2 0-.2-.1zM110.2 135.4c.5-.9.9-1.5 1.1-1.9-.9-1.1-1.7-2.5-1.9-4.2-.1-.1-.3-.1-.4-.1-1.7-.3-4.9.9-6.9 2.1 1.1 3.2 3.4 6.6 6.3 8.7.1-1.3 1-3.2 1.8-4.6zM107.8 123c1.5.2 2.1.5 2.5.5.5-1.4 1.2-2.5 1.7-3.6-.6-1.1-6.2-2.2-7.7-2.5-1.1 1.7-2.1 3.8-2.5 6.1 1.3-.9 4.1-.7 6-.5z"/></g></g><path fill="#CCC" d="M132.4 107.9s-4.5 8-6 15c-1.5 7.1-1.1 8.4-1.5 7.7-.3-.7-3-1.8-3.1 2.5-.1 4.3.8 12.3 1.2 13.4.4 1.1 8.5 1.9 10.5.7 2-1.1 2.4-2.1 5.7-1.1 3.3.9 8.4.6 9.3-.1.9-.7 5.3-1.1 6.6-.6 1.4.6 6.2-.3 6.6-1.1.4-.8.3-5.1 0-9.7s-3-7.5-3.9-7.5-.6-6.6-3.5-12.9c-3.1-6.6-5.2-8.5-5.2-8.5l-16.7 2.2z"/><path fill="#999" d="M122.1 144.4s.1-2.1 2.8-1.7c1.9.3 5.3 2.8 5.7 2.2 1.4-2.6-.4-14.6.4-15.5.7-.7 5.5-1.1 6.2 1 .7 2.2.4 12.6 1.9 13.7 1.5 1.2 7.3 2.8 7.5 0 .2-2.8-.2-10.8 1-12.6 1.4-1.9 6.1-7.6 6-2.4-.1 5.2-.7 12.4.1 13.2.8.7 4.5-.3 5.6-.5 1.1-.2 2.7 0 2.8-1 .1-1 .5 1.9.1 2.9s-7.3 2.2-8.1 1.7c-.9-.4-4.6-.1-6 .5-1.5.6-7.1 1-8.8.1-1.5-.7-5.6.3-7.1.9-1.5.6-1.9.4-2.8.1-.8-.1-8.5-.6-7.3-2.6z"/><path fill="#CCC" d="M120.5 147.6s-.2-3.2 2.3-4.1c2.5-.8 5.9.9 6.8 2.3.9 1.4.8 2.1-1 2.4-2 .4-8 .1-8.1-.6zM154.2 146.7s-.4-3.1 1.7-3.8c2.1-.7 6-.8 7.3.7 1.2 1.5.9 3.3-.3 3.5-1.5.2-8.1.7-8.7-.4z"/><path fill="#999" d="M136.6 133.9s1.4-4.2 4.6-4.6c3.2-.4 5.6 1 7 5.1 1.2 4.1.7 11.2-.4 11.8-1.1.7-4.1.6-7.6-.2s-4.7-2.4-4.7-2.4-2.8-3.2 1.1-9.7z"/><path fill="#B3B3B3" d="M151.2 108.6s1 1.9 1.7 3.1c.5 1.2-2.2.9-4.3.6-2-.3-12.7-2.3-16.2 1.2-3.6 3.4-4.8 6.6-5.1 7.8-.3 1.1 0-1.6 2.1-6.6 2.1-5.1 2.8-6.6 3-6.9.2-.1 18-.6 18.8.8z"/><path fill="#CCC" d="M130.8 131.9s.7 11.3.7 14.1c0 2.9-.9 4.1.7 4.6 1.7.6 4.6.7 5.4-1 .8-1.8.3-3.4.1-5.9-.2-2.4.1-11.4-.2-13-.4-1.6-7.9-7.7-6.7 1.2zM147.2 131.8s-.2 8.2-.3 11.9c-.1 3.8-.6 5.2 0 6 .6.8 4.8 1.2 5.9 0 1.1-1.2.4-3.1.2-6.6-.2-3.5 0-10.2.3-12.5.3-2.3.1-4.6-.6-4.5-.6.2-3.5 1.2-5.5 5.7z"/><g fill="#999"><path d="M149.7 115.1c-1 .4-.8 1.1 2 1.2 1.7.1 2.8-.2 3.5-.1-.2-.7-.5-1.4-.8-2.1-.3-.6-.5-1.1-.8-1.7.1.1-2.9 2.3-3.9 2.7zM155.1 123.7h2c-.1-.9-.3-2-.6-3.1-1.1.6-3.8 2-4.6 2.2-.6.2-.2.8 3.2.9zM128.7 117.2c1.7.6 5 .4 5.7 0 .7-.4.3-.7-1.5-1.5-1.4-.5-2.8-1.8-3.4-2.3-.5 1.1-1 2.4-1.5 3.6.3.1.6.1.7.2zM128.2 124.3c1.9-.2 3.7-.8 2.7-1.2-1-.4-2.3-1.2-4.1-2.2-.2.6-.3 1.4-.5 2-.1.6-.2 1.1-.3 1.7.7-.1 1.6-.2 2.2-.3z"/></g><circle fill="#4D4D4D" cx="151.7" cy="90.3" r="1.6"/><g><path fill="#B3B3B3" d="M133.2 80.1s-8.8-1.2-10.3 1.9c-1 2.4-1.4 3.1 1.6 3.6 2.9.5.5 2.2 2.1 2.9 1.5.6 7.3-6.1 6.6-8.4z"/><path fill="gray" d="M130.1 82.8s-3.5-1.2-4.6-.6c-1 .6-1.2.7-.1 2s1.4 2 1.7 2.4c.3.2 2.7-1 3-3.8z"/><path fill="#B3B3B3" d="M151.5 82.3s8.8-1.2 10.3 1.9c1 2.4 1.4 3.1-1.6 3.6-2.9.5-.5 2.2-2.1 2.9-1.5.6-7.4-6.2-6.6-8.4z"/><path fill="gray" d="M154.7 84.5s3.5-1.2 4.6-.6c1 .6 1.2.7.1 2-1.1 1.2-1.4 2-1.7 2.4-.3.4-2.7-1-3-3.8z"/><path fill="#CCC" d="M151.5 80.2s-4.4-2.7-9.6-2.8c-5.2-.1-11.6 2-15.2 8-4.2 7.1-1 15.3.1 17 1.9 2.8 3.6 4.7 6.9 6.3 3.7 2 8.9 2.5 14.2.9 2.3-.7 5.9-3.3 7.2-4.7 1.4-1.5 4.2-4.8 3.8-11.1-.3-5.1-3.4-11.3-7.4-13.6z"/><path fill="gray" d="M141.3 97.8s1.6-1.1 2.3-.6c.7.5.8 1.5-.3 2.2-1.1.7-2 .9-2 .9s-3.3-.8-3.1-2c.3-1.2 1.8-1.8 3.1-.5z"/><circle fill="#4D4D4D" cx="148.4" cy="97.9" r=".3"/><circle fill="#4D4D4D" cx="148.1" cy="100.2" r=".3"/><circle fill="#4D4D4D" cx="150.2" cy="99" r=".3"/><circle fill="#4D4D4D" cx="134.4" cy="99.2" r=".3"/><circle fill="#4D4D4D" cx="133.2" cy="101.6" r=".3"/><circle fill="#4D4D4D" cx="131.8" cy="99.6" r=".3"/><circle fill="#4D4D4D" cx="134" cy="93.6" r="1.5"/><circle fill="#4D4D4D" cx="149.1" cy="93.6" r="1.5"/><path fill="#4D4D4D" d="M141 100.4s.3 3.2.1 3.5c-.1.3-2.2 1.1-3.3.7s-1.1-1.1-1.5-.9c-.3.1.1.9.6 1.1s2 .4 2.9.2c.8-.3 1.4-.8 1.5-.7.1.1 1.9 1 3.3.9 1.5-.1 2.1-1 2.4-1.2s.3-.4-.1-.6c-.4-.2-1.4 1.2-2.4 1.2s-2.5-.5-2.7-.9c-.2-.4-.3-2.9-.3-3.4.2-.4-.5-.4-.5.1z"/><path fill="#999" d="M126.6 92.4c1.9-.3 3.5-.9 2.5-1.4-.9-.3-2.3-1-4.1-1.9-.1.6-.3 1.2-.4 2-.1.5-.2 1-.2 1.6.8-.1 1.5-.2 2.2-.3zM157.4 96.7c.5.1.9.2 1.2.3 0-.6.1-1.2.1-2.1-1.4.3-2.2.6-3.2.6-.3.2-.2.7 1.9 1.2zM156 101c.6.3 1 .6 1.5.8.2-.7.5-1.6.8-2.5-1 0-3.5-.1-4.2-.2-.4-.1-.5.5 1.9 1.9zM125.6 98.5c1.7-.3 4.4-2.1 4.8-2.8s-.1-.7-1.9-.5c-1.4.2-3.2-.1-3.9-.2.1 1.1.3 2.5.5 3.7.1 0 .3-.1.5-.2z"/></g><g><path d="M121.2 98.3l-.2.2c-.1.1-.1.2-.2.2s0-.4 0-.5l-.2.2-.1 1.1.7-1.1c.1 0 0-.1 0-.1z"/><path fill="#E8813C" d="M122.6 96.4c-.1 0 0-.3 0-.5v-.3l-1.5 3 .2-.2v.1l1.5-2.3-.2.2z"/><path fill="#F39150" d="M122.5 95.4c-.1 0-.2.1-.3.2-.2.2-.4.5-.6.5s-.1-.4-.1-.7v-.3h-.1l-.1.1-.5 2.9c0 .1-.1.5 0 .5s.1-.1.2-.2l1.5-3c.1 0 0 0 0 0z"/><path fill="#F5A26D" d="M120.8 98.1l.5-2.9s0 .1-.1.1c-.1.2-.3.4-.4.3-.1 0-.1-.1-.1-.3l-.1 2.9c.1.1.1-.1.2-.1z"/><path fill="#FFCF5E" d="M124.9 83l-4.1 12.3v.2c0 .1 0 .3.1.3s.3-.2.4-.3l.1-.1 4.1-12.2-.6-.2z"/><path fill="#FFBE23" d="M126.5 83.5l-1.1-.4-4.1 12.2.1-.1h.1s.1.1 0 .3c0 .3 0 .6.1.7.1 0 .4-.3.6-.5.1-.1.2-.2.3-.2l4-12z"/><path fill="#E3A922" d="M126.5 83.5l-3.9 11.9s.1.2 0 .3c0 .2-.1.5 0 .5l.2-.2.2-.2 4.1-12.3h-.6z"/><g><path fill="#F08281" d="M126.1 79.2c-.1.4-.4 1.2-.5 1.7.2.1.3.1.5.2l.6-2c-.2 0-.4 0-.6.1z"/><path fill="#DE4B49" d="M128.3 80c-.1-.2-.2-.3-.4-.4l-.7 2c.2.1.3.1.5.2.2-.6.4-1.3.6-1.8z"/><path fill="#E95F5E" d="M126.7 79.1l-.6 2c.4.1.7.2 1.1.4l.6-2c-.3-.3-.6-.4-1.1-.4z"/></g><g><path fill="#C4C4C4" d="M127.25 81.482l.473.158-.663 1.992-.474-.158z"/><path fill="#ECECEC" d="M124.797 82.963l.663-1.993.475.158-.664 1.993z"/><path fill="#D9D9D9" d="M125.423 83.183l.663-1.992 1.14.38-.665 1.992z"/></g></g><path fill="#333" d="M159.6 89.9l-.1-1.4c.1-.8-.6-.7-.6-.7l-3.6-.1c-5.5-.5-8.9.5-8.9.5-3.3 1-5 1.2-5.7 1.4-.7 0-2.5-.1-5.9-.7 0 0-3.6-.7-9 .3l-3.6.5s-.7-.1-.5.7v1.4s0 .3.1.5c0 .2.2.3.5.4 0 0 .1 0 .3.2.1.1.2.3.3.5l.4 1.6.2.8.6 2.2c.8 3.2 4.6 3.6 5.6 3.7 0 0 3.7.1 6-1.7 0 0 2.1-1.2 3.4-6.1 0 0 .4-1.5 1.5-1.7h.4c1.1.1 1.7 1.5 1.7 1.5 1.8 4.8 3.9 5.8 3.9 5.8 2.4 1.7 6.1 1.1 6.1 1.1.9-.1 4.6-.9 5.2-4.3.2-1 .4-2.3.4-2.3l.1-.8.2-1.7c.1-.2.2-.4.3-.5.1-.1.2-.2.3-.2.4-.1.5-.2.5-.4 0-.1-.1-.5-.1-.5zm-21.8 5s-.6 2.9-2.5 4.5c0 0-3.2 2.8-8 1.2 0 0-1.2-.4-2.2-2-.6-1-1-3.3-1-3.3V95c-.1-1 0-2.8.9-4.1l.1-.1c.1-.1.1-.2.2-.2 1-1 3.4-1.1 3.5-1.1l3-.1c0-.1 7.9-.6 6 5.5zm19.6-1.4v.3s-.2 2.3-.6 3.4c-.8 1.7-2 2.1-2 2.1-4.5 2-8-.5-8-.5-2-1.4-2.9-4.2-2.9-4.2-2.6-5.9 5.3-6.1 5.3-6.1l3-.1c.1 0 2.5-.1 3.6.8l.2.2.1.1c1 1.2 1.2 2.8 1.3 4z"/></g><g clip-path="url(#b)"><path opacity=".4" fill="#B4B4B5" d="M19.6 294.1H-125.5v18h.9V375h11.9v-62.9H19.6"/><path fill="#9CD0EB" d="M-25.1 292.9h-15.7l1.8-6.1h12.1"/><path fill="#FFF" d="M-42.6 292.9h19.3v1.6h-19.3z"/><path fill="#2D333B" d="M-7.6 248.3h-50.6c-1.3 0-2.4 1.1-2.4 2.4v32.6h55.4v-32.6c-.1-1.3-1.1-2.4-2.4-2.4z"/><path fill="#FFF" d="M-7.6 283.2h-53v3.2c0 1.3 1.1 2.4 2.4 2.4h50.6c1.3 0 2.4-1.1 2.4-2.4v-3.2h-2.4z"/><path fill="#283950" d="M-7.4 280.8v-30.5l-51 30.5"/><path fill="#506F8C" d="M-58.4 280.8l51-30.5h-51"/><path fill="#FCFFFF" d="M-25.5 238.4h-22.8v42.4h30.7v-34.9"/><path fill="#283950" d="M-25.5 245.9h7.9l-7.9-7.5"/><path fill="#9CD0EB" d="M-17.6 245.9h-7.9l7.9 7.6"/><path fill="#283950" d="M-42.4 248.3h9.4v.8h-9.4z"/><path fill="#9CD0EB" d="M-42.4 252.2h19.9v.5h-19.9zM-42.4 254.7h19.9v.5h-19.9zM-42.4 257.1h19.9v.5h-19.9zM-42.4 259.5h19.9v.5h-19.9zM-42.4 262h19.9v.5h-19.9zM-42.4 264.4h19.9v.5h-19.9zM-42.4 266.9h19.9v.5h-19.9z"/><path fill="#283950" d="M17.8 282.5l3.7-.7-4.1-22.2-3.7.7"/><path fill="#716E60" d="M13.62 260.236l-.147-.787 3.638-.676.147.787z"/><path fill="#48607A" d="M16.7 256c-.1-.3-.3-.5-.6-.5l-2.6.5c-.3.1-.5.3-.4.7l.5 2.8 3.7-.7-.6-2.8z"/><path fill="#FFFED1" d="M21.5 281.8l-3.7.7 1.6 2.1 1.3-.3"/><path fill="#262120" d="M20.7 284.3l-1.3.3.9 1.2"/><path fill="none" d="M36.415 285.624l-4.3-.07.14-8.5 4.3.07z"/><path fill="#B4B4B5" d="M32.3 275l.1-3.1-6.1-.1c-4.8 2.1-11.3 6.4-12.9 14.3l-.1 8.4 18.8.3.1-6.9 6.9.1.2-12.8-7-.2zm4.2 10.7l-4.3-.1.1-8.5 4.3.1-.1 8.5z"/><path fill="#DED9C8" d="M26.9 271.8l-13.4.2-.1 14.7c1.5-7.9 8.7-12.7 13.5-14.9z"/><g><path fill="#585959" d="M-102.3 287.4h2.9v5h-2.9zM-108.6 260.3l-.5-.8 21.2-15.2.6.8M-86.28 245.507l.524.732-21.237 15.17-.523-.73z"/><path fill="#585959" d="M-97.41 251.715l1.144 1.39-.695.572-1.145-1.39zM-99.648 285.918l-.862.26-7.53-24.99.862-.26zM-109.6 262l.9-.3 7.5 25-.9.3"/><path fill="#585959" d="M-103.54 274.023l-1.683.636-.318-.843 1.684-.636z"/><path fill="#303030" d="M-80.3 240c.6 1.1.6 2.2 0 2.5s-1.5-.3-2.1-1.3c-.6-1.1-.6-2.2 0-2.5s1.5.3 2.1 1.3z"/><path fill="#303030" d="M-74.4 245l-5.7 3.7-4.2-6.5 5.7-3.7"/><path fill="#283950" d="M-63.1 248l-18.7 11.9c-3.6-5.6-2.3-12.8 2.9-16.1 5.1-3.2 12.2-1.4 15.8 4.2z"/><path fill="#585959" d="M-87.3 242.6h6v2.9h-6z"/><path fill="#303030" d="M-111.2 291.2h20.7v4.1h-20.7zM-84.6 244.7c0 1-.8 1.8-1.8 1.8s-1.8-.8-1.8-1.8.8-1.8 1.8-1.8 1.8.8 1.8 1.8z"/><path fill="#585959" d="M-85.3 244.7c0 .6-.5 1.1-1.2 1.1-.6 0-1.2-.5-1.2-1.1s.5-1.2 1.2-1.2c.7.1 1.2.6 1.2 1.2z"/><path fill="#303030" d="M-106.7 261c0 1-.8 1.8-1.8 1.8s-1.8-.8-1.8-1.8.8-1.8 1.8-1.8 1.8.8 1.8 1.8z"/><path fill="#585959" d="M-107.3 261c0 .6-.5 1.2-1.2 1.2-.6 0-1.2-.5-1.2-1.2 0-.6.5-1.2 1.2-1.2s1.2.5 1.2 1.2z"/><path fill="#303030" d="M-99 286.9c0 1-.8 1.8-1.8 1.8s-1.8-.8-1.8-1.8.8-1.8 1.8-1.8 1.8.8 1.8 1.8z"/><path fill="#585959" d="M-99.7 286.9c0 .6-.5 1.2-1.1 1.2s-1.2-.5-1.2-1.2c0-.6.5-1.2 1.2-1.2.6 0 1.1.5 1.1 1.2z"/></g><path fill="#283950" d="M-125.5 294.1V375h5.6v-75.3H15.5V375h52.4V294.1"/><g><path fill="#FFF" d="M19.5 318.6H64L19.5 299"/><path fill="#F5F1E6" d="M19.5 299L64 318.6V299"/><path fill="#283950" d="M37.8 303h7.9v1.3h-7.9z"/></g><g><path fill="#FFF" d="M19.5 344.4H64l-44.5-19.7"/><path fill="#F5F1E6" d="M19.5 324.7L64 344.4v-19.7"/><path fill="#283950" d="M37.8 328.7h7.9v1.3h-7.9z"/></g><g><path fill="#FFF" d="M19.5 370.1H64l-44.5-19.6"/><path fill="#F5F1E6" d="M19.5 350.5L64 370.1v-19.6"/><path fill="#283950" d="M37.8 354.5h7.9v1.3h-7.9z"/></g><path fill="#283950" d="M8.3 303H-1.9v4.5c0 .8-.7 1.4-1.6 1.4h-1.8c-.9 0-1.6-.6-1.6-1.4V303h-92.4v4.5c0 .8-.7 1.4-1.6 1.4h-1.8c-.9 0-1.6-.6-1.6-1.4V303h-10.1c-.7 0-1.4.5-1.4 1.2v21.1c0 .7.6 1.2 1.4 1.2H8.2c.7 0 1.4-.6 1.4-1.2v-21.1c0-.7-.6-1.2-1.3-1.2z"/><g><path fill="#24ACFF" d="M-87.6 334.6s0 8 4.4 10.9l.4 3.2s-6.1-.4-7.2-13.8c0 0 1.1-2.5 2.4-.3z"/><path fill="#3EB6FF" d="M-82.4 324.5s-6.2 5.3-7.6 7-.8 2.7 0 3.3 1.9.3 4.6-1.8c2.3-1.9 3.6-2.2 3.6-2.2l-.6-6.3z"/><path fill="#56B4D1" d="M-68.7 301.1h11.5c4.9 0 8.1 1 10.1 2.1 0-.1 0-.2-.1-.3-1.2-7.4-8.7-7.1-8.7-7.1h-16.3s-7.4-.3-8.7 7.1c-.1.4-.1.8-.2 1.2 5.5-3.2 12.4-3 12.4-3z"/><path fill="#0995FF" d="M-57.2 301.1h-11.5s-6.9-.2-12.3 3c-1.3 7.7-4 21.2-2.7 27.4 1.4 6.5 3.6 8.5 8.5 8.5h22.5s7.1-2 8.5-8.5c1.3-6.4-1.6-20.7-2.8-28.2-2.1-1.2-5.2-2.2-10.2-2.2z"/><path fill="#3EB6FF" d="M-67.3 365.8h6.5v7.9h-6.5z"/><path fill="#017CA4" d="M-60.8 365.8c0 .5-1.5.9-3.3.9s-3.3-.4-3.3-.9 1.5-.9 3.3-.9 3.3.4 3.3.9z"/><path fill="#128FDB" d="M-66.6 363v1.9c0 .5 1.2.9 2.6.9s2.6-.4 2.6-.9V363h-5.2z"/><ellipse fill="#017CA4" cx="-64" cy="363" rx="2.6" ry=".9"/><path fill="#24ACFF" d="M-38.7 334.6s0 8-4.4 10.9l-.4 3.2s6.1-.4 7.2-13.8c0 0-1.1-2.5-2.4-.3z"/><path fill="#3EB6FF" d="M-43.9 324.5s6.2 5.3 7.6 7 .8 2.7 0 3.3c-.8.6-1.9.3-4.6-1.8-2.3-1.9-3.6-2.2-3.6-2.2l.6-6.3z"/><path fill="#128FDB" d="M-46.3 338.1h-33.8s-3.5 2.1-3.8 5.3c4.1 1.4 11.2 3 21.7 3 10.9 0 16.8-1.8 19.8-3.2-.4-3.1-3.9-5.1-3.9-5.1z"/><path fill="#0995FF" d="M-83.9 343.4c0 .1-.1.3-.1.4 0 3.5.6 5.9 4.6 7 3.9 1.1 8.2 2.1 16.2 2.1s12.3-1.1 16.2-2.1c3.9-1.1 4.6-3.5 4.6-7 0-.2-.1-.4-.1-.6-3 1.4-8.9 3.2-19.8 3.2-10.4 0-17.5-1.7-21.6-3z"/><path fill="#3EB6FF" d="M-65.8 352.9v9.9s1.2 1.2 3.5 0v-9.9c.1 0-.4-4.3-3.5 0zM-42.4 378.7c1.5.7 2.8 1.2 3.8 1.7.5-1.8-2.2-3.3-9.4-5.7-8.5-3-16.1-1.8-16.1-1.8s-7.6-1.1-16.1 1.8c-7.3 2.5-10 4-9.3 5.9 7.3-4 14.1-5.4 25.5-5.4 13.8-.1 16.3 1.2 21.6 3.5z"/><path fill="#128FDB" d="M-42.4 378.7c-5.3-2.3-7.9-3.5-21.6-3.5-11.4 0-18.2 1.4-25.5 5.4.1.3.3.6.6 1 1.9 2.4 4.3-.5 8.4-1.9 2.4-.9 9-3.4 14.7-1.1h3.5c5.7-2.3 12.3.3 14.7 1.1 4.1 1.5 6.5 4.3 8.4 1.9.3-.4.5-.7.6-1.1-1-.6-2.2-1.2-3.8-1.8z"/><path fill="#3EB6FF" d="M-66.1 380.6s-1.3 5.7 0 6.4c1.3.7 3.9 1.2 3.9-1 0-3.5.2-11.8-1.7-11.8-1.2-.1-2.1 5.8-2.2 6.4z"/><path fill="#595858" d="M-37.2 379.9c-.4-.2-.8-.3-1.2-.3-1.8 0-3.2 1.4-3.2 3.2s1.4 3.2 3.2 3.2c.4 0 .9-.1 1.2-.2v-5.9z"/><circle fill="#888" cx="-37.2" cy="383.6" r="2.7"/><circle fill="#595858" cx="-37.2" cy="383.6" r="2.1"/><path fill="#595858" d="M-91.6 379.9c.4-.2.8-.3 1.2-.3 1.8 0 3.2 1.4 3.2 3.2s-1.4 3.2-3.2 3.2c-.4 0-.9-.1-1.2-.2v-5.9z"/><circle fill="#888" cx="-91.6" cy="383.6" r="2.7"/><circle fill="#595858" cx="-91.6" cy="383.6" r="2.1"/><path fill="#595858" d="M-66.6 386.6c.4-.2.8-.2 1.2-.2 1.8 0 3.2 1.4 3.2 3.2 0 1.8-1.4 3.2-3.2 3.2-.4 0-.9-.1-1.2-.2v-6z"/><path fill="#888" d="M-69.3 390.2c0 1.5 1.2 2.7 2.7 2.7s2.7-1.2 2.7-2.7-1.2-2.7-2.7-2.7-2.7 1.2-2.7 2.7z"/><circle fill="#595858" cx="-66.6" cy="390.2" r="2.1"/></g><g><ellipse fill="#283950" cx="105.6" cy="240.1" rx="18.5" ry="18.7"/><path fill="#FFF" d="M105.6 255.2c-8.3 0-15.1-6.8-15.1-15.2s6.8-15.2 15.1-15.2 15.1 6.8 15.1 15.2-6.8 15.2-15.1 15.2z"/><g fill="#283950"><path d="M107 227c0 .8-.6 1.4-1.4 1.4s-1.4-.6-1.4-1.4c0-.8.6-1.4 1.4-1.4s1.4.6 1.4 1.4zM107 253.2c0 .8-.6 1.4-1.4 1.4s-1.4-.6-1.4-1.4.6-1.4 1.4-1.4 1.4.6 1.4 1.4zM118.6 241.5c-.8 0-1.4-.6-1.4-1.4s.6-1.4 1.4-1.4 1.4.6 1.4 1.4c0 .7-.6 1.4-1.4 1.4zM92.6 241.5c-.8 0-1.4-.6-1.4-1.4s.6-1.4 1.4-1.4c.8 0 1.4.6 1.4 1.4 0 .7-.6 1.4-1.4 1.4z"/><g><path d="M100 228.2c.3.5.1 1.1-.4 1.3-.5.3-1 .1-1.3-.4s-.1-1.1.4-1.3c.4-.2 1 0 1.3.4zM112.9 250.9c.3.5.1 1.1-.4 1.3-.5.3-1.1.1-1.3-.4-.3-.5-.1-1.1.4-1.3s1.1 0 1.3.4zM94.8 232.7c.5.3.6.9.4 1.3-.3.5-.9.6-1.3.4-.5-.3-.6-.9-.3-1.3.2-.5.8-.7 1.2-.4zM117.3 245.8c.5.3.6.9.4 1.3-.3.5-.9.6-1.3.4-.5-.3-.6-.9-.4-1.3.3-.5.9-.7 1.3-.4zM111.3 228.2c-.3.5-.1 1.1.4 1.3.5.3 1 .1 1.3-.4s.1-1.1-.4-1.3c-.5-.2-1.1 0-1.3.4zM98.3 250.9c-.3.5-.1 1.1.4 1.3.5.3 1 .1 1.3-.4s.1-1.1-.4-1.3-1 0-1.3.4zM116.4 232.7c-.5.3-.6.9-.4 1.3.3.5.9.6 1.3.4.5-.3.6-.9.3-1.3-.2-.5-.8-.7-1.2-.4zM93.9 245.8c-.5.3-.6.9-.4 1.3.3.5.9.6 1.3.4.5-.3.6-.9.3-1.3-.2-.5-.8-.7-1.2-.4z"/></g></g><path fill="#002F2F" d="M105.7 240.3l-.2-.4s7.3-5 9.3-5.3c.2 0 .4.2.2.4-1.3 1.6-9.3 5.3-9.3 5.3z"/><path fill="#002F2F" d="M106.8 240.1c0 .7-.6 1.2-1.2 1.2-.7 0-1.2-.6-1.2-1.2 0-.7.6-1.2 1.2-1.2.7-.1 1.2.5 1.2 1.2z"/></g><ellipse fill="#0B87D3" cx="-63.2" cy="341.3" rx="19.4" ry="3.8"/><g><path fill="#CCC" d="M-80.4 331.2s-3.2 1.1-5.8.8c-2.5-.3-8-3.2-8.5-8.2s2.6-7.4 2.7-10.4-1.4-5.3-4.8-3.6c-3.5 1.8-6.2 7.9-5.5 13.3s5.5 12.6 11.6 13.1 11.8-2.5 13.4-4.1c1.7-1.8.2-2.2-3.1-.9z"/><g fill="#999"><path d="M-86.1 331.9c-.7-.1-1.6-.4-2.5-.8-.6.8-.6 3.5-.7 5.1 1.3 0 2.5-.1 3.6-.3-.3-1-.2-2.9-.2-3.9-.1 0-.2 0-.2-.1zM-93.8 329.9c.5-.9.9-1.4 1.1-1.8-.9-1.1-1.6-2.4-1.8-4-.1-.1-.3-.1-.4-.1-1.6-.3-4.7.9-6.6 2 1.1 3.1 3.3 6.4 6.1 8.4-.1-1.4.8-3.2 1.6-4.5zM-96.1 317.9c1.4.2 2 .5 2.4.5.5-1.3 1.2-2.4 1.6-3.5-.6-1.1-6-2.1-7.4-2.4-1.1 1.6-2 3.7-2.4 5.9 1.2-.9 3.9-.7 5.8-.5z"/></g></g><path fill="#CCC" d="M-72.5 303.4s-4.3 7.7-5.8 14.4c-1.4 6.8-1.1 8.1-1.4 7.4s-2.9-1.7-3 2.4.8 11.8 1.2 12.9 8.2 1.8 10.1.7c1.9-1.1 2.3-2 5.5-1.1s8.1.6 9-.1 5.1-1.1 6.4-.6c1.3.6 6-.3 6.4-1.1.4-.8.3-4.9 0-9.3s-2.9-7.2-3.8-7.2-.6-6.4-3.4-12.4c-3-6.4-5-8.2-5-8.2l-16.2 2.2z"/><path fill="#999" d="M-82.4 338.5s.1-2 2.7-1.6c1.8.3 5.1 2.7 5.5 2.1 1.3-2.5-.4-14.1.4-14.9.7-.7 5.3-1.1 6 1s.4 12.1 1.8 13.2c1.4 1.2 7 2.7 7.2 0s-.2-10.4 1-12.1c1.3-1.8 5.9-7.3 5.8-2.3s-.7 11.9.1 12.7c.8.7 4.3-.3 5.4-.5s2.6 0 2.7-1 .5 1.8.1 2.8-7 2.1-7.8 1.6c-.9-.4-4.4-.1-5.8.5s-6.8 1-8.5.1c-1.4-.7-5.4.3-6.8.9s-1.8.4-2.7.1c-.8-.2-8.2-.7-7.1-2.6z"/><path fill="#CCC" d="M-83.9 341.6s-.2-3.1 2.2-3.9c2.4-.8 5.7.9 6.5 2.2.9 1.3.8 2-1 2.3-1.8.4-7.6.1-7.7-.6zM-51.5 340.7s-.4-3 1.6-3.7 5.8-.8 7 .7c1.2 1.4.9 3.2-.3 3.4-1.3.2-7.7.7-8.3-.4z"/><path fill="#999" d="M-68.4 328.4s1.3-4 4.4-4.4 5.4 1 6.7 4.9c1.2 3.9.7 10.8-.4 11.4-1.1.7-3.9.6-7.3-.2s-4.5-2.3-4.5-2.3-2.7-3.1 1.1-9.4z"/><path fill="#B3B3B3" d="M-54.4 304.1s1 1.8 1.6 3c.5 1.2-2.1.9-4.1.6-1.9-.3-12.2-2.2-15.6 1.2-3.5 3.3-4.6 6.4-4.9 7.5s0-1.5 2-6.4 2.7-6.4 2.9-6.6 17.4-.7 18.1.7z"/><path fill="#CCC" d="M-74 326.5s.7 10.9.7 13.6c0 2.8-.9 3.9.7 4.4 1.6.6 4.4.7 5.2-1 .8-1.7.3-3.3.1-5.7-.2-2.3.1-11-.2-12.5-.4-1.5-7.7-7.4-6.5 1.2zM-58.2 326.4s-.2 7.9-.3 11.5c-.1 3.7-.6 5 0 5.8s4.6 1.2 5.7 0 .4-3 .2-6.4c-.2-3.4 0-9.8.3-12s.1-4.4-.6-4.3c-.6.1-3.4 1.1-5.3 5.4z"/><g fill="#999"><path d="M-55.8 310.3c-1 .4-.8 1.1 1.9 1.2 1.6.1 2.7-.2 3.4-.1-.2-.7-.5-1.3-.8-2-.3-.6-.5-1.1-.8-1.6.1 0-2.7 2.1-3.7 2.5zM-50.6 318.6h1.9c-.1-.9-.3-1.9-.6-3-1.1.6-3.7 1.9-4.4 2.1-.6.2-.2.8 3.1.9zM-76 312.3c1.6.6 4.8.4 5.5 0s.3-.7-1.4-1.4c-1.3-.5-2.7-1.7-3.3-2.2-.5 1.1-1 2.3-1.4 3.5.2 0 .5 0 .6.1zM-76.5 319.2c1.8-.2 3.6-.8 2.6-1.2s-2.2-1.2-3.9-2.1c-.2.6-.3 1.3-.5 1.9-.1.6-.2 1.1-.3 1.6.7 0 1.5-.1 2.1-.2z"/></g><circle fill="#4D4D4D" cx="-53.9" cy="286.4" r="1.5"/><g><path fill="#B3B3B3" d="M-71.7 276.6s-8.5-1.2-9.9 1.8c-1 2.3-1.3 3 1.5 3.5s.5 2.1 2 2.8c1.5.6 7.1-5.9 6.4-8.1z"/><path fill="gray" d="M-74.7 279.2s-3.4-1.2-4.4-.6c-1 .6-1.2.7-.1 1.9 1.1 1.2 1.3 1.9 1.6 2.3.3.3 2.6-.9 2.9-3.6z"/><path fill="#B3B3B3" d="M-54.1 278.7s8.5-1.2 9.9 1.8c1 2.3 1.3 3-1.5 3.5s-.5 2.1-2 2.8c-1.5.6-7.1-5.9-6.4-8.1z"/><path fill="gray" d="M-51 280.9s3.4-1.2 4.4-.6c1 .6 1.2.7.1 1.9-1.1 1.2-1.3 1.9-1.6 2.3-.3.4-2.6-.9-2.9-3.6z"/><path fill="#CCC" d="M-54.1 276.7s-4.2-2.6-9.2-2.7c-5-.1-11.2 1.9-14.6 7.7-4 6.8-1 14.7.1 16.4 1.8 2.7 3.5 4.5 6.6 6.1 3.6 1.9 8.6 2.4 13.7.9 2.2-.7 5.7-3.2 6.9-4.5 1.3-1.4 4-4.6 3.7-10.7-.3-5-3.3-11-7.2-13.2z"/><path fill="gray" d="M-63.9 293.7s1.5-1.1 2.2-.6.8 1.4-.3 2.1c-1.1.7-1.9.9-1.9.9s-3.2-.8-3-1.9c.3-1.2 1.8-1.8 3-.5z"/><circle fill="#4D4D4D" cx="-57.1" cy="293.8" r=".3"/><circle fill="#4D4D4D" cx="-57.3" cy="296" r=".3"/><circle fill="#4D4D4D" cx="-55.3" cy="294.8" r=".3"/><circle fill="#4D4D4D" cx="-70.5" cy="295" r=".3"/><circle fill="#4D4D4D" cx="-71.7" cy="297.3" r=".3"/><circle fill="#4D4D4D" cx="-73" cy="295.4" r=".3"/><circle fill="#4D4D4D" cx="-70.9" cy="289.6" r="1.4"/><circle fill="#4D4D4D" cx="-56.4" cy="289.6" r="1.4"/><path fill="#4D4D4D" d="M-64.2 296.2s.3 3.1.1 3.4c-.1.3-2.1 1.1-3.2.7s-1.1-1.1-1.4-.9c-.3.1.1.9.6 1.1s1.9.4 2.8.2c.8-.3 1.3-.8 1.4-.7.1.1 1.8 1 3.2.9 1.4-.1 2-1 2.3-1.2s.3-.4-.1-.6-1.3 1.2-2.3 1.2-2.4-.5-2.6-.9-.3-2.8-.3-3.3c.2-.4-.5-.4-.5.1z"/><path fill="#999" d="M-78 288.5c1.8-.3 3.4-.9 2.4-1.3-.9-.3-2.2-1-3.9-1.8-.1.6-.3 1.2-.4 1.9-.1.5-.2 1-.2 1.5l2.1-.3zM-48.4 292.6c.5.1.9.2 1.2.3 0-.6.1-1.2.1-2-1.3.3-2.1.6-3.1.6-.3.1-.2.6 1.8 1.1zM-49.7 296.7c.6.3 1 .6 1.4.8.2-.7.5-1.5.8-2.4-1 0-3.4-.1-4-.2-.5-.1-.6.5 1.8 1.8zM-79 294.3c1.6-.3 4.2-2 4.6-2.7s-.1-.7-1.8-.5c-1.3.2-3.1-.1-3.8-.2.1 1.1.3 2.4.5 3.6.1 0 .3-.1.5-.2z"/></g><g><path d="M-83.2 294.1l-.2.2s-.1.2-.2.2 0-.4 0-.5l-.2.2-.1 1.1.7-1.1c.1 0 0-.1 0-.1z"/><path fill="#E8813C" d="M-81.9 292.3c-.1 0 0-.3 0-.5v-.3l-1.4 2.9.2-.2v.1l1.4-2.2-.2.2z"/><path fill="#F39150" d="M-82 291.4c-.1 0-.2.1-.3.2-.2.2-.4.5-.6.5s-.1-.4-.1-.7v-.3h-.1l-.1.1-.5 2.8c0 .1-.1.5 0 .5s.1-.1.2-.2l1.5-2.9c.1 0 0 0 0 0z"/><path fill="#F5A26D" d="M-83.6 294l.5-2.8s0 .1-.1.1c-.1.2-.3.4-.4.3-.1 0-.1-.1-.1-.3l-.1 2.8c.1 0 .1-.1.2-.1z"/><path fill="#FFCF5E" d="M-79.7 279.4l-3.9 11.8v.2c0 .1 0 .3.1.3s.3-.2.4-.3l.1-.1 3.9-11.7-.6-.2z"/><path fill="#FFBE23" d="M-78.1 279.9l-1.1-.4-3.9 11.7.1-.1h.1s.1.1 0 .3c0 .3 0 .6.1.7.1 0 .4-.3.6-.5.1-.1.2-.2.3-.2l3.8-11.5z"/><path fill="#E3A922" d="M-78.1 279.9l-3.8 11.5s.1.2 0 .3c0 .2-.1.5 0 .5l.2-.2.2-.2 3.9-11.8-.5-.1z"/><g><path fill="#F08281" d="M-78.5 275.8c-.1.4-.4 1.2-.5 1.6.2.1.3.1.5.2l.6-1.9c-.2 0-.4 0-.6.1z"/><path fill="#DE4B49" d="M-76.4 276.5c-.1-.2-.2-.3-.4-.4l-.7 1.9c.2.1.3.1.5.2.2-.5.4-1.2.6-1.7z"/><path fill="#E95F5E" d="M-77.9 275.7l-.6 1.9c.4.1.7.2 1.1.4l.6-1.9c-.4-.3-.7-.4-1.1-.4z"/></g><g><path fill="#C4C4C4" d="M-77.474 277.967l.475.158-.63 1.898-.476-.158z"/><path fill="#ECECEC" d="M-79.81 279.314l.633-1.897.475.158-.632 1.897z"/><path fill="#D9D9D9" d="M-79.23 279.578l.632-1.898 1.14.38-.633 1.897z"/></g></g><path fill="#333" d="M-46.3 286.1l-.1-1.3c.1-.8-.6-.7-.6-.7l-3.5-.1c-5.3-.5-8.6.5-8.6.5-3.2 1-4.8 1.2-5.5 1.3-.7 0-2.4-.1-5.7-.7 0 0-3.5-.7-8.7.3l-3.5.5s-.7-.1-.5.7v1.3s0 .3.1.5c0 .2.2.3.5.4 0 0 .1 0 .3.2.1.1.2.3.3.5l.4 1.5.2.8s.3 1.1.6 2.1c.8 3.1 4.4 3.5 5.4 3.6 0 0 3.6.1 5.8-1.6 0 0 2-1.2 3.3-5.9 0 0 .4-1.4 1.4-1.6h.4c1.1.1 1.6 1.4 1.6 1.4 1.7 4.6 3.8 5.6 3.8 5.6 2.3 1.6 5.9 1.1 5.9 1.1.9-.1 4.4-.9 5-4.1.2-1 .4-2.2.4-2.2l.1-.8.2-1.6c.1-.2.2-.4.3-.5.1-.1.2-.2.3-.2.4-.1.5-.2.5-.4 0-.3-.1-.6-.1-.6zm-21 4.8s-.6 2.8-2.4 4.3c0 0-3.1 2.7-7.7 1.2 0 0-1.2-.4-2.1-1.9-.6-1-1-3.2-1-3.2v-.3c-.1-1 0-2.7.9-3.9l.1-.1c.1-.1.1-.2.2-.2 1-1 3.3-1.1 3.4-1.1l2.9-.1c0-.1 7.6-.6 5.7 5.3zm18.9-1.4v.3s-.2 2.2-.6 3.3c-.8 1.6-1.9 2-1.9 2-4.3 1.9-7.7-.5-7.7-.5-1.9-1.3-2.8-4-2.8-4-2.5-5.7 5.1-5.9 5.1-5.9l2.9-.1c.1 0 2.4-.1 3.5.8l.2.2.1.1c.9 1.1 1.1 2.7 1.2 3.8z"/></g><g clip-path="url(#b)"><path opacity=".4" fill="#B4B4B5" d="M391.3 294.1H246.2v18h.9V375H259v-62.9h132.3"/><path fill="#9CD0EB" d="M346.6 292.9h-15.7l1.8-6.1h12.1"/><path fill="#FFF" d="M329.1 292.9h19.3v1.6h-19.3z"/><path fill="#2D333B" d="M364.1 248.3h-50.6c-1.3 0-2.4 1.1-2.4 2.4v32.6h55.4v-32.6c-.1-1.3-1.1-2.4-2.4-2.4z"/><path fill="#FFF" d="M364.1 283.2h-53v3.2c0 1.3 1.1 2.4 2.4 2.4h50.6c1.3 0 2.4-1.1 2.4-2.4v-3.2h-2.4z"/><path fill="#283950" d="M364.3 280.8v-30.5l-51 30.5"/><path fill="#506F8C" d="M313.3 280.8l51-30.5h-51"/><path fill="#FCFFFF" d="M346.2 238.4h-22.8v42.4h30.7v-34.9"/><path fill="#283950" d="M346.2 245.9h7.9l-7.9-7.5"/><path fill="#9CD0EB" d="M354.1 245.9h-7.9l7.9 7.6"/><path fill="#283950" d="M329.3 248.3h9.4v.8h-9.4z"/><path fill="#9CD0EB" d="M329.3 252.2h19.9v.5h-19.9zM329.3 254.7h19.9v.5h-19.9zM329.3 257.1h19.9v.5h-19.9zM329.3 259.5h19.9v.5h-19.9zM329.3 262h19.9v.5h-19.9zM329.3 264.4h19.9v.5h-19.9zM329.3 266.9h19.9v.5h-19.9z"/><path fill="#283950" d="M389.5 282.5l3.7-.7-4.1-22.2-3.7.7"/><path fill="#716E60" d="M385.358 260.27l-.146-.787 3.637-.675.145.786z"/><path fill="#48607A" d="M388.4 256c-.1-.3-.3-.5-.6-.5l-2.6.5c-.3.1-.5.3-.4.7l.5 2.8 3.7-.7-.6-2.8z"/><path fill="#FFFED1" d="M393.2 281.8l-3.7.7 1.6 2.1 1.3-.3"/><path fill="#262120" d="M392.4 284.3l-1.3.3.9 1.2"/><path fill="none" d="M408.166 285.625l-4.3-.07.14-8.5 4.3.07z"/><path fill="#B4B4B5" d="M404 275l.1-3.1-6.1-.1c-4.8 2.1-11.3 6.4-12.9 14.3l-.1 8.4 18.8.3.1-6.9 6.9.1.2-12.8-7-.2zm4.2 10.7l-4.3-.1.1-8.5 4.3.1-.1 8.5z"/><path fill="#DED9C8" d="M398.6 271.8l-13.4.2-.1 14.7c1.5-7.9 8.7-12.7 13.5-14.9z"/><g><path fill="#585959" d="M269.4 287.4h2.9v5h-2.9zM263.1 260.3l-.5-.8 21.2-15.2.6.8M285.437 245.483l.523.733-21.238 15.172-.523-.733z"/><path fill="#585959" d="M274.303 251.693l1.145 1.39-.695.57-1.145-1.388zM272.108 285.91l-.862.26-7.53-24.99.862-.26zM262.1 262l.9-.3 7.5 25-.9.3"/><path fill="#585959" d="M268.22 274.014l-1.685.635-.318-.843 1.684-.635z"/><path fill="#303030" d="M291.4 240c.6 1.1.6 2.2 0 2.5s-1.5-.3-2.1-1.3c-.6-1.1-.6-2.2 0-2.5s1.5.3 2.1 1.3z"/><path fill="#303030" d="M297.3 245l-5.7 3.7-4.2-6.5 5.7-3.7"/><path fill="#283950" d="M308.6 248l-18.7 11.9c-3.6-5.6-2.3-12.8 2.9-16.1 5.1-3.2 12.2-1.4 15.8 4.2z"/><path fill="#585959" d="M284.4 242.6h6v2.9h-6z"/><path fill="#303030" d="M260.5 291.2h20.7v4.1h-20.7zM287.1 244.7c0 1-.8 1.8-1.8 1.8s-1.8-.8-1.8-1.8.8-1.8 1.8-1.8 1.8.8 1.8 1.8z"/><path fill="#585959" d="M286.4 244.7c0 .6-.5 1.1-1.2 1.1-.6 0-1.2-.5-1.2-1.1s.5-1.2 1.2-1.2c.7.1 1.2.6 1.2 1.2z"/><path fill="#303030" d="M265 261c0 1-.8 1.8-1.8 1.8s-1.8-.8-1.8-1.8.8-1.8 1.8-1.8 1.8.8 1.8 1.8z"/><path fill="#585959" d="M264.4 261c0 .6-.5 1.2-1.2 1.2-.6 0-1.2-.5-1.2-1.2 0-.6.5-1.2 1.2-1.2s1.2.5 1.2 1.2z"/><path fill="#303030" d="M272.7 286.9c0 1-.8 1.8-1.8 1.8s-1.8-.8-1.8-1.8.8-1.8 1.8-1.8 1.8.8 1.8 1.8z"/><path fill="#585959" d="M272 286.9c0 .6-.5 1.2-1.1 1.2s-1.2-.5-1.2-1.2c0-.6.5-1.2 1.2-1.2.6 0 1.1.5 1.1 1.2z"/></g><path fill="#283950" d="M246.2 294.1V375h5.6v-75.3h135.4V375h52.4V294.1"/><g><path fill="#FFF" d="M391.2 318.6h44.5L391.2 299"/><path fill="#F5F1E6" d="M391.2 299l44.5 19.6V299"/><path fill="#283950" d="M409.5 303h7.9v1.3h-7.9z"/></g><g><path fill="#FFF" d="M391.2 344.4h44.5l-44.5-19.7"/><path fill="#F5F1E6" d="M391.2 324.7l44.5 19.7v-19.7"/><path fill="#283950" d="M409.5 328.7h7.9v1.3h-7.9z"/></g><g><path fill="#FFF" d="M391.2 370.1h44.5l-44.5-19.6"/><path fill="#F5F1E6" d="M391.2 350.5l44.5 19.6v-19.6"/><path fill="#283950" d="M409.5 354.5h7.9v1.3h-7.9z"/></g><path fill="#283950" d="M380 303h-10.2v4.5c0 .8-.7 1.4-1.6 1.4h-1.8c-.9 0-1.6-.6-1.6-1.4V303h-92.4v4.5c0 .8-.7 1.4-1.6 1.4H269c-.9 0-1.6-.6-1.6-1.4V303h-10.1c-.7 0-1.4.5-1.4 1.2v21.1c0 .7.6 1.2 1.4 1.2h122.6c.7 0 1.4-.6 1.4-1.2v-21.1c0-.7-.6-1.2-1.3-1.2z"/><g><path fill="#24ACFF" d="M284.1 334.6s0 8 4.4 10.9l.4 3.2s-6.1-.4-7.2-13.8c0 0 1.1-2.5 2.4-.3z"/><path fill="#3EB6FF" d="M289.3 324.5s-6.2 5.3-7.6 7-.8 2.7 0 3.3 1.9.3 4.6-1.8c2.3-1.9 3.6-2.2 3.6-2.2l-.6-6.3z"/><path fill="#56B4D1" d="M303 301.1h11.5c4.9 0 8.1 1 10.1 2.1 0-.1 0-.2-.1-.3-1.2-7.4-8.7-7.1-8.7-7.1h-16.3s-7.4-.3-8.7 7.1c-.1.4-.1.8-.2 1.2 5.5-3.2 12.4-3 12.4-3z"/><path fill="#0995FF" d="M314.5 301.1H303s-6.9-.2-12.3 3c-1.3 7.7-4 21.2-2.7 27.4 1.4 6.5 3.6 8.5 8.5 8.5H319s7.1-2 8.5-8.5c1.3-6.4-1.6-20.7-2.8-28.2-2.1-1.2-5.2-2.2-10.2-2.2z"/><path fill="#3EB6FF" d="M304.4 365.8h6.5v7.9h-6.5z"/><path fill="#017CA4" d="M310.9 365.8c0 .5-1.5.9-3.3.9s-3.3-.4-3.3-.9 1.5-.9 3.3-.9 3.3.4 3.3.9z"/><path fill="#128FDB" d="M305.1 363v1.9c0 .5 1.2.9 2.6.9s2.6-.4 2.6-.9V363h-5.2z"/><ellipse fill="#017CA4" cx="307.7" cy="363" rx="2.6" ry=".9"/><path fill="#24ACFF" d="M333 334.6s0 8-4.4 10.9l-.4 3.2s6.1-.4 7.2-13.8c0 0-1.1-2.5-2.4-.3z"/><path fill="#3EB6FF" d="M327.8 324.5s6.2 5.3 7.6 7 .8 2.7 0 3.3c-.8.6-1.9.3-4.6-1.8-2.3-1.9-3.6-2.2-3.6-2.2l.6-6.3z"/><path fill="#128FDB" d="M325.4 338.1h-33.8s-3.5 2.1-3.8 5.3c4.1 1.4 11.2 3 21.7 3 10.9 0 16.8-1.8 19.8-3.2-.4-3.1-3.9-5.1-3.9-5.1z"/><path fill="#0995FF" d="M287.8 343.4c0 .1-.1.3-.1.4 0 3.5.6 5.9 4.6 7 3.9 1.1 8.2 2.1 16.2 2.1s12.3-1.1 16.2-2.1c3.9-1.1 4.6-3.5 4.6-7 0-.2-.1-.4-.1-.6-3 1.4-8.9 3.2-19.8 3.2-10.4 0-17.5-1.7-21.6-3z"/><path fill="#3EB6FF" d="M305.9 352.9v9.9s1.2 1.2 3.5 0v-9.9c.1 0-.4-4.3-3.5 0zM329.3 378.7c1.5.7 2.8 1.2 3.8 1.7.5-1.8-2.2-3.3-9.4-5.7-8.5-3-16.1-1.8-16.1-1.8s-7.6-1.1-16.1 1.8c-7.3 2.5-10 4-9.3 5.9 7.3-4 14.1-5.4 25.5-5.4 13.8-.1 16.3 1.2 21.6 3.5z"/><path fill="#128FDB" d="M329.3 378.7c-5.3-2.3-7.9-3.5-21.6-3.5-11.4 0-18.2 1.4-25.5 5.4.1.3.3.6.6 1 1.9 2.4 4.3-.5 8.4-1.9 2.4-.9 9-3.4 14.7-1.1h3.5c5.7-2.3 12.3.3 14.7 1.1 4.1 1.5 6.5 4.3 8.4 1.9.3-.4.5-.7.6-1.1-1-.6-2.2-1.2-3.8-1.8z"/><path fill="#3EB6FF" d="M305.6 380.6s-1.3 5.7 0 6.4c1.3.7 3.9 1.2 3.9-1 0-3.5.2-11.8-1.7-11.8-1.2-.1-2.1 5.8-2.2 6.4z"/><path fill="#595858" d="M334.5 379.9c-.4-.2-.8-.3-1.2-.3-1.8 0-3.2 1.4-3.2 3.2s1.4 3.2 3.2 3.2c.4 0 .9-.1 1.2-.2v-5.9z"/><circle fill="#888" cx="334.5" cy="383.6" r="2.7"/><circle fill="#595858" cx="334.5" cy="383.6" r="2.1"/><path fill="#595858" d="M280.1 379.9c.4-.2.8-.3 1.2-.3 1.8 0 3.2 1.4 3.2 3.2s-1.4 3.2-3.2 3.2c-.4 0-.9-.1-1.2-.2v-5.9z"/><circle fill="#888" cx="280.1" cy="383.6" r="2.7"/><circle fill="#595858" cx="280.1" cy="383.6" r="2.1"/><path fill="#595858" d="M305.1 386.6c.4-.2.8-.2 1.2-.2 1.8 0 3.2 1.4 3.2 3.2 0 1.8-1.4 3.2-3.2 3.2-.4 0-.9-.1-1.2-.2v-6z"/><path fill="#888" d="M302.4 390.2c0 1.5 1.2 2.7 2.7 2.7s2.7-1.2 2.7-2.7-1.2-2.7-2.7-2.7-2.7 1.2-2.7 2.7z"/><circle fill="#595858" cx="305.1" cy="390.2" r="2.1"/></g><g><ellipse fill="#283950" cx="477.3" cy="240.1" rx="18.5" ry="18.7"/><path fill="#FFF" d="M477.3 255.2c-8.3 0-15.1-6.8-15.1-15.2s6.8-15.2 15.1-15.2 15.1 6.8 15.1 15.2-6.8 15.2-15.1 15.2z"/><g fill="#283950"><path d="M478.7 227c0 .8-.6 1.4-1.4 1.4-.8 0-1.4-.6-1.4-1.4 0-.8.6-1.4 1.4-1.4.8 0 1.4.6 1.4 1.4zM478.7 253.2c0 .8-.6 1.4-1.4 1.4-.8 0-1.4-.6-1.4-1.4s.6-1.4 1.4-1.4c.8 0 1.4.6 1.4 1.4zM490.3 241.5c-.8 0-1.4-.6-1.4-1.4s.6-1.4 1.4-1.4c.8 0 1.4.6 1.4 1.4 0 .7-.6 1.4-1.4 1.4zM464.3 241.5c-.8 0-1.4-.6-1.4-1.4s.6-1.4 1.4-1.4 1.4.6 1.4 1.4c0 .7-.6 1.4-1.4 1.4z"/><g><path d="M471.7 228.2c.3.5.1 1.1-.4 1.3-.5.3-1 .1-1.3-.4-.3-.5-.1-1.1.4-1.3.4-.2 1 0 1.3.4zM484.6 250.9c.3.5.1 1.1-.4 1.3-.5.3-1.1.1-1.3-.4-.3-.5-.1-1.1.4-1.3s1.1 0 1.3.4zM466.5 232.7c.5.3.6.9.4 1.3-.3.5-.9.6-1.3.4-.5-.3-.6-.9-.3-1.3.2-.5.8-.7 1.2-.4zM489 245.8c.5.3.6.9.4 1.3-.3.5-.9.6-1.3.4-.5-.3-.6-.9-.4-1.3.3-.5.9-.7 1.3-.4zM483 228.2c-.3.5-.1 1.1.4 1.3.5.3 1 .1 1.3-.4.3-.5.1-1.1-.4-1.3-.5-.2-1.1 0-1.3.4zM470 250.9c-.3.5-.1 1.1.4 1.3.5.3 1 .1 1.3-.4.3-.5.1-1.1-.4-1.3s-1 0-1.3.4zM488.1 232.7c-.5.3-.6.9-.4 1.3.3.5.9.6 1.3.4.5-.3.6-.9.3-1.3-.2-.5-.8-.7-1.2-.4zM465.6 245.8c-.5.3-.6.9-.4 1.3.3.5.9.6 1.3.4.5-.3.6-.9.3-1.3-.2-.5-.8-.7-1.2-.4z"/></g></g><path fill="#002F2F" d="M477.4 240.3l-.2-.4s7.3-5 9.3-5.3c.2 0 .4.2.2.4-1.3 1.6-9.3 5.3-9.3 5.3z"/><path fill="#002F2F" d="M478.5 240.1c0 .7-.6 1.2-1.2 1.2-.7 0-1.2-.6-1.2-1.2 0-.7.6-1.2 1.2-1.2.7-.1 1.2.5 1.2 1.2z"/></g><ellipse fill="#0B87D3" cx="308.5" cy="341.3" rx="19.4" ry="3.8"/><g><path fill="#CCC" d="M291.3 331.2s-3.2 1.1-5.8.8c-2.5-.3-8-3.2-8.5-8.2s2.6-7.4 2.7-10.4-1.4-5.3-4.8-3.6c-3.5 1.8-6.2 7.9-5.5 13.3s5.5 12.6 11.6 13.1 11.8-2.5 13.4-4.1c1.7-1.8.2-2.2-3.1-.9z"/><g fill="#999"><path d="M285.6 331.9c-.7-.1-1.6-.4-2.5-.8-.6.8-.6 3.5-.7 5.1 1.3 0 2.5-.1 3.6-.3-.3-1-.2-2.9-.2-3.9-.1 0-.2 0-.2-.1zM277.9 329.9c.5-.9.9-1.4 1.1-1.8-.9-1.1-1.6-2.4-1.8-4-.1-.1-.3-.1-.4-.1-1.6-.3-4.7.9-6.6 2 1.1 3.1 3.3 6.4 6.1 8.4-.1-1.4.8-3.2 1.6-4.5zM275.6 317.9c1.4.2 2 .5 2.4.5.5-1.3 1.2-2.4 1.6-3.5-.6-1.1-6-2.1-7.4-2.4-1.1 1.6-2 3.7-2.4 5.9 1.2-.9 3.9-.7 5.8-.5z"/></g></g><path fill="#CCC" d="M299.2 303.4s-4.3 7.7-5.8 14.4c-1.4 6.8-1.1 8.1-1.4 7.4s-2.9-1.7-3 2.4.8 11.8 1.2 12.9 8.2 1.8 10.1.7c1.9-1.1 2.3-2 5.5-1.1s8.1.6 9-.1 5.1-1.1 6.4-.6c1.3.6 6-.3 6.4-1.1.4-.8.3-4.9 0-9.3s-2.9-7.2-3.8-7.2-.6-6.4-3.4-12.4c-3-6.4-5-8.2-5-8.2l-16.2 2.2z"/><path fill="#999" d="M289.3 338.5s.1-2 2.7-1.6c1.8.3 5.1 2.7 5.5 2.1 1.3-2.5-.4-14.1.4-14.9.7-.7 5.3-1.1 6 1s.4 12.1 1.8 13.2c1.4 1.2 7 2.7 7.2 0s-.2-10.4 1-12.1c1.3-1.8 5.9-7.3 5.8-2.3s-.7 11.9.1 12.7c.8.7 4.3-.3 5.4-.5s2.6 0 2.7-1 .5 1.8.1 2.8-7 2.1-7.8 1.6c-.9-.4-4.4-.1-5.8.5s-6.8 1-8.5.1c-1.4-.7-5.4.3-6.8.9s-1.8.4-2.7.1c-.8-.2-8.2-.7-7.1-2.6z"/><path fill="#CCC" d="M287.8 341.6s-.2-3.1 2.2-3.9c2.4-.8 5.7.9 6.5 2.2.9 1.3.8 2-1 2.3-1.8.4-7.6.1-7.7-.6zM320.2 340.7s-.4-3 1.6-3.7 5.8-.8 7 .7c1.2 1.4.9 3.2-.3 3.4-1.3.2-7.7.7-8.3-.4z"/><path fill="#999" d="M303.3 328.4s1.3-4 4.4-4.4 5.4 1 6.7 4.9c1.2 3.9.7 10.8-.4 11.4-1.1.7-3.9.6-7.3-.2s-4.5-2.3-4.5-2.3-2.7-3.1 1.1-9.4z"/><path fill="#B3B3B3" d="M317.3 304.1s1 1.8 1.6 3c.5 1.2-2.1.9-4.1.6-1.9-.3-12.2-2.2-15.6 1.2-3.5 3.3-4.6 6.4-4.9 7.5s0-1.5 2-6.4 2.7-6.4 2.9-6.6 17.4-.7 18.1.7z"/><path fill="#CCC" d="M297.7 326.5s.7 10.9.7 13.6c0 2.8-.9 3.9.7 4.4 1.6.6 4.4.7 5.2-1 .8-1.7.3-3.3.1-5.7-.2-2.3.1-11-.2-12.5-.4-1.5-7.7-7.4-6.5 1.2zM313.5 326.4s-.2 7.9-.3 11.5c-.1 3.7-.6 5 0 5.8s4.6 1.2 5.7 0 .4-3 .2-6.4c-.2-3.4 0-9.8.3-12s.1-4.4-.6-4.3c-.6.1-3.4 1.1-5.3 5.4z"/><g fill="#999"><path d="M315.9 310.3c-1 .4-.8 1.1 1.9 1.2 1.6.1 2.7-.2 3.4-.1-.2-.7-.5-1.3-.8-2-.3-.6-.5-1.1-.8-1.6.1 0-2.7 2.1-3.7 2.5zM321.1 318.6h1.9c-.1-.9-.3-1.9-.6-3-1.1.6-3.7 1.9-4.4 2.1-.6.2-.2.8 3.1.9zM295.7 312.3c1.6.6 4.8.4 5.5 0s.3-.7-1.4-1.4c-1.3-.5-2.7-1.7-3.3-2.2-.5 1.1-1 2.3-1.4 3.5.2 0 .5 0 .6.1zM295.2 319.2c1.8-.2 3.6-.8 2.6-1.2s-2.2-1.2-3.9-2.1c-.2.6-.3 1.3-.5 1.9-.1.6-.2 1.1-.3 1.6.7 0 1.5-.1 2.1-.2z"/></g><circle fill="#4D4D4D" cx="317.8" cy="286.4" r="1.5"/><g><path fill="#B3B3B3" d="M300 276.6s-8.5-1.2-9.9 1.8c-1 2.3-1.3 3 1.5 3.5s.5 2.1 2 2.8c1.5.6 7.1-5.9 6.4-8.1z"/><path fill="gray" d="M297 279.2s-3.4-1.2-4.4-.6c-1 .6-1.2.7-.1 1.9 1.1 1.2 1.3 1.9 1.6 2.3.3.3 2.6-.9 2.9-3.6z"/><path fill="#B3B3B3" d="M317.6 278.7s8.5-1.2 9.9 1.8c1 2.3 1.3 3-1.5 3.5s-.5 2.1-2 2.8c-1.5.6-7.1-5.9-6.4-8.1z"/><path fill="gray" d="M320.7 280.9s3.4-1.2 4.4-.6c1 .6 1.2.7.1 1.9-1.1 1.2-1.3 1.9-1.6 2.3-.3.4-2.6-.9-2.9-3.6z"/><path fill="#CCC" d="M317.6 276.7s-4.2-2.6-9.2-2.7c-5-.1-11.2 1.9-14.6 7.7-4 6.8-1 14.7.1 16.4 1.8 2.7 3.5 4.5 6.6 6.1 3.6 1.9 8.6 2.4 13.7.9 2.2-.7 5.7-3.2 6.9-4.5 1.3-1.4 4-4.6 3.7-10.7-.3-5-3.3-11-7.2-13.2z"/><path fill="gray" d="M307.8 293.7s1.5-1.1 2.2-.6.8 1.4-.3 2.1c-1.1.7-1.9.9-1.9.9s-3.2-.8-3-1.9c.3-1.2 1.8-1.8 3-.5z"/><circle fill="#4D4D4D" cx="314.6" cy="293.8" r=".3"/><circle fill="#4D4D4D" cx="314.4" cy="296" r=".3"/><circle fill="#4D4D4D" cx="316.4" cy="294.8" r=".3"/><circle fill="#4D4D4D" cx="301.2" cy="295" r=".3"/><circle fill="#4D4D4D" cx="300" cy="297.3" r=".3"/><circle fill="#4D4D4D" cx="298.7" cy="295.4" r=".3"/><circle fill="#4D4D4D" cx="300.8" cy="289.6" r="1.4"/><circle fill="#4D4D4D" cx="315.3" cy="289.6" r="1.4"/><path fill="#4D4D4D" d="M307.5 296.2s.3 3.1.1 3.4c-.1.3-2.1 1.1-3.2.7s-1.1-1.1-1.4-.9c-.3.1.1.9.6 1.1s1.9.4 2.8.2c.8-.3 1.3-.8 1.4-.7.1.1 1.8 1 3.2.9 1.4-.1 2-1 2.3-1.2s.3-.4-.1-.6-1.3 1.2-2.3 1.2-2.4-.5-2.6-.9-.3-2.8-.3-3.3c.2-.4-.5-.4-.5.1z"/><path fill="#999" d="M293.7 288.5c1.8-.3 3.4-.9 2.4-1.3-.9-.3-2.2-1-3.9-1.8-.1.6-.3 1.2-.4 1.9-.1.5-.2 1-.2 1.5l2.1-.3zM323.3 292.6c.5.1.9.2 1.2.3 0-.6.1-1.2.1-2-1.3.3-2.1.6-3.1.6-.3.1-.2.6 1.8 1.1zM322 296.7c.6.3 1 .6 1.4.8.2-.7.5-1.5.8-2.4-1 0-3.4-.1-4-.2-.5-.1-.6.5 1.8 1.8zM292.7 294.3c1.6-.3 4.2-2 4.6-2.7s-.1-.7-1.8-.5c-1.3.2-3.1-.1-3.8-.2.1 1.1.3 2.4.5 3.6.1 0 .3-.1.5-.2z"/></g><g><path d="M288.5 294.1l-.2.2s-.1.2-.2.2 0-.4 0-.5l-.2.2-.1 1.1.7-1.1c.1 0 0-.1 0-.1z"/><path fill="#E8813C" d="M289.8 292.3c-.1 0 0-.3 0-.5v-.3l-1.4 2.9.2-.2v.1l1.4-2.2-.2.2z"/><path fill="#F39150" d="M289.7 291.4c-.1 0-.2.1-.3.2-.2.2-.4.5-.6.5s-.1-.4-.1-.7v-.3h-.1l-.1.1-.5 2.8c0 .1-.1.5 0 .5s.1-.1.2-.2l1.5-2.9c.1 0 0 0 0 0z"/><path fill="#F5A26D" d="M288.1 294l.5-2.8s0 .1-.1.1c-.1.2-.3.4-.4.3-.1 0-.1-.1-.1-.3l-.1 2.8c.1 0 .1-.1.2-.1z"/><path fill="#FFCF5E" d="M292 279.4l-3.9 11.8v.2c0 .1 0 .3.1.3s.3-.2.4-.3l.1-.1 3.9-11.7-.6-.2z"/><path fill="#FFBE23" d="M293.6 279.9l-1.1-.4-3.9 11.7.1-.1h.1s.1.1 0 .3c0 .3 0 .6.1.7.1 0 .4-.3.6-.5.1-.1.2-.2.3-.2l3.8-11.5z"/><path fill="#E3A922" d="M293.6 279.9l-3.8 11.5s.1.2 0 .3c0 .2-.1.5 0 .5l.2-.2.2-.2 3.9-11.8-.5-.1z"/><g><path fill="#F08281" d="M293.2 275.8c-.1.4-.4 1.2-.5 1.6.2.1.3.1.5.2l.6-1.9c-.2 0-.4 0-.6.1z"/><path fill="#DE4B49" d="M295.3 276.5c-.1-.2-.2-.3-.4-.4l-.7 1.9c.2.1.3.1.5.2.2-.5.4-1.2.6-1.7z"/><path fill="#E95F5E" d="M293.8 275.7l-.6 1.9c.4.1.7.2 1.1.4l.6-1.9c-.4-.3-.7-.4-1.1-.4z"/></g><g><path fill="#C4C4C4" d="M294.325 277.99l.475.157-.632 1.898-.474-.158z"/><path fill="#ECECEC" d="M291.918 279.33l.632-1.896.474.157-.632 1.9z"/><path fill="#D9D9D9" d="M292.493 279.606l.632-1.898 1.14.38-.633 1.897z"/></g></g><path fill="#333" d="M325.4 286.1l-.1-1.3c.1-.8-.6-.7-.6-.7l-3.5-.1c-5.3-.5-8.6.5-8.6.5-3.2 1-4.8 1.2-5.5 1.3-.7 0-2.4-.1-5.7-.7 0 0-3.5-.7-8.7.3l-3.5.5s-.7-.1-.5.7v1.3s0 .3.1.5c0 .2.2.3.5.4 0 0 .1 0 .3.2.1.1.2.3.3.5l.4 1.5.2.8s.3 1.1.6 2.1c.8 3.1 4.4 3.5 5.4 3.6 0 0 3.6.1 5.8-1.6 0 0 2-1.2 3.3-5.9 0 0 .4-1.4 1.4-1.6h.4c1.1.1 1.6 1.4 1.6 1.4 1.7 4.6 3.8 5.6 3.8 5.6 2.3 1.6 5.9 1.1 5.9 1.1.9-.1 4.4-.9 5-4.1.2-1 .4-2.2.4-2.2l.1-.8.2-1.6c.1-.2.2-.4.3-.5.1-.1.2-.2.3-.2.4-.1.5-.2.5-.4 0-.3-.1-.6-.1-.6zm-21 4.8s-.6 2.8-2.4 4.3c0 0-3.1 2.7-7.7 1.2 0 0-1.2-.4-2.1-1.9-.6-1-1-3.2-1-3.2v-.3c-.1-1 0-2.7.9-3.9l.1-.1c.1-.1.1-.2.2-.2 1-1 3.3-1.1 3.4-1.1l2.9-.1c0-.1 7.6-.6 5.7 5.3zm18.9-1.4v.3s-.2 2.2-.6 3.3c-.8 1.6-1.9 2-1.9 2-4.3 1.9-7.7-.5-7.7-.5-1.9-1.3-2.8-4-2.8-4-2.5-5.7 5.1-5.9 5.1-5.9l2.9-.1c.1 0 2.4-.1 3.5.8l.2.2.1.1c.9 1.1 1.1 2.7 1.2 3.8z"/></g></svg>